<svg width="13" height="20" viewBox="0 0 13 20" fill="none" xmlns="http://www.w3.org/2000/svg">
<path fill-rule="evenodd" clip-rule="evenodd" d="M0 6.92308C0 3.09957 2.91015 0 6.5 0C10.0899 0 13 3.09957 13 6.92308V14.1026C13 14.5274 12.6767 14.8718 12.2778 14.8718C11.8789 14.8718 11.5556 14.5274 11.5556 14.1026V6.92308C11.5556 3.94924 9.29211 1.53846 6.5 1.53846C3.70789 1.53846 1.44444 3.94924 1.44444 6.92308V15.1282C1.44444 16.9692 2.84563 18.4615 4.57407 18.4615C6.30252 18.4615 7.7037 16.9692 7.7037 15.1282V7.94872C7.7037 7.24066 7.16479 6.66667 6.5 6.66667C5.83521 6.66667 5.2963 7.24066 5.2963 7.94872V14.1026C5.2963 14.5274 4.97295 14.8718 4.57407 14.8718C4.1752 14.8718 3.85185 14.5274 3.85185 14.1026V7.94872C3.85185 6.39099 5.03747 5.12821 6.5 5.12821C7.96253 5.12821 9.14815 6.39099 9.14815 7.94872V15.1282C9.14815 17.8188 7.10027 20 4.57407 20C2.04788 20 0 17.8188 0 15.1282V6.92308Z" fill="#0094FF"/>
</svg>
