<svg width="15" height="18" viewBox="0 0 15 18" fill="none" xmlns="http://www.w3.org/2000/svg">
    <path fill-rule="evenodd" clip-rule="evenodd" d="M2.5 4.15385C1.8724 4.15385 1.36364 4.67044 1.36364 5.30769V15.4615C1.36364 16.0988 1.8724 16.6154 2.5 16.6154H9.77273C10.4003 16.6154 10.9091 16.0988 10.9091 15.4615V8.38009C10.9091 8.07407 10.7894 7.78058 10.5763 7.56419L7.55042 4.4918C7.33731 4.27541 7.04827 4.15385 6.74688 4.15385H2.5ZM0 5.30769C0 3.90574 1.11929 2.76923 2.5 2.76923H6.74688C7.40993 2.76923 8.04581 3.03667 8.51465 3.51273L11.5405 6.58512C12.0093 7.06118 12.2727 7.70684 12.2727 8.38009V15.4615C12.2727 16.8635 11.1534 18 9.77273 18H2.5C1.11929 18 0 16.8635 0 15.4615V5.30769Z" fill="#0094FF"/>
    <path fill-rule="evenodd" clip-rule="evenodd" d="M3.63636 0.692308C3.63636 0.309957 3.94162 0 4.31818 0H8.11052C8.77356 0 9.40945 0.267444 9.87829 0.743498L14.2678 5.20051C14.7366 5.67656 15 6.32223 15 6.99547V13.6154C15 13.9977 14.6947 14.3077 14.3182 14.3077C13.9416 14.3077 13.6364 13.9977 13.6364 13.6154V6.99547C13.6364 6.68945 13.5166 6.39597 13.3035 6.17958L8.91405 1.72257C8.70094 1.50618 8.4119 1.38462 8.11052 1.38462H4.31818C3.94162 1.38462 3.63636 1.07466 3.63636 0.692308Z" fill="#0094FF"/>
</svg>
