<svg width="20" height="20" viewBox="0 0 20 20" fill="none" xmlns="http://www.w3.org/2000/svg">
<path d="M9.99999 16.2963C13.4773 16.2963 16.2963 13.4773 16.2963 9.99999C16.2963 6.52264 13.4773 3.7037 9.99999 3.7037C6.52264 3.7037 3.7037 6.52264 3.7037 9.99999C3.7037 13.4773 6.52264 16.2963 9.99999 16.2963Z" fill="#3F3E4E"/>
<path d="M9.99999 2.4074C10.3704 2.4074 10.7407 2.12963 10.7407 1.66666V0.74074C10.7407 0.37037 10.463 0 9.99999 0C9.53703 0 9.25925 0.37037 9.25925 0.74074V1.66666C9.25925 2.03703 9.62962 2.4074 9.99999 2.4074Z" fill="#3F3E4E"/>
<path d="M9.99999 17.5926C9.62962 17.5926 9.25925 17.8703 9.25925 18.3333V19.2592C9.25925 19.6296 9.53703 20 9.99999 20C10.463 20 10.7407 19.7222 10.7407 19.2592V18.3333C10.7407 17.9629 10.3704 17.5926 9.99999 17.5926Z" fill="#3F3E4E"/>
<path d="M19.2592 9.25925H18.3333C17.9629 9.25925 17.5926 9.53703 17.5926 9.99999C17.5926 10.463 17.8703 10.7407 18.3333 10.7407H19.2592C19.6296 10.7407 20 10.463 20 9.99999C20 9.53703 19.6296 9.25925 19.2592 9.25925Z" fill="#3F3E4E"/>
<path d="M1.66666 9.25925H0.74074C0.37037 9.25925 0 9.53703 0 9.99999C0 10.463 0.277777 10.7407 0.74074 10.7407H1.66666C2.03703 10.7407 2.4074 10.463 2.4074 9.99999C2.4074 9.53703 2.03703 9.25925 1.66666 9.25925Z" fill="#3F3E4E"/>
<path d="M16.0185 2.96305L15.3704 3.6112C15.0926 3.88897 15.0926 4.35194 15.3704 4.62971C15.4629 4.72231 15.6481 4.8149 15.8333 4.8149C16.0185 4.8149 16.2037 4.72231 16.2963 4.62971L16.9444 3.98157C17.2222 3.70379 17.2222 3.24083 16.9444 2.96305C16.6667 2.68527 16.2963 2.68527 16.0185 2.96305Z" fill="#3F3E4E"/>
<path d="M3.61108 15.3704L2.96294 16.0185C2.68516 16.2963 2.68516 16.7592 2.96294 17.037C3.05553 17.1296 3.24071 17.2222 3.4259 17.2222C3.61108 17.2222 3.79627 17.1296 3.88886 17.037L4.53701 16.3889C4.81479 16.1111 4.81479 15.6481 4.53701 15.3704C4.35182 15.0926 3.88886 15.0926 3.61108 15.3704Z" fill="#3F3E4E"/>
<path d="M16.3889 15.3704C16.1111 15.0926 15.6481 15.0926 15.3704 15.3704C15.0926 15.6481 15.0926 16.1111 15.3704 16.3889L16.0185 17.037C16.1111 17.1296 16.2963 17.2222 16.4815 17.2222C16.6666 17.2222 16.8518 17.1296 16.9444 17.037C17.2222 16.7592 17.2222 16.2963 16.9444 16.0185L16.3889 15.3704Z" fill="#3F3E4E"/>
<path d="M3.61108 4.62971C3.70368 4.72231 3.88886 4.8149 4.07405 4.8149C4.25923 4.8149 4.44442 4.72231 4.6296 4.62971C4.90738 4.35194 4.90738 3.88897 4.6296 3.6112L3.98145 2.96305C3.70368 2.68527 3.24071 2.68527 2.96294 2.96305C2.68516 3.24083 2.68516 3.70379 2.96294 3.98157L3.61108 4.62971Z" fill="#3F3E4E"/>
</svg>
