<svg width="24" height="14" viewBox="0 0 24 14" fill="none" xmlns="http://www.w3.org/2000/svg">
<path d="M11.1399 12.1296C10.6468 12.6907 9.92543 13.1427 8.9758 13.4856C8.02618 13.8285 6.98524 14 5.85299 14C4.11201 14 2.72105 13.4545 1.68011 12.3634C0.639172 11.2723 0.0821793 9.75418 0.00913103 7.80895L0 6.63059C0 5.29014 0.231319 4.12113 0.693958 3.12358C1.1566 2.1198 1.81708 1.34981 2.67539 0.813627C3.5398 0.271209 4.53812 0 5.67037 0C7.32613 0 8.61056 0.389668 9.52366 1.169C10.4429 1.94211 10.9785 3.09864 11.1307 4.63861H8.04444C7.93487 3.87798 7.69746 3.33556 7.33222 3.01136C6.96698 2.68715 6.44955 2.52505 5.77994 2.52505C4.97641 2.52505 4.3555 2.87419 3.91721 3.57248C3.47892 4.27076 3.25673 5.26831 3.25065 6.56513V7.38811C3.25065 8.74727 3.47588 9.76976 3.92634 10.4556C4.38289 11.1352 5.09816 11.475 6.07213 11.475C6.9061 11.475 7.52701 11.2848 7.93487 10.9045V8.79092H5.70689V6.53707H11.1399V12.1296Z" fill="#3F3E4E"/>
<path d="M20.795 10.1937C20.795 9.71365 20.6276 9.33957 20.2928 9.07148C19.9641 8.80338 19.3827 8.52594 18.5488 8.23915C17.7148 7.95235 17.033 7.67491 16.5034 7.40681C14.7807 6.54019 13.9193 5.34937 13.9193 3.83434C13.9193 3.07994 14.1324 2.41594 14.5585 1.84235C14.9907 1.26253 15.5995 0.813627 16.3847 0.495658C17.17 0.171454 18.0527 0.00935204 19.0327 0.00935204C19.9884 0.00935204 20.8437 0.183923 21.5985 0.533066C22.3595 0.882209 22.9499 1.38098 23.37 2.02939C23.79 2.67157 24 3.40726 24 4.23647H20.8041C20.8041 3.68159 20.6367 3.25139 20.3019 2.94589C19.9732 2.64039 19.5258 2.48764 18.9597 2.48764C18.3875 2.48764 17.934 2.61857 17.5991 2.88043C17.2704 3.13605 17.1061 3.46337 17.1061 3.86239C17.1061 4.21153 17.2887 4.5295 17.6539 4.8163C18.0192 5.09686 18.6614 5.38989 19.5806 5.69539C20.4998 5.99466 21.2546 6.31886 21.8451 6.668C23.2817 7.51592 24 8.68493 24 10.175C24 11.3658 23.5617 12.301 22.6851 12.9806C21.8086 13.6602 20.6063 14 19.0784 14C18.0009 14 17.0239 13.8036 16.1473 13.4108C15.2768 13.0118 14.6194 12.4694 14.175 11.7836C13.7367 11.0915 13.5176 10.2966 13.5176 9.3988H16.7317C16.7317 10.1283 16.9143 10.6676 17.2796 11.0167C17.6509 11.3596 18.2505 11.5311 19.0784 11.5311C19.608 11.5311 20.025 11.4157 20.3293 11.185C20.6398 10.9481 20.795 10.6177 20.795 10.1937Z" fill="#3F3E4E"/>
</svg>
