<svg width="20" height="20" viewBox="0 0 20 20" fill="none" xmlns="http://www.w3.org/2000/svg">
<path d="M19.5897 6.97436C19.7949 6.25641 20 5.23077 20 4.41026C20 3.58974 19.7949 2.5641 19.5897 1.84615C19.4872 1.02564 18.7692 0.51282 18.0513 0.410256C16.5128 0.307692 12.6154 -3.22792e-07 9.94872 -4.39356e-07C7.28205 -5.55919e-07 3.38461 0.307691 1.84615 0.410255C1.02564 0.51282 0.410255 1.02564 0.307691 1.74359C0.102564 2.46154 -2.05978e-06 3.48718 -2.09564e-06 4.30769C-2.13151e-06 5.1282 0.205127 6.15384 0.307691 6.87179C0.512819 7.58974 1.1282 8.20513 1.84615 8.20513C3.38461 8.30769 7.28205 8.61538 9.94872 8.61538C12.6154 8.61538 16.5128 8.30769 18.0513 8.20513C18.7692 8.30769 19.4872 7.79487 19.5897 6.97436Z" fill="#3F3E4E"/>
<path d="M18.0512 19.6923C18.8717 19.5897 19.4871 19.0769 19.5896 18.3589C19.7948 17.641 19.8973 16.6154 19.8973 15.7948C19.8973 14.9743 19.7948 13.8461 19.5896 13.1282C19.3845 12.4102 18.7691 11.7948 18.0512 11.7948C16.5127 11.6923 12.6153 11.3846 9.94862 11.3846C7.28195 11.3846 3.38451 11.6923 1.84605 11.7948C1.02554 11.8974 0.410154 12.4102 0.30759 13.1282C0.102462 13.8461 -0.000103647 14.8718 -0.000103683 15.6923C-0.000103719 16.5128 0.205026 17.5384 0.30759 18.2564C0.512717 18.9743 1.1281 19.5897 1.84605 19.5897C3.38451 19.6923 7.28195 20 9.94862 20C12.6153 20 16.5127 19.7948 18.0512 19.6923Z" fill="#3F3E4E"/>
</svg>
