<svg width="20" height="20" viewBox="0 0 20 20" fill="none" xmlns="http://www.w3.org/2000/svg">
<path fill-rule="evenodd" clip-rule="evenodd" d="M18.4615 4.5C18.4615 3.80833 18.296 2.84152 18.1553 2.15525C18.138 2.07099 18.0674 1.99791 17.9602 1.98938C16.3852 1.86403 12.6177 1.58824 10 1.58823C7.38234 1.58823 3.6148 1.86403 2.03979 1.98938C1.9326 1.99791 1.86195 2.07099 1.84468 2.15525C1.70398 2.84152 1.53846 3.80833 1.53846 4.5C1.53846 5.19166 1.70398 6.15847 1.84468 6.84475C1.86195 6.92901 1.9326 7.00209 2.03979 7.01062C3.6148 7.13597 7.38234 7.41176 10 7.41176C12.6177 7.41176 16.3852 7.13597 17.9602 7.01062C18.0674 7.00209 18.138 6.92901 18.1553 6.84475C18.296 6.15848 18.4615 5.19167 18.4615 4.5ZM19.6604 1.82638C19.8021 2.51717 20 3.62697 20 4.5C20 5.37303 19.8021 6.48283 19.6604 7.17362C19.4968 7.97165 18.8422 8.53337 18.0785 8.59416C16.5077 8.71917 12.6847 9 10 9C7.31527 9 3.49231 8.71917 1.92155 8.59416C1.15775 8.53337 0.503175 7.97165 0.339561 7.17362C0.197933 6.48283 -2.14221e-06 5.37303 -2.10405e-06 4.5C-2.06589e-06 3.62697 0.197933 2.51717 0.339561 1.82638C0.503176 1.02835 1.15775 0.466625 1.92155 0.40584C3.49232 0.280832 7.31527 -5.54467e-07 10 -4.37114e-07C12.6847 -3.19761e-07 16.5077 0.280833 18.0785 0.405841C18.8422 0.466626 19.4968 1.02835 19.6604 1.82638Z" fill="#3F3E4E"/>
<path fill-rule="evenodd" clip-rule="evenodd" d="M18.4615 15.5C18.4615 14.8083 18.296 13.8415 18.1553 13.1553C18.138 13.071 18.0674 12.9979 17.9602 12.9894C16.3852 12.864 12.6177 12.5882 10 12.5882C7.38234 12.5882 3.6148 12.864 2.03979 12.9894C1.9326 12.9979 1.86195 13.071 1.84468 13.1552C1.70398 13.8415 1.53846 14.8083 1.53846 15.5C1.53846 16.1917 1.70398 17.1585 1.84468 17.8447C1.86195 17.929 1.9326 18.0021 2.03979 18.0106C3.6148 18.136 7.38234 18.4118 10 18.4118C12.6177 18.4118 16.3852 18.136 17.9602 18.0106C18.0674 18.0021 18.138 17.929 18.1553 17.8447C18.296 17.1585 18.4615 16.1917 18.4615 15.5ZM19.6604 12.8264C19.8021 13.5172 20 14.627 20 15.5C20 16.373 19.8021 17.4828 19.6604 18.1736C19.4968 18.9716 18.8422 19.5334 18.0785 19.5942C16.5077 19.7192 12.6847 20 10 20C7.31527 20 3.49231 19.7192 1.92155 19.5942C1.15775 19.5334 0.503175 18.9716 0.339561 18.1736C0.197932 17.4828 -2.62304e-06 16.373 -2.58488e-06 15.5C-2.54671e-06 14.627 0.197933 13.5172 0.339561 12.8264C0.503175 12.0284 1.15775 11.4666 1.92155 11.4058C3.49231 11.2808 7.31527 11 10 11C12.6847 11 16.5077 11.2808 18.0785 11.4058C18.8422 11.4666 19.4968 12.0284 19.6604 12.8264Z" fill="#3F3E4E"/>
</svg>
