<svg width="10" height="12" viewBox="0 0 10 12" fill="none" xmlns="http://www.w3.org/2000/svg">
<path d="M9.88506 5.41538C9.82759 4.61538 9.25287 4 8.50575 3.93846C8.27586 3.93846 7.98851 3.87692 7.75862 3.87692V2.33846C7.75862 1.04615 6.78161 0 5.57471 0H4.42529C3.21839 0 2.24138 1.04615 2.24138 2.33846V3.87692C1.95402 3.87692 1.72414 3.93846 1.49425 3.93846C0.747127 4 0.172414 4.61538 0.114943 5.41538C0.0574713 6.09231 0 7.13846 0 7.87692C0 8.61539 0.0574713 9.6 0.114943 10.3385C0.172414 11.1385 0.747127 11.7538 1.49425 11.8154C2.52874 11.9385 3.90805 12 5 12C6.09195 12 7.47126 11.8769 8.50575 11.8154C9.25287 11.7538 9.82759 11.1385 9.88506 10.3385C9.94253 9.66154 10 8.67692 10 7.87692C10 7.07692 9.94253 6.15385 9.88506 5.41538ZM5.45977 8.49231C5.45977 8.73846 5.28736 8.98462 5 8.98462C4.71264 8.98462 4.54023 8.8 4.54023 8.49231V7.26154C4.54023 7.01538 4.71264 6.76923 5 6.76923C5.28736 6.76923 5.45977 6.95385 5.45977 7.26154V8.49231ZM6.83908 3.81538C6.2069 3.75385 5.57471 3.69231 5 3.69231C4.42529 3.69231 3.7931 3.69231 3.16092 3.75385V2.33846C3.16092 1.6 3.73563 0.984615 4.42529 0.984615H5.57471C6.26437 0.984615 6.83908 1.6 6.83908 2.33846V3.81538Z" fill="#3F3E4E"/>
</svg>
