<svg width="20" height="20" viewBox="0 0 20 20" fill="none" xmlns="http://www.w3.org/2000/svg">
<path d="M20 4.62219V15.245C20 16.3579 19.2857 17.4708 18.1633 17.8754L13.0612 19.7977C12.7551 19.8988 12.449 20 12.0408 20C11.5306 20 10.9184 19.7977 10.4082 19.4942C10.2041 19.2918 9.89796 19.0895 9.79592 18.8871H5.91837C4.38776 18.8871 3.06122 17.6731 3.06122 16.0544V15.0427C3.06122 14.638 3.36735 14.2333 3.87755 14.2333C4.38776 14.2333 4.69388 14.5368 4.69388 15.0427V16.0544C4.69388 16.7626 5.30612 17.2684 5.91837 17.2684H9.28572V2.69997H5.91837C5.20408 2.69997 4.69388 3.20582 4.69388 3.91401V4.9257C4.69388 5.33038 4.38776 5.73506 3.87755 5.73506C3.36735 5.73506 3.06122 5.33038 3.06122 4.9257V3.91401C3.06122 2.39646 4.28572 1.08125 5.91837 1.08125H9.79592C10 0.878913 10.2041 0.676573 10.4082 0.474233C11.2245 -0.0316156 12.1429 -0.132785 13.0612 0.170724L18.1633 2.09295C19.1837 2.39646 20 3.50933 20 4.62219Z" fill="#3F3E4E"/>
<path d="M2.85714 12.8169C2.65306 12.8169 2.44898 12.7158 2.34694 12.6146L0.306122 10.5912C0.204082 10.49 0.204082 10.3889 0.102041 10.3889C0.102041 10.2877 0 10.1865 0 10.0854C0 9.98419 -9.88342e-08 9.88302 0.102041 9.78185C0.102041 9.68068 0.204082 9.57951 0.306122 9.57951L2.34694 7.55612C2.65306 7.25261 3.16327 7.25261 3.46939 7.55612C3.77551 7.85963 3.77551 8.36548 3.46939 8.66898L2.7551 9.37717H6.93878C7.34694 9.37717 7.7551 9.68068 7.7551 10.1865C7.7551 10.6924 7.34694 10.7936 6.93878 10.7936H2.65306L3.36735 11.5017C3.67347 11.8052 3.67347 12.3111 3.36735 12.6146C3.26531 12.7158 3.06122 12.8169 2.85714 12.8169Z" fill="#3F3E4E"/>
</svg>
