<svg width="20" height="20" viewBox="0 0 20 20" fill="none" xmlns="http://www.w3.org/2000/svg">
<path d="M20 9.98435C20 10.5853 19.6984 11.1862 19.0953 11.4867C17.0849 12.6886 13.2652 14.7919 10.4506 16.1941C8.03814 17.3959 4.72099 18.7981 2.40903 19.7997C2.20799 19.8998 1.90643 20 1.70539 20C1.30331 20 0.800715 19.7997 0.499156 19.4992C-0.0034432 18.9984 -0.103963 18.2973 0.0970765 17.5962L2.20799 11.3865C2.30851 10.9859 2.71059 10.7856 3.11267 10.7856H8.13866C8.54074 10.7856 8.94282 10.4851 8.94282 9.98435C8.94282 9.48357 8.64126 9.1831 8.13866 9.1831H3.11267C2.71059 9.1831 2.30851 8.88263 2.20799 8.482L0.0970765 2.2723C-0.103963 1.67136 -0.00344328 0.970266 0.599676 0.469484C1.10227 -0.0312989 1.80591 -0.131455 2.40903 0.169014C4.31891 0.970266 7.93762 2.57277 10.4506 3.77465C13.2652 5.17684 17.0849 7.38028 19.0953 8.482C19.6984 8.78247 20 9.38341 20 9.98435Z" fill="#0094FF"/>
</svg>
