<svg width="20" height="20" viewBox="0 0 20 20" fill="none" xmlns="http://www.w3.org/2000/svg">
<path fill-rule="evenodd" clip-rule="evenodd" d="M4.5 1.58824C3.76727 1.58824 2.73635 1.76289 2.052 1.89936C1.97331 1.91505 1.91505 1.97331 1.89936 2.052C1.76289 2.73635 1.58824 3.76727 1.58824 4.5C1.58824 5.23273 1.76289 6.26365 1.89936 6.948C1.91505 7.02669 1.97331 7.08495 2.052 7.10064C2.73635 7.23711 3.76727 7.41177 4.5 7.41177C5.23273 7.41177 6.26365 7.23711 6.948 7.10064C7.02669 7.08495 7.08495 7.02669 7.10064 6.948C7.23711 6.26365 7.41177 5.23273 7.41177 4.5C7.41177 3.76727 7.23711 2.73635 7.10064 2.052C7.08495 1.97331 7.02669 1.91505 6.948 1.89936C6.26365 1.76289 5.23273 1.58824 4.5 1.58824ZM1.7414 0.341791C2.42728 0.205017 3.59496 0 4.5 0C5.40504 0 6.57272 0.205017 7.2586 0.341791C7.96673 0.483001 8.517 1.03328 8.65821 1.7414C8.79498 2.42728 9 3.59496 9 4.5C9 5.40504 8.79498 6.57272 8.65821 7.2586C8.517 7.96673 7.96672 8.517 7.2586 8.65821C6.57272 8.79498 5.40504 9 4.5 9C3.59496 9 2.42728 8.79498 1.7414 8.65821C1.03327 8.517 0.483001 7.96672 0.341791 7.2586C0.205017 6.57272 0 5.40504 0 4.5C0 3.59496 0.205017 2.42728 0.341791 1.7414C0.483001 1.03327 1.03328 0.483001 1.7414 0.341791Z" fill="#3F3E4E"/>
<path fill-rule="evenodd" clip-rule="evenodd" d="M4.5 12.5882C3.76727 12.5882 2.73635 12.7629 2.052 12.8994C1.97331 12.9151 1.91505 12.9733 1.89936 13.052C1.76289 13.7363 1.58824 14.7673 1.58824 15.5C1.58824 16.2327 1.76289 17.2637 1.89936 17.948C1.91505 18.0267 1.97331 18.0849 2.052 18.1006C2.73635 18.2371 3.76727 18.4118 4.5 18.4118C5.23273 18.4118 6.26365 18.2371 6.948 18.1006C7.02669 18.0849 7.08495 18.0267 7.10064 17.948C7.23711 17.2637 7.41177 16.2327 7.41177 15.5C7.41177 14.7673 7.23711 13.7363 7.10064 13.052C7.08495 12.9733 7.02669 12.9151 6.948 12.8994C6.26365 12.7629 5.23273 12.5882 4.5 12.5882ZM1.7414 11.3418C2.42728 11.205 3.59496 11 4.5 11C5.40504 11 6.57272 11.205 7.2586 11.3418C7.96673 11.483 8.517 12.0333 8.65821 12.7414C8.79498 13.4273 9 14.595 9 15.5C9 16.405 8.79498 17.5727 8.65821 18.2586C8.517 18.9667 7.96672 19.517 7.2586 19.6582C6.57272 19.795 5.40504 20 4.5 20C3.59496 20 2.42728 19.795 1.7414 19.6582C1.03327 19.517 0.483001 18.9667 0.341791 18.2586C0.205017 17.5727 0 16.405 0 15.5C0 14.595 0.205017 13.4273 0.341791 12.7414C0.483001 12.0333 1.03328 11.483 1.7414 11.3418Z" fill="#3F3E4E"/>
<path fill-rule="evenodd" clip-rule="evenodd" d="M15.5 1.58824C14.7673 1.58824 13.7363 1.76289 13.052 1.89936C12.9733 1.91505 12.9151 1.97331 12.8994 2.052C12.7629 2.73635 12.5882 3.76727 12.5882 4.5C12.5882 5.23273 12.7629 6.26365 12.8994 6.948C12.9151 7.02669 12.9733 7.08495 13.052 7.10064C13.7363 7.23711 14.7673 7.41177 15.5 7.41177C16.2327 7.41177 17.2637 7.23711 17.948 7.10064C18.0267 7.08495 18.0849 7.02669 18.1006 6.948C18.2371 6.26365 18.4118 5.23273 18.4118 4.5C18.4118 3.76727 18.2371 2.73635 18.1006 2.052C18.0849 1.97331 18.0267 1.91505 17.948 1.89936C17.2637 1.76289 16.2327 1.58824 15.5 1.58824ZM12.7414 0.341791C13.4273 0.205017 14.595 0 15.5 0C16.405 0 17.5727 0.205017 18.2586 0.341791C18.9667 0.483001 19.517 1.03328 19.6582 1.7414C19.795 2.42728 20 3.59496 20 4.5C20 5.40504 19.795 6.57272 19.6582 7.2586C19.517 7.96673 18.9667 8.517 18.2586 8.65821C17.5727 8.79498 16.405 9 15.5 9C14.595 9 13.4273 8.79498 12.7414 8.65821C12.0333 8.517 11.483 7.96672 11.3418 7.2586C11.205 6.57272 11 5.40504 11 4.5C11 3.59496 11.205 2.42728 11.3418 1.7414C11.483 1.03327 12.0333 0.483001 12.7414 0.341791Z" fill="#3F3E4E"/>
<path fill-rule="evenodd" clip-rule="evenodd" d="M15.5 12.5882C14.7673 12.5882 13.7363 12.7629 13.052 12.8994C12.9733 12.9151 12.9151 12.9733 12.8994 13.052C12.7629 13.7363 12.5882 14.7673 12.5882 15.5C12.5882 16.2327 12.7629 17.2637 12.8994 17.948C12.9151 18.0267 12.9733 18.0849 13.052 18.1006C13.7363 18.2371 14.7673 18.4118 15.5 18.4118C16.2327 18.4118 17.2637 18.2371 17.948 18.1006C18.0267 18.0849 18.0849 18.0267 18.1006 17.948C18.2371 17.2637 18.4118 16.2327 18.4118 15.5C18.4118 14.7673 18.2371 13.7363 18.1006 13.052C18.0849 12.9733 18.0267 12.9151 17.948 12.8994C17.2637 12.7629 16.2327 12.5882 15.5 12.5882ZM12.7414 11.3418C13.4273 11.205 14.595 11 15.5 11C16.405 11 17.5727 11.205 18.2586 11.3418C18.9667 11.483 19.517 12.0333 19.6582 12.7414C19.795 13.4273 20 14.595 20 15.5C20 16.405 19.795 17.5727 19.6582 18.2586C19.517 18.9667 18.9667 19.517 18.2586 19.6582C17.5727 19.795 16.405 20 15.5 20C14.595 20 13.4273 19.795 12.7414 19.6582C12.0333 19.517 11.483 18.9667 11.3418 18.2586C11.205 17.5727 11 16.405 11 15.5C11 14.595 11.205 13.4273 11.3418 12.7414C11.483 12.0333 12.0333 11.483 12.7414 11.3418Z" fill="#3F3E4E"/>
</svg>
