<svg width="20" height="20" viewBox="0 0 20 20" fill="none" xmlns="http://www.w3.org/2000/svg">
<path d="M7.07689 0.410254C6.35894 0.205127 5.23074 0 4.41023 0C3.58973 0 2.46153 0.205127 1.74358 0.410254C1.02564 0.512818 0.512818 1.02564 0.410254 1.74358C0.205127 2.46153 0 3.58973 0 4.41023C0 5.23074 0.205127 6.35894 0.307691 7.07689C0.410254 7.79483 1.02564 8.30765 1.64102 8.41021C2.35896 8.51278 3.48716 8.71791 4.30767 8.71791C5.12818 8.71791 6.25638 8.51278 6.97432 8.41021C7.69227 8.30765 8.20509 7.69227 8.30765 7.07689C8.41022 6.35894 8.61534 5.23074 8.61534 4.41023C8.61534 3.58973 8.41022 2.46153 8.30765 1.74358C8.30765 1.02564 7.79483 0.512818 7.07689 0.410254Z" fill="#3F3E4E"/>
<path d="M7.07684 11.6923C6.35889 11.5897 5.23069 11.3846 4.41018 11.3846C3.58968 11.3846 2.46148 11.5897 1.74353 11.6923C1.02559 11.7949 0.512768 12.4102 0.410204 13.0256C0.307641 13.7436 0.102514 14.8718 0.102514 15.6923C0.102514 16.5128 0.307641 17.641 0.410204 18.3589C0.512768 19.0769 1.12815 19.5897 1.74353 19.6923C2.46148 19.7948 3.58968 20 4.41018 20C5.23069 20 6.35889 19.7948 7.07684 19.6923C7.79478 19.5897 8.3076 18.9743 8.41016 18.3589C8.51273 17.641 8.71786 16.5128 8.71786 15.6923C8.71786 14.8718 8.51273 13.7436 8.41016 13.0256C8.3076 12.3077 7.79478 11.7949 7.07684 11.6923Z" fill="#3F3E4E"/>
<path d="M13.0255 8.41041C13.7435 8.51297 14.8717 8.7181 15.6922 8.7181C16.5127 8.7181 17.6409 8.51297 18.3588 8.41041C19.0768 8.30784 19.5896 7.69246 19.6921 7.07708C19.7947 6.35914 19.9998 5.23094 19.9998 4.41043C19.9998 3.58992 19.7947 2.46172 19.6921 1.74377C19.5896 1.02583 18.9742 0.513011 18.3588 0.410447C17.6409 0.307884 16.5127 0.102757 15.6922 0.102757C14.8717 0.102757 13.7435 0.307884 13.0255 0.410447C12.3076 0.513011 11.7947 1.12839 11.6922 1.74377C11.5896 2.46172 11.3845 3.58992 11.3845 4.41043C11.3845 5.23094 11.5896 6.35914 11.6922 7.07708C11.7947 7.79503 12.3076 8.30784 13.0255 8.41041Z" fill="#3F3E4E"/>
<path d="M18.3588 11.6923C17.6409 11.5897 16.5127 11.3846 15.6922 11.3846C14.8717 11.3846 13.7435 11.5897 13.0255 11.6923C12.3076 11.7949 11.7947 12.4102 11.6922 13.0256C11.5896 13.7436 11.3845 14.8718 11.3845 15.6923C11.3845 16.5128 11.5896 17.641 11.6922 18.3589C11.7947 19.0769 12.4101 19.5897 13.0255 19.6923C13.7435 19.7948 14.8717 20 15.6922 20C16.5127 20 17.6409 19.7948 18.3588 19.6923C19.0768 19.5897 19.5896 18.9743 19.6921 18.3589C19.7947 17.641 19.9998 16.5128 19.9998 15.6923C19.9998 14.8718 19.7947 13.7436 19.6921 13.0256C19.5896 12.3077 19.0768 11.7949 18.3588 11.6923Z" fill="#3F3E4E"/>
</svg>
