<?xml version="1.0" encoding="UTF-8"?>
<svg fill="none" viewBox="0 0 853 673" xmlns="http://www.w3.org/2000/svg">
<g clip-path="url(#ad)">
<path d="m107.72 547.61h-85.217c-22.835-23.687-28.957-61.453-15.223-91.434 12.907-28.491 40.871-47.374 57.749-73.876 36.072-56.318 18.698-140.46 67.512-186.02 24.489-22.859 59.735-29.319 92.994-31.969 33.26-2.65 67.678-2.65 98.621-15.57 38.058-16.068 66.684-50.355 105.74-63.275 44.015-14.576 96.47 3.6442 122.28 42.073 16.051 24.183 22.173 54.496 41.202 76.36 30.777 35.447 84.886 38.098 123.11 65.097 26.31 18.552 44.015 48.699 47.49 80.667 4.137 38.595-10.59 82.49 12.576 113.63 11.252 15.239 29.619 23.687 41.698 38.263 12.08 14.411 15.555 27.662 11.749 46.049h-722.28z" fill="url(#ac)" opacity=".37"/>
<path d="m129.4 547.61h-85.217c-22.835-23.687-28.957-61.453-15.223-91.434 12.907-28.491 40.871-47.374 57.749-73.876 36.072-56.318 18.698-140.46 67.512-186.02 24.489-22.859 59.734-29.319 92.994-31.969s67.677-2.65 98.62-15.57c38.059-16.068 66.685-50.355 105.74-63.275 44.015-14.576 96.469 3.6442 122.28 42.073 16.05 24.183 22.173 54.496 41.202 76.36 30.777 35.447 84.886 38.098 123.11 65.097 26.31 18.552 44.015 48.699 47.49 80.667 4.136 38.595-10.59 82.49 12.575 113.63 11.252 15.239 29.62 23.687 41.699 38.263 12.079 14.411 15.554 27.662 11.748 46.049h-722.28z" fill="url(#r)" opacity=".37"/>
<path d="m325.48 255.58-3.475 0.166h-316.88l-0.82735 0.166c-3.1439-21.037 13.238-42.405 34.087-48.036 18.036-4.97 39.216-0.497 54.44-11.595 13.568-9.939 16.878-28.491 25.813-42.736 5.461-8.944 13.403-16.398 22.67-21.202 11.582-6.294 25.978-8.447 37.727-2.816 21.014 9.939 24.986 37.767 39.051 56.318 3.144 4.141 7.115 7.951 12.079 9.442 4.633 1.325 9.597 0.331 14.231-0.497 15.554-2.816 34.086-2.485 43.684 9.938 4.467 5.798 6.122 13.417 8.604 20.374s6.619 14.08 13.569 16.564c3.309 1.16 7.115 1.16 10.094 3.148 3.805 2.153 4.964 6.294 5.129 10.766z" fill="url(#h)"/>
<path d="m835.13 295.67h-369.5c-2.979-3.81-3.31-9.939-1.159-14.411 2.648-6.129 8.439-10.104 14.065-13.583 5.626-3.478 11.749-6.625 16.051-11.595 8.108-9.772 7.612-23.686 9.432-36.275 2.151-14.908 8.439-29.65 19.691-39.754 4.467-3.975 9.597-7.123 15.058-9.607 15.554-7.288 34.583-8.945 49.144 0 13.9 8.613 20.684 25.177 32.763 36.275 2.813 2.651 6.123 4.97 9.929 5.798 10.755 2.484 20.022-7.288 28.13-14.908 11.583-10.767 26.971-18.717 42.526-16.73 18.367 2.319 32.597 18.221 39.547 35.282 2.978 7.122 5.13 15.073 10.921 20.208 14.892 13.086 39.878-1.656 57.253 7.951 6.453 3.644 10.921 10.104 14.396 16.564 5.46 10.767 9.597 22.527 11.748 34.785z" fill="url(#g)"/>
<path d="m318.2 500.9h-26.64v46.711h-64.368v-46.711h-96.139v-47.871l100.44-146.92h60.231v146.1h26.641v48.699h-0.166zm-91.008-48.864v-28.159c0-5.301 0.165-12.423 0.496-21.368s0.662-13.748 0.827-14.08h-1.82c-3.806 8.448-7.942 16.399-12.741 23.853l-26.806 39.754h40.044z" fill="url(#f)"/>
<path d="m300.66 500.9h-26.641v46.711h-64.368v-46.711h-96.304v-47.871l100.44-146.92h60.231v146.1h26.641v48.699zm-91.009-48.864v-28.159c0-5.301 0.165-12.423 0.496-21.368s0.662-13.748 0.828-14.08h-1.82c-3.806 8.448-7.943 16.399-12.742 23.853l-26.806 39.754h40.044z" fill="url(#e)"/>
<path d="m738.33 502.39-9.266-47.871-17.209 3.313-8.77 1.656-27.634-143.44-59.238 11.429-70.656 163.32 9.101 47.042 94.484-18.221 5.295 27.828h65.526l-7.777-40.085 8.77-1.657 17.374-3.312zm-115.83-27.166-21.842 4.141 15.554-36.772 3.144-7.454c3.309-8.116 5.957-16.73 7.943-25.84l1.82-0.331c-0.166 0.497 0.496 5.135 1.82 14.079 1.324 8.945 2.482 15.902 3.475 21.037l5.295 27.662-17.209 3.478z" fill="url(#d)"/>
<path d="m721.12 505.87-9.266-47.871-26.144 4.97-27.8-143.45-41.864 8.117-17.208 3.313-70.656 163.32 9.101 47.042 17.208-3.313 77.275-14.908 4.799 24.515h65.526l-7.115-36.772 17.209-3.313 8.935-1.656zm-104.91-63.11c0.331 1.823 0.662 3.479 0.827 4.97l5.295 27.662-39.051 7.619 18.698-44.226c3.31-8.116 5.957-16.73 7.943-25.84l1.82-0.331c-0.165 0.497 0.497 5.135 1.82 14.079 0.993 6.129 1.986 11.595 2.648 16.067z" fill="url(#c)"/>
<path d="m327.14 425.04h-39.382l-24.986-183.03s-36.073-39.423-77.44-46.876l39.382-4.307 88.857 2.484 13.569 231.73z" fill="url(#b)"/>
<path d="m172.09 324.49s-22.339 32.797-12.411 60.79l41.533-60.79-5.46-7.288-23.662 7.288z" fill="#111023"/>
<path d="m287.92 425.04-1.324 8.447s-11.914 1.657-12.575 18.552h30.777l16.713-16.398 1.489-10.601h-35.08z" fill="#111023"/>
<path d="m240.26 241.84-49.31-1.822 7.942 75.533-33.425 11.926-19.195-93.256c-5.626-17.392 6.123-35.613 24.325-37.601l14.727-1.656c41.367 7.454 77.44 46.876 77.44 46.876h-22.504z" fill="url(#a)"/>
<path d="m149.58 31.14v2.1533l-2.647 0.3313c-0.662-1.4908-1.489-2.6503-2.151-3.3128-3.641-3.1472-6.123-5.4662-8.605-3.9754-1.985 1.1595-1.82 6.46-1.654 8.9446l-7.281 0.9939-64.368 8.1164v-0.1657c4.1368-0.9938 7.4462-8.4477 7.4462-17.558 0-8.9447-3.144-16.398-7.2807-17.558l86.541 9.7728v12.258z" fill="url(#ab)"/>
<path d="m67.677 13.748c-0.1655 0.3313-0.331 0.497-0.4964 0.8282-0.9929 1.8221-1.3238 3.8098-2.4821 5.4662-0.8273 1.1595-1.9856 2.1533-3.4749 2.6503-1.4892 0.4969-2.9784 0.6625-4.6331 0.8282-0.9929 0.1656-2.1511 0.3312-2.9785 0.8282 0.4964-8.6134 3.8058-15.239 8.108-15.57l1.3238 0.16564c1.8202 0.66256 3.4749 2.319 4.6332 4.8036z" fill="url(#aa)"/>
<path d="m70.325 25.178c-1.1583 1.4907-1.6547 3.3128-2.6475 4.8036-1.1583 1.6564-2.9785 2.9815-4.9642 3.4784-1.8201 0.4969-3.8058 0.1657-5.626 0.9939-0.8273 0.3312-1.4892 1.1595-1.9856 1.9877-0.8274-2.8159-1.3238-6.1288-1.3238-9.7729v-2.1533c0.9929-0.4969 1.9857-0.6626 2.9785-0.8282 1.4892-0.1657 3.1439-0.3313 4.6332-0.8282 1.3237-0.4969 2.6475-1.4908 3.4749-2.6503 1.1582-1.6564 1.6547-3.6441 2.482-5.4661 0.1655-0.3313 0.3309-0.497 0.4964-0.8282 1.3238 2.8159 2.3166 6.7912 2.4821 11.264z" fill="url(#z)"/>
<path d="m70.325 26.668c0 9.1102-3.3094 16.564-7.4462 17.558-0.3309 0-0.6619 0.1657-0.9928 0.1657-2.9785 0-5.4605-3.1472-6.9498-7.9508 0.4964-0.8282 1.1583-1.4908 2.1511-1.9877 1.6548-0.8282 3.6404-0.6626 5.626-0.9938 1.9857-0.497 3.8059-1.6565 4.9642-3.4785 0.9928-1.4908 1.4892-3.3128 2.482-4.638v-0.1656c0.1655 0.4969 0.1655 0.9938 0.1655 1.4908z" fill="url(#y)"/>
<path d="m200.55 22.362h25.979c-2.647 1.1595-4.964 2.3189-6.122 3.3128-0.828 0.8282-0.497 2.1533 0.496 3.9754h-20.518v-7.2882h0.165z" fill="#111023"/>
<path d="m258.3 26.668v2.8159h-14.065c-1.323-3.1472-2.316-5.7975-2.647-7.2883h16.878v4.4724h-0.166z" fill="#111023"/>
<path d="m200.55 29.484v1.6564h-50.965v-10.601h50.965v8.9446z" fill="url(#x)"/>
<path d="m151.57 49.196-11.252 8.6134s-13.569-14.245-13.072-21.533l7.28-0.9938c-0.165-2.4846-0.331-7.7852 1.655-8.9446 2.482-1.4908 4.964 0.9938 8.605 3.9753 0.661 0.6626 1.489 1.8221 2.151 3.3129 2.647 5.6318 4.633 15.57 4.633 15.57z" fill="url(#w)"/>
<path d="m76.116 9.1104c-0.8274-1.6564-3.144-0.16564-2.4821 1.3252 4.6332 10.104 3.9713 21.202-1.4892 30.809-0.8274 1.4908 1.4892 2.9816 2.482 1.3252 5.957-10.27 6.4534-22.362 1.4893-33.46z" fill="#5B2B89"/>
<path d="m276 60.459v8.6133l-10.425-9.7728 10.425 1.1595z" fill="url(#v)"/>
<path d="m276 69.073 10.425 9.9384 9.928 9.4416s22.835-15.902 31.605-16.067c0.662 0 1.158 0 1.82 0.1656 7.777 1.1595 12.576 10.104 11.252 18.883-1.489 9.2757-1.158 19.712-10.259 21.368-8.935 1.656-48.483 11.264-48.483 11.264l-43.353-58.803 5.13-3.6441 11.417-7.9508 2.317-1.6564 4.964 4.638 2.813 2.6502 10.424 9.7729z" fill="url(#u)"/>
<path d="m303.97 62.281 25.813 10.104c-0.661-0.1656-1.158-0.1656-1.82-0.1656-8.77 0.1656-31.605 16.067-31.605 16.067l-9.928-9.4416 17.54-16.564z" fill="url(#t)"/>
<path d="m330.78 112.47-15.058 40.913-1.985 39.92s-1.821 0.331-4.799 0.828c-14.396 1.988-57.253 6.957-84.059-3.147l10.425-49.527-4.799-39.091-58.411 6.46-36.569-47.374 4.799-3.6441 11.252-8.6133 34.583 33.791 54.109-23.687c1.985 1.4908 3.64 2.1533 3.64 2.1533l-5.129 3.6441 43.353 58.803c0.165 0 39.713-9.607 48.648-11.429z" fill="url(#s)"/>
<path d="m255.32 53.502-11.418 7.9507s-1.654-0.6625-3.64-2.1533c-2.648-1.8221-5.626-4.8036-5.957-9.1103-0.496-5.7974-10.094-15.073-13.403-20.705-0.993-1.8221-1.324-3.1472-0.497-3.9754 0.993-0.9938 3.31-2.1533 6.123-3.3128 5.957-2.319 14.065-3.9754 14.727-0.3313v0.3313c0.331 1.4907 1.323 4.141 2.647 7.2882 4.302 9.6072 11.418 24.018 11.418 24.018z" fill="url(#q)"/>
<path d="m315.72 153.55c-66.188-14.079-76.778-88.452-76.778-88.452l43.353 58.803 48.483-11.264-15.058 40.913z" fill="url(#p)" opacity=".38"/>
<path d="m303.47 26.171c1.323-0.3313 2.813-0.1656 3.309 2.1534 1.324 5.1348-4.468 11.264-4.468 11.264l1.49 22.693-17.54 16.73 6.784-19.711-17.209 1.1595-10.425-1.1595-2.813-2.6502s-1.985-18.883-1.985-29.981c0-2.4846 0.165-4.6379 0.331-6.1287l0.165-0.4969c12.079 1.9877 28.957-2.6503 28.957-2.6503s2.317 23.024 5.626 23.355c3.144 0.3313 4.303-12.423 4.303-12.423s1.654-1.6565 3.475-2.1534z" fill="url(#o)"/>
<path d="m303.64 9.4418-0.165 16.73c-1.821 0.4969-3.641 2.1534-3.641 2.1534s-0.992 12.92-4.302 12.423c-3.144-0.3312-5.626-23.355-5.626-23.355s-16.878 4.8036-28.957 2.6503c-3.806-0.6626-7.115-1.9877-9.267-4.3067-9.266-9.7728-6.122-15.239 7.281-12.257 13.403 2.9815 40.871-12.92 44.677 5.9631z" fill="#111023"/>
<path d="m293.21 59.3-6.784 19.711-10.425-9.9385v-8.6134l17.209-1.1595z" fill="#F79244"/>
<path d="m259.95 23.024c2.647-1.3251 5.46-1.4908 8.273-0.4969 1.655 0.6625 0.497 3.1472-1.323 2.4846-1.821-0.6626-3.806-0.4969-5.461 0.3313-1.489 0.8282-3.144-1.4908-1.489-2.319z" fill="#111023"/>
<path d="m285.91 32.789c1.095-0.0573 1.913-1.4368 1.827-3.0811-0.086-1.6444-1.043-2.9309-2.138-2.8736s-1.913 1.4368-1.827 3.0811c0.086 1.6444 1.043 2.9309 2.138 2.8736z" fill="#111023"/>
<path d="m289.24 22.362c-2.813-0.9938-5.626-0.9938-8.273 0.3313-1.655 0.8282-0.166 3.1472 1.489 2.319s3.64-0.8282 5.461-0.1657c1.82 0.6626 2.978-1.822 1.323-2.4846z" fill="#111023"/>
<path d="m269.55 39.092c0.828-4.3067 3.144-8.6134 4.634-12.754 0.331-0.8282 1.489-0.1657 1.323 0.6626-0.992 2.6502-1.82 5.1348-2.813 7.7851-0.331 0.8282-1.158 2.319-1.158 3.3128-0.331 3.3128 1.158 2.9815 2.813 3.8098 0.827 0.3312 0.166 1.6564-0.662 1.3251-2.151-0.9939-4.633-1.1595-4.137-4.141z" fill="#F79244"/>
<path d="m268.06 30.147c-1.324-0.9939-2.813-1.8221-4.468-1.9877-0.992-0.1657-1.489 1.4908-0.496 1.6564 0.827 0.1656 1.655 0.3313 2.482 0.6626-0.827 0.3312-1.82 0.4969-2.647 0.8282-0.993 0.3312-0.662 1.9877 0.496 1.6564 1.489-0.4969 2.978-0.9939 4.302-1.4908 0.497-0.1656 0.828-0.9938 0.331-1.3251z" fill="#111023"/>
<path d="m274.85 56.981c2.011 0 3.641-2.3731 3.641-5.3005s-1.63-5.3006-3.641-5.3006c-2.01 0-3.64 2.3732-3.64 5.3006s1.63 5.3005 3.64 5.3005z" fill="#fff"/>
<path d="m782.01 547.61h-663.87s-35.742 23.687 17.374 27.828c53.116 4.141 136.02 7.785 133.87 25.84s-49.972 14.577-49.972 46.38c0 31.968 221.23 24.515 221.23 24.515s124.93 1.656 142.8-19.546c17.87-21.202-50.303-40.417-38.059-48.864 12.411-8.282 102.26 16.729 115.66-3.644 13.403-20.209-2.647-33.129 22.008-35.779 24.655-2.319 94.814 7.288 98.951-16.73z" fill="url(#n)" opacity=".5"/>
<path d="m731.88 603.93c27.69 0 50.137-6.377 50.137-14.245 0-7.867-22.447-14.245-50.137-14.245s-50.138 6.378-50.138 14.245c0 7.868 22.448 14.245 50.138 14.245z" fill="url(#m)"/>
<path d="m197.41 612.87c24.217 0 43.849-4.894 43.849-10.932s-19.632-10.932-43.849-10.932c-24.218 0-43.85 4.894-43.85 10.932s19.632 10.932 43.85 10.932z" fill="url(#l)"/>
<path d="m448.92 653.95c27.508 0 49.807-4.302 49.807-9.607 0-5.306-22.299-9.608-49.807-9.608-27.507 0-49.806 4.302-49.806 9.608 0 5.305 22.299 9.607 49.806 9.607z" fill="#E9FDFF"/>
<path d="m514.78 419.74c-10.26-23.356-29.454-37.932-57.584-43.73-3.144-0.662-6.123-1.159-8.936-1.491-24.82-3.147-45.338 2.816-61.389 17.724-18.036 16.73-31.274 46.214-39.878 88.287-5.295 25.84-6.785 48.036-4.468 66.919h61.555c-0.828-10.932 1.324-28.987 6.453-53.999 5.461-27 10.921-45.22 16.382-54.662 3.144-5.466 6.784-9.11 10.755-10.932 2.813-1.325 5.957-1.657 9.267-0.828 7.942 1.656 12.41 8.116 13.568 19.214 1.159 11.264-0.827 29.981-6.288 56.152-3.971 19.712-8.108 34.619-12.079 45.055h67.346c3.144-9.607 5.792-20.374 8.274-31.969 1.655-7.785 2.813-15.073 3.64-22.196 3.972-29.981 1.655-54.496-6.618-73.544z" fill="url(#k)"/>
<path d="m497.57 416.26c-9.101-21.037-25.648-34.951-49.31-41.742-2.648-0.828-5.461-1.491-8.274-1.988-28.957-5.963-52.289-0.496-70.325 16.233-18.036 16.73-31.274 46.214-39.878 88.287-1.82 8.613-3.144 16.73-3.972 24.515-1.985 17.061-1.985 32.466 0 45.882h61.39c0-0.331-0.165-0.828-0.165-1.159-1.324-10.767 0.827-29.484 6.287-56.318 5.461-26.999 10.921-45.22 16.382-54.662 5.461-9.441 12.079-13.416 19.856-11.76 3.31 0.663 5.957 2.153 7.943 4.472 3.144 3.313 4.964 8.282 5.626 14.742 1.158 11.264-0.827 29.981-6.288 56.153-4.468 22.03-9.101 38.097-13.568 48.532h67.677c3.64-10.601 6.784-22.361 9.432-35.447 8.439-40.416 7.446-72.385-2.813-95.74z" fill="url(#j)"/>
<path d="m544.56 258.4-0.496 0.331-43.188 33.625-26.971 21.036-22.504 62.281-6.288-2.153 23.166-64.103 72.145-56.152 4.136 5.135z" fill="#2A2A2A"/>
<path d="m565.25 398.2c-4.964 5.797-11.583 9.938-18.201 13.748l-0.497-0.828c2.648-3.313 5.295-7.289 4.633-11.43-0.496-2.815-2.647-5.134-4.798-6.956-3.641-3.148-7.612-5.964-11.087-9.276-3.475-3.313-6.453-7.62-6.95-12.423-0.661-6.295 2.648-12.258 3.972-18.387 0.496-2.484 0.662-5.135-0.331-7.454-2.151-5.3-8.936-6.46-14.231-8.613-4.798-1.988-9.266-5.466-10.59-10.435-1.985-7.123 3.144-14.577 2.482-21.865-0.496-5.135-4.136-9.773-8.935-11.76l43.188-33.626c7.28 6.295 13.568 14.743 13.734 24.35 0 6.128-2.482 11.926-4.137 17.723-0.662 2.319-1.324 4.804-0.827 7.123 0.661 3.644 3.64 6.46 6.287 9.11 5.626 5.301 11.252 11.926 11.087 19.546-0.166 8.613-7.446 16.398-6.288 25.012 0.827 5.466 4.964 9.938 6.784 15.073 2.482 7.288-0.331 15.405-5.295 21.368z" fill="url(#i)"/>
</g>
<defs>
<linearGradient id="ac" x1="411.71" x2="438.54" y1="570.81" y2="166.13" gradientUnits="userSpaceOnUse">
<stop stop-color="#31D1D6" offset="0"/>
<stop stop-color="#32CED8" offset=".3733"/>
<stop stop-color="#36C6DF" offset=".6175"/>
<stop stop-color="#3CB7EB" offset=".824"/>
<stop stop-color="#45A3FA" offset="1"/>
</linearGradient>
<linearGradient id="r" x1="433.48" x2="460.31" y1="570.81" y2="166.13" gradientUnits="userSpaceOnUse">
<stop stop-color="#31D1D6" offset="0"/>
<stop stop-color="#32CED8" offset=".3733"/>
<stop stop-color="#36C6DF" offset=".6175"/>
<stop stop-color="#3CB7EB" offset=".824"/>
<stop stop-color="#45A3FA" offset="1"/>
</linearGradient>
<linearGradient id="h" x1="164.75" x2="164.75" y1="256.93" y2="186.35" gradientUnits="userSpaceOnUse">
<stop stop-color="#F9E6D9" offset="0"/>
<stop stop-color="#FCF1EA" offset=".121"/>
<stop stop-color="#FEF9F6" offset=".2698"/>
<stop stop-color="#FFFEFD" offset=".4751"/>
<stop stop-color="#fff" offset="1"/>
</linearGradient>
<linearGradient id="g" x1="648.1" x2="652.57" y1="306.47" y2="237.68" gradientUnits="userSpaceOnUse">
<stop stop-color="#F9E6D9" offset="0"/>
<stop stop-color="#FCF1EA" offset=".121"/>
<stop stop-color="#FEF9F6" offset=".2698"/>
<stop stop-color="#FFFEFD" offset=".4751"/>
<stop stop-color="#fff" offset="1"/>
</linearGradient>
<linearGradient id="f" x1="130.98" x2="318.18" y1="426.79" y2="426.79" gradientUnits="userSpaceOnUse">
<stop stop-color="#31D1D6" offset="0"/>
<stop stop-color="#32CED8" offset=".3733"/>
<stop stop-color="#36C6DF" offset=".6175"/>
<stop stop-color="#3CB7EB" offset=".824"/>
<stop stop-color="#45A3FA" offset="1"/>
</linearGradient>
<linearGradient id="e" x1="208.7" x2="206.91" y1="563.5" y2="472.38" gradientUnits="userSpaceOnUse">
<stop stop-color="#F9E6D9" offset="0"/>
<stop stop-color="#FCF1EA" offset=".121"/>
<stop stop-color="#FEF9F6" offset=".2698"/>
<stop stop-color="#FFFEFD" offset=".4751"/>
<stop stop-color="#fff" offset="1"/>
</linearGradient>
<linearGradient id="d" x1="539.91" x2="723.72" y1="462.42" y2="426.9" gradientUnits="userSpaceOnUse">
<stop stop-color="#31D1D6" offset="0"/>
<stop stop-color="#32CED8" offset=".3733"/>
<stop stop-color="#36C6DF" offset=".6175"/>
<stop stop-color="#3CB7EB" offset=".824"/>
<stop stop-color="#45A3FA" offset="1"/>
</linearGradient>
<linearGradient id="c" x1="625.69" x2="623.9" y1="555.32" y2="464.2" gradientUnits="userSpaceOnUse">
<stop stop-color="#F9E6D9" offset="0"/>
<stop stop-color="#FCF1EA" offset=".121"/>
<stop stop-color="#FEF9F6" offset=".2698"/>
<stop stop-color="#FFFEFD" offset=".4751"/>
<stop stop-color="#fff" offset="1"/>
</linearGradient>
<linearGradient id="b" x1="250.11" x2="303.07" y1="311.72" y2="298.05" gradientUnits="userSpaceOnUse">
<stop stop-color="#31D1D6" offset="0"/>
<stop stop-color="#32CED8" offset=".3733"/>
<stop stop-color="#36C6DF" offset=".6175"/>
<stop stop-color="#3CB7EB" offset=".824"/>
<stop stop-color="#45A3FA" offset="1"/>
</linearGradient>
<linearGradient id="a" x1="145.01" x2="262.89" y1="261.38" y2="261.38" gradientUnits="userSpaceOnUse">
<stop stop-color="#31D1D6" offset="0"/>
<stop stop-color="#32CED8" offset=".3733"/>
<stop stop-color="#36C6DF" offset=".6175"/>
<stop stop-color="#3CB7EB" offset=".824"/>
<stop stop-color="#45A3FA" offset="1"/>
</linearGradient>
<linearGradient id="ab" x1="62.936" x2="149.6" y1="26.7" y2="26.7" gradientUnits="userSpaceOnUse">
<stop stop-color="#51ADC6" offset="0"/>
<stop stop-color="#55AFC4" offset=".0060817"/>
<stop stop-color="#74BFB5" offset=".066315"/>
<stop stop-color="#8FCDA7" offset=".1333"/>
<stop stop-color="#A5D89D" offset=".2102"/>
<stop stop-color="#B6E094" offset=".3001"/>
<stop stop-color="#C1E78E" offset=".4112"/>
<stop stop-color="#C8EA8B" offset=".5672"/>
<stop stop-color="#CAEB8A" offset="1"/>
</linearGradient>
<linearGradient id="aa" x1="67.755" x2="53.731" y1="16.672" y2="16.672" gradientUnits="userSpaceOnUse">
<stop stop-color="#8AEBD6" offset="0"/>
<stop stop-color="#89E9D7" offset=".4615"/>
<stop stop-color="#84E2DA" offset=".6276"/>
<stop stop-color="#7DD7DE" offset=".7461"/>
<stop stop-color="#72C6E5" offset=".8419"/>
<stop stop-color="#64B0EE" offset=".9229"/>
<stop stop-color="#5395F9" offset=".9944"/>
<stop stop-color="#5193FA" offset="1"/>
</linearGradient>
<linearGradient id="z" x1="70.321" x2="53.656" y1="25.072" y2="25.072" gradientUnits="userSpaceOnUse">
<stop stop-color="#31D1D6" offset="0"/>
<stop stop-color="#32CED8" offset=".3733"/>
<stop stop-color="#36C6DF" offset=".6175"/>
<stop stop-color="#3CB7EB" offset=".824"/>
<stop stop-color="#45A3FA" offset="1"/>
</linearGradient>
<linearGradient id="y" x1="70.351" x2="55.029" y1="34.758" y2="34.758" gradientUnits="userSpaceOnUse">
<stop stop-color="#8AEBD6" offset="0"/>
<stop stop-color="#89E9D7" offset=".4615"/>
<stop stop-color="#84E2DA" offset=".6276"/>
<stop stop-color="#7DD7DE" offset=".7461"/>
<stop stop-color="#72C6E5" offset=".8419"/>
<stop stop-color="#64B0EE" offset=".9229"/>
<stop stop-color="#5395F9" offset=".9944"/>
<stop stop-color="#5193FA" offset="1"/>
</linearGradient>
<linearGradient id="x" x1="149.6" x2="200.57" y1="25.856" y2="25.856" gradientUnits="userSpaceOnUse">
<stop stop-color="#31D1D6" offset="0"/>
<stop stop-color="#32CED8" offset=".3733"/>
<stop stop-color="#36C6DF" offset=".6175"/>
<stop stop-color="#3CB7EB" offset=".824"/>
<stop stop-color="#45A3FA" offset="1"/>
</linearGradient>
<linearGradient id="w" x1="127.31" x2="151.62" y1="41.816" y2="41.816" gradientUnits="userSpaceOnUse">
<stop stop-color="#F7BE86" offset="0"/>
<stop stop-color="#F7BC83" offset=".3293"/>
<stop stop-color="#F7B67B" offset=".5448"/>
<stop stop-color="#F7AC6C" offset=".7276"/>
<stop stop-color="#F79E57" offset=".8912"/>
<stop stop-color="#F79244" offset="1"/>
</linearGradient>
<linearGradient id="v" x1="270.87" x2="270.06" y1="60.412" y2="89.677" gradientUnits="userSpaceOnUse">
<stop stop-color="#7B6ED6" offset="0"/>
<stop stop-color="#796DD5" offset=".4804"/>
<stop stop-color="#7268D0" offset=".6535"/>
<stop stop-color="#6760C9" offset=".7768"/>
<stop stop-color="#5655BE" offset=".8765"/>
<stop stop-color="#4047B0" offset=".961"/>
<stop stop-color="#333EA8" offset="1"/>
</linearGradient>
<linearGradient id="u" x1="290.57" x2="288.42" y1="60.797" y2="128.72" gradientUnits="userSpaceOnUse">
<stop stop-color="#7B6ED6" offset="0"/>
<stop stop-color="#796DD5" offset=".4804"/>
<stop stop-color="#7268D0" offset=".6535"/>
<stop stop-color="#6760C9" offset=".7768"/>
<stop stop-color="#5655BE" offset=".8765"/>
<stop stop-color="#4047B0" offset=".961"/>
<stop stop-color="#333EA8" offset="1"/>
</linearGradient>
<linearGradient id="t" x1="308.46" x2="307.65" y1="61.447" y2="90.712" gradientUnits="userSpaceOnUse">
<stop stop-color="#7B6ED6" offset="0"/>
<stop stop-color="#796DD5" offset=".4804"/>
<stop stop-color="#7268D0" offset=".6535"/>
<stop stop-color="#6760C9" offset=".7768"/>
<stop stop-color="#5655BE" offset=".8765"/>
<stop stop-color="#4047B0" offset=".961"/>
<stop stop-color="#333EA8" offset="1"/>
</linearGradient>
<linearGradient id="s" x1="135.52" x2="330.78" y1="123.14" y2="123.14" gradientUnits="userSpaceOnUse">
<stop stop-color="#7B6ED6" offset="0"/>
<stop stop-color="#796DD5" offset=".4804"/>
<stop stop-color="#7268D0" offset=".6535"/>
<stop stop-color="#6760C9" offset=".7768"/>
<stop stop-color="#5655BE" offset=".8765"/>
<stop stop-color="#4047B0" offset=".961"/>
<stop stop-color="#333EA8" offset="1"/>
</linearGradient>
<linearGradient id="q" x1="220.06" x2="255.39" y1="40.619" y2="40.619" gradientUnits="userSpaceOnUse">
<stop stop-color="#F7BE86" offset="0"/>
<stop stop-color="#F7BC83" offset=".3293"/>
<stop stop-color="#F7B67B" offset=".5448"/>
<stop stop-color="#F7AC6C" offset=".7276"/>
<stop stop-color="#F79E57" offset=".8912"/>
<stop stop-color="#F79244" offset="1"/>
</linearGradient>
<linearGradient id="p" x1="238.92" x2="330.78" y1="109.24" y2="109.24" gradientUnits="userSpaceOnUse">
<stop stop-color="#3C0887" offset="0"/>
<stop stop-color="#3F0987" offset=".3227"/>
<stop stop-color="#470E87" offset=".5338"/>
<stop stop-color="#561588" offset=".7129"/>
<stop stop-color="#6B1F89" offset=".8732"/>
<stop stop-color="#822A8A" offset="1"/>
</linearGradient>
<linearGradient id="o" x1="260.68" x2="307.1" y1="48.161" y2="48.161" gradientUnits="userSpaceOnUse">
<stop stop-color="#F7BE86" offset="0"/>
<stop stop-color="#F7BC83" offset=".3293"/>
<stop stop-color="#F7B67B" offset=".5448"/>
<stop stop-color="#F7AC6C" offset=".7276"/>
<stop stop-color="#F79E57" offset=".8912"/>
<stop stop-color="#F79244" offset="1"/>
</linearGradient>
<linearGradient id="n" x1="442.46" x2="444.25" y1="677.53" y2="554.25" gradientUnits="userSpaceOnUse">
<stop stop-color="#8AEBD6" offset="0"/>
<stop stop-color="#89E9D7" offset=".4615"/>
<stop stop-color="#84E2DA" offset=".6276"/>
<stop stop-color="#7DD7DE" offset=".7461"/>
<stop stop-color="#72C6E5" offset=".8419"/>
<stop stop-color="#64B0EE" offset=".9229"/>
<stop stop-color="#5395F9" offset=".9944"/>
<stop stop-color="#5193FA" offset="1"/>
</linearGradient>
<linearGradient id="m" x1="731.9" x2="731.9" y1="669.62" y2="561.07" gradientUnits="userSpaceOnUse">
<stop stop-color="#8AEBD6" offset="0"/>
<stop stop-color="#89E9D7" offset=".4615"/>
<stop stop-color="#84E2DA" offset=".6276"/>
<stop stop-color="#7DD7DE" offset=".7461"/>
<stop stop-color="#72C6E5" offset=".8419"/>
<stop stop-color="#64B0EE" offset=".9229"/>
<stop stop-color="#5395F9" offset=".9944"/>
<stop stop-color="#5193FA" offset="1"/>
</linearGradient>
<linearGradient id="l" x1="197.41" x2="197.41" y1="669.62" y2="561.07" gradientUnits="userSpaceOnUse">
<stop stop-color="#8AEBD6" offset="0"/>
<stop stop-color="#89E9D7" offset=".4615"/>
<stop stop-color="#84E2DA" offset=".6276"/>
<stop stop-color="#7DD7DE" offset=".7461"/>
<stop stop-color="#72C6E5" offset=".8419"/>
<stop stop-color="#64B0EE" offset=".9229"/>
<stop stop-color="#5395F9" offset=".9944"/>
<stop stop-color="#5193FA" offset="1"/>
</linearGradient>
<linearGradient id="k" x1="352.78" x2="523.58" y1="452.15" y2="487.01" gradientUnits="userSpaceOnUse">
<stop stop-color="#31D1D6" offset="0"/>
<stop stop-color="#32CED8" offset=".3733"/>
<stop stop-color="#36C6DF" offset=".6175"/>
<stop stop-color="#3CB7EB" offset=".824"/>
<stop stop-color="#45A3FA" offset="1"/>
</linearGradient>
<linearGradient id="j" x1="416.44" x2="414.65" y1="559.43" y2="468.3" gradientUnits="userSpaceOnUse">
<stop stop-color="#F9E6D9" offset="0"/>
<stop stop-color="#FCF1EA" offset=".121"/>
<stop stop-color="#FEF9F6" offset=".2698"/>
<stop stop-color="#FFFEFD" offset=".4751"/>
<stop stop-color="#fff" offset="1"/>
</linearGradient>
<linearGradient id="i" x1="500.89" x2="571.55" y1="335.31" y2="335.31" gradientUnits="userSpaceOnUse">
<stop stop-color="#7B6ED6" offset="0"/>
<stop stop-color="#796DD5" offset=".4804"/>
<stop stop-color="#7268D0" offset=".6535"/>
<stop stop-color="#6760C9" offset=".7768"/>
<stop stop-color="#5655BE" offset=".8765"/>
<stop stop-color="#4047B0" offset=".961"/>
<stop stop-color="#333EA8" offset="1"/>
</linearGradient>
<clipPath id="ad">
<rect width="853" height="673" fill="#fff"/>
</clipPath>
</defs>
</svg>
