<svg width="15" height="20" viewBox="0 0 15 20" fill="none" xmlns="http://www.w3.org/2000/svg">
<path d="M14.7276 13.7263L13.7984 12.5684C13.1169 11.7053 12.7246 10.6316 12.7246 9.51579V7.36842C12.7246 4.82105 10.9694 2.67368 8.61534 2.14737V1.13684C8.61534 0.505263 8.11975 0 7.50026 0C6.88077 0 6.38519 0.505263 6.38519 1.13684V2.14737C4.03114 2.67368 2.27593 4.8 2.27593 7.36842V9.51579C2.27593 10.6316 1.90424 11.7053 1.20215 12.5684L0.272924 13.7263C-0.367211 14.5263 0.190326 15.7474 1.20215 15.7474H13.7777C14.8102 15.7474 15.3677 14.5263 14.7276 13.7263Z" fill="#3F3E4E"/>
<path d="M7.50025 20C8.98702 20 10.1847 18.7789 10.1847 17.2632H4.81581C4.81581 18.7789 6.01349 20 7.50025 20Z" fill="#3F3E4E"/>
</svg>
