<svg width="24" height="24" viewBox="0 0 24 24" fill="none" xmlns="http://www.w3.org/2000/svg">
<path d="M22.9091 13.0909C22.5818 13.0909 22.3637 13.3091 22.3637 13.6364V20.7273C22.3637 21.0546 22.1455 21.2727 21.8182 21.2727H2.18184C1.85456 21.2727 1.63641 21.0545 1.63641 20.7273V13.6364C1.63641 13.3091 1.4182 13.0909 1.09097 13.0909C0.763735 13.0909 0.545532 13.3091 0.545532 13.6364V20.7273C0.545532 21.6546 1.25461 22.3637 2.18189 22.3637H21.8182C22.7455 22.3637 23.4546 21.6546 23.4546 20.7273V13.6364C23.4546 13.3091 23.2364 13.0909 22.9091 13.0909Z" fill="#56657F"/>
<path d="M22.3636 5.45459H1.63636C0.709078 5.45459 0 6.16367 0 7.09095V10.5819C0 11.3455 0.545437 12 1.25456 12.1637L9.8182 14.0727V15.8182C9.8182 16.1454 10.0364 16.3636 10.3636 16.3636H13.6364C13.9636 16.3636 14.1818 16.1454 14.1818 15.8182V14.0727L22.7454 12.1637C23.4546 12 24 11.3455 24 10.5818V7.0909C24 6.16367 23.2909 5.45459 22.3636 5.45459ZM13.0909 15.2727H10.9091V13.0909H13.0909V15.2727ZM22.9091 10.5818C22.9091 10.8545 22.7454 11.0727 22.4727 11.1273L14.1818 12.9818V12.5455C14.1818 12.2182 13.9636 12 13.6364 12H10.3636C10.0364 12 9.8182 12.2182 9.8182 12.5455V12.9818L1.52728 11.1273C1.25456 11.0727 1.09092 10.8546 1.09092 10.5819V7.09095C1.09092 6.76367 1.30913 6.54551 1.63636 6.54551H22.3636C22.6909 6.54551 22.9091 6.76371 22.9091 7.09095V10.5818Z" fill="#56657F"/>
<path d="M14.7273 1.63635H9.27271C8.34543 1.63635 7.63635 2.34543 7.63635 3.27271V3.81815C7.63635 4.14543 7.85456 4.36358 8.18179 4.36358C8.50902 4.36358 8.72723 4.14538 8.72723 3.81815V3.27271C8.72723 2.94543 8.94543 2.72727 9.27267 2.72727H14.7272C15.0545 2.72727 15.2727 2.94548 15.2727 3.27271V3.81815C15.2727 4.14543 15.4909 4.36358 15.8181 4.36358C16.1454 4.36358 16.3635 4.14538 16.3635 3.81815V3.27271C16.3636 2.34543 15.6546 1.63635 14.7273 1.63635Z" fill="#56657F"/>
</svg>
