<svg width="24" height="24" viewBox="0 0 24 24" fill="none" xmlns="http://www.w3.org/2000/svg">
<path d="M4 12.5C3.72386 12.5 3.5 12.2761 3.5 12V4C3.5 3.72386 3.72386 3.5 4 3.5H10C10.2761 3.5 10.5 3.72386 10.5 4V12C10.5 12.2761 10.2761 12.5 10 12.5H4ZM4 20.5C3.72386 20.5 3.5 20.2761 3.5 20V16C3.5 15.7239 3.72386 15.5 4 15.5H10C10.2761 15.5 10.5 15.7239 10.5 16V20C10.5 20.2761 10.2761 20.5 10 20.5H4ZM14 20.5C13.7239 20.5 13.5 20.2761 13.5 20V12C13.5 11.7239 13.7239 11.5 14 11.5H20C20.2761 11.5 20.5 11.7239 20.5 12V20C20.5 20.2761 20.2761 20.5 20 20.5H14ZM13.5 4C13.5 3.72386 13.7239 3.5 14 3.5H20C20.2761 3.5 20.5 3.72386 20.5 4V8C20.5 8.27614 20.2761 8.5 20 8.5H14C13.7239 8.5 13.5 8.27614 13.5 8V4Z" stroke="#56657F"/>
</svg>
