<svg width="20" height="16" viewBox="0 0 20 16" fill="none" xmlns="http://www.w3.org/2000/svg">
<path d="M18.25 3.125H10.1553L7.48487 0.454535C7.38066 0.349742 7.25669 0.26666 7.12015 0.210096C6.9836 0.153532 6.8372 0.12461 6.68941 0.125004H1.75C1.45174 0.125351 1.16579 0.243989 0.954888 0.454892C0.743985 0.665796 0.625347 0.951742 0.625 1.25V14.8077C0.625323 15.0906 0.737878 15.3619 0.937974 15.562C1.13807 15.7621 1.40937 15.8747 1.69234 15.875H18.3333C18.6095 15.8747 18.8743 15.7648 19.0695 15.5696C19.2648 15.3743 19.3747 15.1095 19.375 14.8333V4.25C19.3747 3.95174 19.256 3.6658 19.0451 3.45489C18.8342 3.24399 18.5483 3.12535 18.25 3.125ZM1.75 0.875004H6.68941C6.73867 0.874871 6.78747 0.884513 6.83298 0.903374C6.87849 0.922234 6.9198 0.949938 6.95453 0.984879L9.09466 3.125H1.375V1.25C1.37512 1.15059 1.41467 1.05528 1.48497 0.984976C1.55527 0.914677 1.65058 0.875128 1.75 0.875004ZM18.625 14.8333C18.6249 14.9107 18.5941 14.9848 18.5395 15.0395C18.4848 15.0941 18.4107 15.1249 18.3333 15.125H1.69234C1.60821 15.1249 1.52755 15.0914 1.46806 15.0319C1.40857 14.9725 1.3751 14.8918 1.375 14.8077V3.875H18.25C18.3494 3.87513 18.4447 3.91468 18.515 3.98498C18.5853 4.05528 18.6249 4.15059 18.625 4.25V14.8333Z" fill="#FF416E"/>
</svg>
