<svg width="21" height="17" viewBox="0 0 21 17" fill="none" xmlns="http://www.w3.org/2000/svg">
<path d="M0.394023 2.53838L0.444791 3.64258C0.109935 4.12937 -0.0436606 4.71816 0.0107274 5.30649L0.819203 14.1908C0.876515 14.8215 1.1675 15.408 1.63504 15.8351C2.10257 16.2623 2.71289 16.4993 3.34616 16.4995H11.1822V15.2303H3.34616C3.02953 15.23 2.72445 15.1114 2.4908 14.8977C2.25715 14.684 2.11181 14.3907 2.08332 14.0753L1.27484 5.191C1.25898 5.0154 1.27987 4.83843 1.33618 4.67136C1.3925 4.50429 1.48301 4.35078 1.60194 4.22063C1.72087 4.09047 1.86561 3.98652 2.02694 3.91541C2.18827 3.84429 2.36265 3.80757 2.53896 3.80758H17.287C17.4633 3.80757 17.6377 3.84429 17.799 3.91541C17.9603 3.98652 18.1051 4.09047 18.224 4.22063C18.3429 4.35078 18.4334 4.50429 18.4897 4.67136C18.5461 4.83843 18.567 5.0154 18.5511 5.191L18.2135 8.88435H19.489L19.8139 5.30649C19.8458 4.95531 19.8042 4.60134 19.6918 4.26713C19.5793 3.93292 19.3984 3.62581 19.1607 3.36538C18.9229 3.10495 18.6335 2.89691 18.3109 2.75452C17.9883 2.61213 17.6396 2.53852 17.287 2.53838H12.2331C11.5599 2.53824 10.9143 2.27071 10.4384 1.79464L9.38752 0.743747C8.91159 0.267674 8.26605 0.000143768 7.59288 0H2.93241C2.25919 0 1.61354 0.267436 1.1375 0.743476C0.66146 1.21952 0.394023 1.86516 0.394023 2.53838ZM7.59288 1.26919C7.92947 1.26926 8.25224 1.40303 8.4902 1.64107L9.38752 2.53838H2.53896C2.23435 2.53838 1.94244 2.59169 1.6721 2.69069L1.66322 2.513C1.66986 2.18081 1.80651 1.86447 2.04381 1.63191C2.28111 1.39935 2.60015 1.26913 2.93241 1.26919H7.59288Z" fill="#FF416E"/>
<path d="M19.8809 11.6081C19.94 11.667 19.9869 11.737 20.0189 11.8141C20.0509 11.8912 20.0673 11.9739 20.0673 12.0574C20.0673 12.1408 20.0509 12.2235 20.0189 12.3006C19.9869 12.3777 19.94 12.4477 19.8809 12.5067L16.0733 16.3142C15.9543 16.4332 15.7929 16.5 15.6247 16.5C15.4564 16.5 15.295 16.4332 15.176 16.3142L13.2722 14.4104C13.1531 14.2915 13.0861 14.13 13.0859 13.9616C13.0858 13.7932 13.1526 13.6317 13.2716 13.5125C13.3906 13.3933 13.552 13.3263 13.7204 13.3262C13.8888 13.3261 14.0504 13.3929 14.1695 13.5119L15.624 14.9676L18.9823 11.6081C19.0413 11.549 19.1113 11.5021 19.1884 11.4701C19.2655 11.4381 19.3481 11.4216 19.4316 11.4216C19.5151 11.4216 19.5977 11.4381 19.6748 11.4701C19.7519 11.5021 19.822 11.549 19.8809 11.6081Z" fill="#FF416E"/>
</svg>
