<svg width="20" height="20" viewBox="0 0 20 20" fill="none" xmlns="http://www.w3.org/2000/svg">
<path fill-rule="evenodd" clip-rule="evenodd" d="M13.6209 7.40479C13.9213 7.70519 13.9213 8.19224 13.6209 8.49265L9.51829 12.5952C9.21789 12.8956 8.73083 12.8956 8.43043 12.5952L6.37915 10.5439C6.07875 10.2435 6.07875 9.75648 6.37915 9.45607C6.67955 9.15567 7.1666 9.15567 7.46701 9.45607L8.97436 10.9634L12.533 7.40479C12.8334 7.10439 13.3204 7.10439 13.6209 7.40479Z" fill="#030D45"/>
<path fill-rule="evenodd" clip-rule="evenodd" d="M10 1.53846C5.32682 1.53846 1.53846 5.32682 1.53846 10C1.53846 14.6732 5.32682 18.4615 10 18.4615C14.6732 18.4615 18.4615 14.6732 18.4615 10C18.4615 5.32682 14.6732 1.53846 10 1.53846ZM0 10C0 4.47715 4.47715 0 10 0C15.5228 0 20 4.47715 20 10C20 15.5228 15.5228 20 10 20C4.47715 20 0 15.5228 0 10Z" fill="#030D45"/>
</svg>
