<svg xmlns="http://www.w3.org/2000/svg" viewBox="0 0 75.36 56.56"><defs><style>.cls-1{fill:#f9f9f9;}</style></defs><g id="Слой_2" data-name="Слой 2"><g id="sdfdsf"><path id="c" class="cls-1" d="M2.9,41.94l7.58-2.34.77-.23L11,38.61c-.27-.75-.56-1.53-.79-2.32-.17-.56-.33-1.08-.43-1.57l-.17-.81-.8.24L1.19,36.49,0,32.67l8.5-2.61.56-.17,0-.58c-.33-12,7.49-24,19.25-27.65h0l1.32-.4.43-.13h0c11.82-3.62,25,1.85,31.47,12l.32.49.55-.17,8.91-2.73,1.18,3.81-8,2.41-.73.22.22.73c.09.29.18.57.27.83h0c.1.26.18.51.26.77.25.81.48,1.6.67,2.36l.19.79.77-.24,8-2.46,1.18,3.82-8.67,2.71-.59.18.06.62c.91,9.66-3,15.63-6.18,19.92l-3.47-4.37c.24-.26.48-.54.71-.8h0l0,0a24.87,24.87,0,0,0,5.19-7.85c1.33-3.51,1.72-8-.09-13.89h0c-1.69-5.53-6.18-9.54-11.72-11.68A28.5,28.5,0,0,0,32.27,8l-1.84.55h0A28.47,28.47,0,0,0,15.58,19.37c-3.37,4.88-4.83,10.71-3.14,16.24h0c1.86,6,4.94,9.52,8.17,11.7A25.32,25.32,0,0,0,29.3,50.8h0c.23.07.45.12.64.16l-.39,5.59c-5-1.78-11.61-4.52-16.31-13L13,43l-.6.18L4.08,45.75ZM39.09,19.82l2.53.91-1.68-2.1A19.92,19.92,0,0,0,38,16.48c4.56,2.33,8.39,6,9.88,10.84s.4,10-2.06,14.46a22.28,22.28,0,0,0,.37-2.84l.16-2.57-1.54,2.07A9.37,9.37,0,0,1,40,41.92h0C34.73,43.56,28.76,40,26.87,33.76h0c-1.93-6.23,1-12.49,6.32-14.13A9.3,9.3,0,0,1,39.09,19.82ZM28.92,33.14c1.68,5.54,6.67,8,10.51,6.83S46,34,44.29,28.4s-6.67-8-10.51-6.83S27.21,27.63,28.92,33.14Zm8.3-.47a2,2,0,0,1-2.5-1.28,2,2,0,0,1,1.38-2.51,2,2,0,0,1,2.49,1.29A2.06,2.06,0,0,1,37.22,32.67Z"/></g></g></svg>