<svg width="150" height="85" viewBox="0 0 150 85" fill="none" xmlns="http://www.w3.org/2000/svg">
<path d="M0 4C0 1.79086 1.79086 0 4 0H146C148.209 0 150 1.79086 150 4V76C150 78.2091 148.209 80 146 80H140.072C139.016 80 138.002 80.4178 137.253 81.1621L134.906 83.4936C133.467 84.9229 131.186 85.0491 129.598 83.7874L125.925 80.8684C125.217 80.3061 124.34 80 123.436 80H4C1.79086 80 0 78.2091 0 76V4Z" fill="white" fill-opacity="0.9"/>
<path d="M0.5 4C0.5 2.067 2.067 0.5 4 0.5H146C147.933 0.5 149.5 2.067 149.5 4V76C149.5 77.933 147.933 79.5 146 79.5H140.072C138.884 79.5 137.744 79.97 136.901 80.8074L134.553 83.1389C133.294 84.3895 131.299 84.5 129.909 83.3959L126.236 80.4769C125.44 79.8444 124.453 79.5 123.436 79.5H4C2.067 79.5 0.5 77.933 0.5 76V4Z" stroke="#56657F" stroke-opacity="0.05"/>
</svg>
