<svg width="8" height="20" viewBox="0 0 8 20" fill="none" xmlns="http://www.w3.org/2000/svg">
<path fill-rule="evenodd" clip-rule="evenodd" d="M2.78667 19.3664L0.160001 15.6788C0.0666674 15.5303 7.59152e-07 15.3589 7.67518e-07 15.1675C7.88744e-07 14.6819 0.368001 14.2849 0.821334 14.2849L2.66667 14.2849L2.66667 1.4282C2.66667 0.645548 3.26133 -2.07134e-07 4 -1.74846e-07C4.73867 -1.42557e-07 5.33333 0.645548 5.33333 1.4282L5.33333 14.2849L7.176 14.2849C7.62933 14.2849 8 14.6819 8 15.1675C8 15.3646 7.944 15.5474 7.83733 15.6902L5.24 19.3293L5.23467 19.3293C4.73067 20.0663 3.76533 20.2177 3.08 19.6749C2.968 19.5807 2.87467 19.4778 2.78667 19.3664Z" fill="#E2E7F0"/>
</svg>
