<svg width="330" height="83" viewBox="0 0 330 83" fill="none" xmlns="http://www.w3.org/2000/svg">
<path d="M10.7273 38.3519C-3.95483 31.3431 -14 70.784 -14 70.784V87H343V17.7241C343 17.7241 328.5 50.5139 316.727 50.5139C304.955 50.5139 298.5 33.5 286.5 33.5C270.504 33.5 275.545 12.257 251 30.5C226.455 48.7431 235.5 -5.16918 224 7.94676C212.5 21.0627 194.5 12.0008 182.273 1.86575C170.045 -8.26927 166.5 26.1898 154.455 26.1898C142.409 26.1898 142.636 12.0008 137 12.0008C131.364 12.0008 125.091 38.3519 125.091 38.3519C125.091 38.3519 127.773 14.8624 112 14.8624C99.036 14.8624 106.322 50.5139 92.6363 50.5139C78.5 50.5139 90.2727 84.7345 75.6363 78.892C61 73.0494 70 56.3564 62.5 23.4474C55 -9.46166 42.3387 53.4421 10.7273 38.3519Z" fill="url(#paint0_linear)"/>
<defs>
<linearGradient id="paint0_linear" x1="163.727" y1="-50.8364" x2="163.727" y2="46.4599" gradientUnits="userSpaceOnUse">
<stop stop-color="#BCD476"/>
<stop offset="1" stop-color="#BCD476" stop-opacity="0"/>
</linearGradient>
</defs>
</svg>
