<svg width="97" height="56" viewBox="0 0 97 56" fill="none" xmlns="http://www.w3.org/2000/svg">
<path d="M45.0236 47.6988C43.0307 49.9054 40.1153 51.6829 36.2772 53.0314C32.4391 54.3798 28.232 55.0541 23.6558 55.0541C16.6194 55.0541 10.9976 52.9088 6.79044 48.6182C2.58332 44.3276 0.332141 38.3576 0.0369046 30.7082L0 26.0744C0 20.8031 0.934916 16.2061 2.80475 12.2833C4.67458 8.33595 7.34401 5.30804 10.813 3.19953C14.3067 1.06651 18.3416 0 22.9177 0C29.6098 0 34.801 1.53234 38.4915 4.59703C42.2065 7.6372 44.3716 12.1852 44.9867 18.241H32.5129C32.0701 15.2499 31.1106 13.1169 29.6344 11.842C28.1582 10.567 26.0669 9.92959 23.3606 9.92959C20.113 9.92959 17.6035 11.3026 15.8321 14.0485C14.0606 16.7945 13.1626 20.7173 13.138 25.8169V29.0532C13.138 34.3981 14.0483 38.4189 15.869 41.1159C17.7142 43.7883 20.6051 45.1245 24.5415 45.1245C27.9122 45.1245 30.4217 44.3767 32.0701 42.8811V34.5697H23.0654V25.7066H45.0236V47.6988Z" fill="url(#paint0_linear)"/>
<path d="M84.0465 40.0861C84.0465 38.1983 83.3699 36.7272 82.0167 35.673C80.6882 34.6187 78.3386 33.5277 74.968 32.3999C71.5974 31.2721 68.8418 30.181 66.7013 29.1268C59.7387 25.7189 56.2573 21.036 56.2573 15.0783C56.2573 12.1116 57.1185 9.50053 58.8407 7.24492C60.5875 4.96479 63.0478 3.19953 66.2216 1.94914C69.3954 0.674231 72.9628 0.0367763 76.9239 0.0367763C80.7866 0.0367763 84.2433 0.723266 87.2941 2.09625C90.3695 3.46923 92.756 5.43063 94.4536 7.98045C96.1512 10.5057 97 13.3988 97 16.6596H84.0834C84.0834 14.4776 83.4068 12.7859 82.0536 11.5845C80.7251 10.3832 78.9168 9.78248 76.6287 9.78248C74.316 9.78248 72.4831 10.2974 71.1299 11.3271C69.8013 12.3323 69.137 13.6195 69.137 15.1886C69.137 16.5616 69.8751 17.812 71.3513 18.9398C72.8275 20.0431 75.4231 21.1954 79.1382 22.3967C82.8532 23.5736 85.904 24.8485 88.2905 26.2215C94.0968 29.5558 97 34.1529 97 40.0126C97 44.6954 95.2286 48.373 91.6857 51.0454C88.1429 53.7178 83.2838 55.0541 77.1084 55.0541C72.7537 55.0541 68.8049 54.2817 65.2621 52.7371C61.7438 51.168 59.0867 49.035 57.2907 46.3381C55.5193 43.6166 54.6335 40.4907 54.6335 36.9601H67.624C67.624 39.8287 68.362 41.9494 69.8382 43.3224C71.339 44.6709 73.7624 45.3451 77.1084 45.3451C79.2489 45.3451 80.9342 44.8915 82.1644 43.9844C83.4191 43.0527 84.0465 41.7533 84.0465 40.0861Z" fill="url(#paint1_linear)"/>
<defs>
<linearGradient id="paint0_linear" x1="0" y1="25.4096" x2="103.326" y2="25.4096" gradientUnits="userSpaceOnUse">
<stop offset="0.427083" stop-color="#0E0D3D"/>
<stop offset="0.520833" stop-color="#FF416E"/>
</linearGradient>
<linearGradient id="paint1_linear" x1="0" y1="25.4096" x2="103.326" y2="25.4096" gradientUnits="userSpaceOnUse">
<stop offset="0.427083" stop-color="#0E0D3D"/>
<stop offset="0.520833" stop-color="#FF416E"/>
</linearGradient>
</defs>
</svg>
