<svg width="90" height="123" viewBox="0 0 90 123" fill="none" xmlns="http://www.w3.org/2000/svg">
<path d="M85.5652 9.30025C86.2774 7.7718 85.6189 5.94772 84.057 5.31195C75.3503 1.7677 65.9293 0.277879 56.5281 0.97699C46.1108 1.75167 36.0663 5.18818 27.3554 10.9578C18.6446 16.7274 11.5588 24.6372 6.7758 33.9304C1.99281 43.2237 -0.327369 53.5896 0.037191 64.0367C0.401751 74.4837 3.43886 84.6624 8.858 93.5992C14.2772 102.536 21.8971 109.932 30.9889 115.079C40.0807 120.227 50.3402 122.954 60.7862 122.999C70.2133 123.041 79.5077 120.897 87.9463 116.753C89.4598 116.01 89.9895 114.145 89.1725 112.67C88.3548 111.193 86.4982 110.668 84.9792 111.404C77.4585 115.044 69.194 116.927 60.8129 116.89C51.4115 116.849 42.1779 114.395 33.9952 109.762C25.8126 105.129 18.9547 98.4728 14.0775 90.4297C9.20024 82.3866 6.46684 73.2258 6.13874 63.8235C5.81063 54.4211 7.8988 45.0918 12.2035 36.7278C16.5082 28.3639 22.8854 21.2451 30.7252 16.0525C38.5649 10.8598 47.605 7.76696 56.9806 7.06974C65.3387 6.44819 73.7143 7.74906 81.4704 10.8557C83.037 11.4831 84.8524 10.8299 85.5652 9.30025Z" fill="#BCD476"/>
</svg>
