<svg width="4" height="12" viewBox="0 0 4 12" fill="none" xmlns="http://www.w3.org/2000/svg">
<path d="M3.16244 4.235L0.29994 4.59375L0.19744 5.06875L0.75994 5.1725C1.12744 5.26 1.19994 5.3925 1.11994 5.75875L0.19744 10.0938C-0.0450598 11.215 0.32869 11.7425 1.20744 11.7425C1.88869 11.7425 2.67994 11.4275 3.03869 10.995L3.14869 10.475C2.89869 10.695 2.53369 10.7825 2.29119 10.7825C1.94744 10.7825 1.82244 10.5413 1.91119 10.1163L3.16244 4.235ZM3.24994 1.625C3.24994 1.95652 3.11824 2.27446 2.88382 2.50888C2.6494 2.7433 2.33146 2.875 1.99994 2.875C1.66842 2.875 1.35048 2.7433 1.11606 2.50888C0.881637 2.27446 0.74994 1.95652 0.74994 1.625C0.74994 1.29348 0.881637 0.975537 1.11606 0.741116C1.35048 0.506696 1.66842 0.375 1.99994 0.375C2.33146 0.375 2.6494 0.506696 2.88382 0.741116C3.11824 0.975537 3.24994 1.29348 3.24994 1.625Z" fill="white"/>
</svg>
