<svg width="20" height="20" viewBox="0 0 20 20" fill="none" xmlns="http://www.w3.org/2000/svg">
<path d="M10 0C4.4898 0 0 4.4898 0 10C0 15.5102 4.4898 20 10 20C15.5102 20 20 15.5102 20 10C20 4.4898 15.5102 0 10 0ZM13.5714 8.46939L9.4898 12.551C9.28572 12.6531 9.18367 12.7551 8.97959 12.7551C8.77551 12.7551 8.57143 12.6531 8.46939 12.551L6.42857 10.5102C6.12245 10.2041 6.12245 9.69388 6.42857 9.38776C6.73469 9.08163 7.2449 9.08163 7.55102 9.38776L9.08163 10.9184L12.6531 7.34694C12.9592 7.04082 13.4694 7.04082 13.7755 7.34694C13.8776 7.7551 13.8776 8.16327 13.5714 8.46939Z" fill="#9ED22F"/>
</svg>
