<svg width="86" height="27" viewBox="0 0 86 27" fill="none" xmlns="http://www.w3.org/2000/svg">
<rect x="1.25" y="26.25" width="83.5" height="0.5" stroke="#BCD476" stroke-width="0.5" stroke-dasharray="5 5"/>
<path d="M1 19L6.81818 11L9.36364 14L14.8182 6.5L16.6364 16L22.0909 21L26.0909 14L28.2727 21L31.1818 8L33.7273 11L38.0909 2L40.6364 8L47.1818 2L50.0909 9L53.7273 19L57 3.5L59.5455 11L65.3636 6.5L67.9091 11L73 6.5L78.8182 14L85 3.5" stroke="#BCD476"/>
<path d="M6.81818 11L1 19V23H85V3.5L78.8182 14L73 6.5L67.9091 11L65.3636 6.5L59.5455 11L57 3.5L53.7273 19L50.0909 9L47.1818 2L40.6364 8L38.0909 2L33.7273 11L31.1818 8L28.2727 21L26.0909 14L22.0909 21L16.6364 16L14.8182 6.5L9.36364 14L6.81818 11Z" fill="url(#paint0_linear)"/>
<defs>
<linearGradient id="paint0_linear" x1="42.8182" y1="-11" x2="42.8182" y2="13" gradientUnits="userSpaceOnUse">
<stop stop-color="#BCD476"/>
<stop offset="1" stop-color="#BCD476" stop-opacity="0"/>
</linearGradient>
</defs>
</svg>
