<svg width="10" height="12" viewBox="0 0 10 12" fill="none" xmlns="http://www.w3.org/2000/svg">
<path d="M4.99995 1.2C5.99235 1.2 6.79995 2.0076 6.79995 3H7.99995C7.99995 1.3458 6.65415 0 4.99995 0C3.34575 0 1.99995 1.3458 1.99995 3V4.2H1.39995C0.738151 4.2 0.199951 4.7382 0.199951 5.4V10.8C0.199951 11.4618 0.738151 12 1.39995 12H8.59995C9.26175 12 9.79995 11.4618 9.79995 10.8V5.4C9.79995 4.7382 9.26175 4.2 8.59995 4.2H3.19995V3C3.19995 2.0076 4.00755 1.2 4.99995 1.2ZM8.60115 10.8H5.59995V9.4332C5.95695 9.225 6.19995 8.8422 6.19995 8.4C6.19995 7.7382 5.66175 7.2 4.99995 7.2C4.33815 7.2 3.79995 7.7382 3.79995 8.4C3.79995 8.8416 4.04295 9.225 4.39995 9.4332V10.8H1.39995V5.4H8.59995L8.60115 10.8Z" fill="#FF416E"/>
</svg>
