<svg width="12" height="14" viewBox="0 0 12 14" fill="none" xmlns="http://www.w3.org/2000/svg">
<path d="M6.00008 0.333374C4.16208 0.333374 2.66675 1.82871 2.66675 3.66671V5.66671H2.00008C1.26475 5.66671 0.666748 6.26471 0.666748 7.00004V12.3334C0.666748 13.0687 1.26475 13.6667 2.00008 13.6667H10.0001C10.7354 13.6667 11.3334 13.0687 11.3334 12.3334V7.00004C11.3334 6.26471 10.7354 5.66671 10.0001 5.66671H9.33341V3.66671C9.33341 1.82871 7.83808 0.333374 6.00008 0.333374ZM10.0001 7.00004L10.0014 12.3334H2.00008V7.00004H10.0001ZM4.00008 5.66671V3.66671C4.00008 2.56404 4.89741 1.66671 6.00008 1.66671C7.10275 1.66671 8.00008 2.56404 8.00008 3.66671V5.66671H4.00008Z" fill="#BCD476"/>
</svg>
