<svg width="163" height="21" viewBox="0 0 163 21" fill="none" xmlns="http://www.w3.org/2000/svg">
<path class="logo" d="M54.4434 15.418C53.9688 15.9453 53.2744 16.3701 52.3604 16.6924C51.4463 17.0146 50.4443 17.1758 49.3545 17.1758C47.6787 17.1758 46.3398 16.6631 45.3379 15.6377C44.3359 14.6123 43.7998 13.1855 43.7295 11.3574L43.7207 10.25C43.7207 8.99023 43.9434 7.8916 44.3887 6.9541C44.834 6.01074 45.4697 5.28711 46.2959 4.7832C47.1279 4.27344 48.0889 4.01855 49.1787 4.01855C50.7725 4.01855 52.0088 4.38477 52.8877 5.11719C53.7725 5.84375 54.2881 6.93066 54.4346 8.37793H51.4639C51.3584 7.66309 51.1299 7.15332 50.7783 6.84863C50.4268 6.54395 49.9287 6.3916 49.2842 6.3916C48.5107 6.3916 47.9131 6.71973 47.4912 7.37598C47.0693 8.03223 46.8555 8.96973 46.8496 10.1885V10.9619C46.8496 12.2393 47.0664 13.2002 47.5 13.8447C47.9395 14.4834 48.6279 14.8027 49.5654 14.8027C50.3682 14.8027 50.9658 14.624 51.3584 14.2666V12.2803H49.2139V10.1621H54.4434V15.418ZM60.2213 14.627H65.5914V17H57.1363V4.20312H60.2213V14.627ZM78.0666 10.8652C78.0666 12.1133 77.8352 13.2178 77.3723 14.1787C76.9094 15.1396 76.2502 15.8809 75.3947 16.4023C74.5451 16.918 73.5754 17.1758 72.4855 17.1758C71.3957 17.1758 70.4289 16.9268 69.5852 16.4287C68.7414 15.9248 68.0822 15.207 67.6076 14.2754C67.1389 13.3438 66.8928 12.2744 66.8693 11.0674V10.3467C66.8693 9.09277 67.0979 7.98828 67.5549 7.0332C68.0178 6.07227 68.677 5.33105 69.5324 4.80957C70.3937 4.28809 71.3723 4.02734 72.468 4.02734C73.552 4.02734 74.5187 4.28516 75.3684 4.80078C76.218 5.31641 76.8771 6.05176 77.3459 7.00684C77.8205 7.95605 78.0607 9.0459 78.0666 10.2764V10.8652ZM74.9289 10.3291C74.9289 9.05762 74.715 8.09375 74.2873 7.4375C73.8654 6.77539 73.259 6.44434 72.468 6.44434C70.9211 6.44434 70.1037 7.60449 70.0158 9.9248L70.007 10.8652C70.007 12.1191 70.215 13.083 70.6311 13.7568C71.0471 14.4307 71.6652 14.7676 72.4855 14.7676C73.2648 14.7676 73.8654 14.4365 74.2873 13.7744C74.7092 13.1123 74.923 12.1602 74.9289 10.918V10.3291ZM80.5574 17V4.20312H85.1541C86.8006 4.20312 88.0516 4.50488 88.907 5.1084C89.7684 5.71191 90.199 6.58789 90.199 7.73633C90.199 8.39844 90.0467 8.96387 89.742 9.43262C89.4373 9.90137 88.9891 10.2471 88.3973 10.4697C89.0652 10.6455 89.5779 10.9736 89.9354 11.4541C90.2928 11.9346 90.4715 12.5205 90.4715 13.2119C90.4715 14.4658 90.073 15.4092 89.2762 16.042C88.4852 16.6689 87.3104 16.9883 85.7518 17H80.5574ZM83.6424 11.5596V14.627H85.6639C86.2205 14.627 86.6482 14.501 86.9471 14.249C87.2459 13.9912 87.3953 13.6309 87.3953 13.168C87.3953 12.1016 86.865 11.5654 85.8045 11.5596H83.6424ZM83.6424 9.53809H85.2508C85.9246 9.53223 86.4051 9.40918 86.6922 9.16895C86.9793 8.92871 87.1229 8.57422 87.1229 8.10547C87.1229 7.56641 86.9676 7.17969 86.657 6.94531C86.3465 6.70508 85.8455 6.58496 85.1541 6.58496H83.6424V9.53809ZM100.345 14.6094H96.1176L95.3793 17H92.0834L96.7768 4.20312H99.6771L104.406 17H101.092L100.345 14.6094ZM96.8559 12.2275H99.6068L98.227 7.78906L96.8559 12.2275ZM109.331 14.627H114.701V17H106.246V4.20312H109.331V14.627Z" fill="#0E0D3D"/>
<path class="logo" d="M123.503 13.5986C123.503 13.1475 123.341 12.7959 123.019 12.5439C122.703 12.292 122.143 12.0312 121.34 11.7617C120.538 11.4922 119.881 11.2314 119.372 10.9795C117.713 10.165 116.884 9.0459 116.884 7.62207C116.884 6.91309 117.089 6.28906 117.5 5.75C117.916 5.20508 118.502 4.7832 119.257 4.48438C120.013 4.17969 120.863 4.02734 121.806 4.02734C122.726 4.02734 123.549 4.19141 124.276 4.51953C125.008 4.84766 125.577 5.31641 125.981 5.92578C126.385 6.5293 126.588 7.2207 126.588 8H123.511C123.511 7.47852 123.35 7.07422 123.028 6.78711C122.712 6.5 122.281 6.35645 121.736 6.35645C121.185 6.35645 120.749 6.47949 120.426 6.72559C120.11 6.96582 119.952 7.27344 119.952 7.64844C119.952 7.97656 120.128 8.27539 120.479 8.54492C120.831 8.80859 121.449 9.08398 122.334 9.37109C123.218 9.65234 123.945 9.95703 124.513 10.2852C125.896 11.082 126.588 12.1807 126.588 13.5811C126.588 14.7002 126.166 15.5791 125.322 16.2178C124.478 16.8564 123.321 17.1758 121.85 17.1758C120.813 17.1758 119.873 16.9912 119.029 16.6221C118.191 16.2471 117.558 15.7373 117.13 15.0928C116.709 14.4424 116.498 13.6953 116.498 12.8516H119.591C119.591 13.5371 119.767 14.0439 120.119 14.3721C120.476 14.6943 121.053 14.8555 121.85 14.8555C122.36 14.8555 122.761 14.7471 123.054 14.5303C123.353 14.3076 123.503 13.9971 123.503 13.5986ZM136.338 14.6094H132.111L131.372 17H128.076L132.77 4.20312H135.67L140.399 17H137.085L136.338 14.6094ZM132.849 12.2275H135.6L134.22 7.78906L132.849 12.2275ZM150.299 11.9023H145.324V17H142.239V4.20312H150.8V6.58496H145.324V9.5293H150.299V11.9023ZM160.919 11.5771H156.068V14.627H161.798V17H152.983V4.20312H161.816V6.58496H156.068V9.2832H160.919V11.5771Z" fill="#0E0D3D"/>
<path class="logo" d="M10.6757 15.2632C10.2032 15.7842 9.51187 16.204 8.60181 16.5224C7.69175 16.8408 6.69419 17 5.60912 17C3.94067 17 2.60767 16.4934 1.61011 15.4803C0.61254 14.4672 0.0787551 13.0574 0.00875057 11.2512L0 10.157C0 8.91227 0.221681 7.82676 0.665043 6.90047C1.10841 5.96838 1.74136 5.2534 2.56392 4.75551C3.3923 4.25184 4.34903 4 5.4341 4C7.02087 4 8.25179 4.36183 9.12685 5.0855C10.0077 5.80338 10.5211 6.87731 10.6669 8.30728H7.70925C7.60425 7.60098 7.37673 7.09731 7.02671 6.79626C6.67669 6.49521 6.18082 6.34469 5.53911 6.34469C4.76906 6.34469 4.17402 6.66889 3.75399 7.3173C3.33397 7.96571 3.12104 8.89201 3.1152 10.0962V10.8604C3.1152 12.1225 3.33105 13.0719 3.76275 13.7088C4.20027 14.3398 4.88574 14.6553 5.81913 14.6553C6.61835 14.6553 7.21339 14.4787 7.60425 14.1256V12.163H5.46911V10.0701H10.6757V15.2632Z" fill="url(#paint0_linear)"/>
<path d="M19.9285 13.4656C19.9285 13.0198 19.7681 12.6725 19.4473 12.4235C19.1322 12.1746 18.5751 11.9169 17.7759 11.6506C16.9767 11.3843 16.3233 11.1267 15.8158 10.8778C14.1648 10.073 13.3394 8.96727 13.3394 7.56045C13.3394 6.85994 13.5436 6.24338 13.9519 5.71075C14.3661 5.17234 14.9495 4.75551 15.702 4.46025C16.4546 4.15921 17.3005 4.00868 18.2397 4.00868C19.1556 4.00868 19.9752 4.17079 20.6986 4.49499C21.4278 4.81919 21.9937 5.28234 22.3962 5.88444C22.7987 6.48074 23 7.16388 23 7.93387H19.9373C19.9373 7.41861 19.7769 7.01915 19.456 6.73547C19.141 6.45179 18.7122 6.30995 18.1697 6.30995C17.6213 6.30995 17.1867 6.43153 16.8659 6.67468C16.5508 6.91205 16.3933 7.21599 16.3933 7.58651C16.3933 7.91071 16.5683 8.20597 16.9184 8.47228C17.2684 8.7328 17.8838 9.0049 18.7647 9.28858C19.6456 9.56647 20.369 9.86751 20.9349 10.1917C22.3116 10.9791 23 12.0646 23 13.4482C23 14.554 22.58 15.4224 21.7399 16.0534C20.8999 16.6845 19.7477 17 18.2834 17C17.2509 17 16.3146 16.8176 15.4745 16.4529C14.6403 16.0824 14.0102 15.5787 13.5844 14.9419C13.1644 14.2993 12.9543 13.5611 12.9543 12.7275H16.0345C16.0345 13.4048 16.2096 13.9056 16.5596 14.2298C16.9154 14.5482 17.4901 14.7074 18.2834 14.7074C18.791 14.7074 19.1906 14.6003 19.4823 14.3861C19.7798 14.1661 19.9285 13.8593 19.9285 13.4656Z" fill="url(#paint1_linear)"/>
<defs>
<linearGradient id="paint0_linear" x1="0" y1="10" x2="24.5" y2="10" gradientUnits="userSpaceOnUse">
<stop offset="0.427083" stop-color="#0E0D3D"/>
<stop offset="0.520833" stop-color="#FF416E"/>
</linearGradient>
<linearGradient id="paint1_linear" x1="0" y1="10" x2="24.5" y2="10" gradientUnits="userSpaceOnUse">
<stop offset="0.427083" stop-color="#0E0D3D"/>
<stop offset="0.520833" stop-color="#FF416E"/>
</linearGradient>
</defs>
</svg>
