<svg width="24" height="24" viewBox="0 0 24 24" fill="none" xmlns="http://www.w3.org/2000/svg">
<path d="M22.3614 6.96678C20.6413 2.75786 16.5468 0.00697074 12 0.00537109C6.8962 0.019318 2.44394 3.47365 1.16237 8.41391L0.615689 8.06599C0.42883 7.94826 0.181885 8.00435 0.064161 8.19121C0.0241198 8.2548 0.00277452 8.32838 0.00262455 8.40351V14.0023C0.00252458 14.2231 0.181485 14.4022 0.402386 14.4023C0.478519 14.4024 0.553103 14.3807 0.617289 14.3398L1.16357 13.9919C2.05107 17.4153 4.50163 20.2193 7.77531 21.5574L6.84311 23.4214C6.74439 23.6189 6.82452 23.8591 7.02208 23.9579C7.07766 23.9856 7.1389 24.0001 7.20104 24.0001H16.7989C17.0198 24.0013 17.1998 23.8232 17.201 23.6023C17.2014 23.5396 17.1869 23.4776 17.1588 23.4214L16.2322 21.5682C21.9568 19.2287 24.701 12.6914 22.3614 6.96678ZM0.802448 13.274V9.13175L4.05653 11.2029L0.802448 13.274ZM20.273 14.1966L13.0449 11.2029L20.273 8.20916C20.9729 10.1436 20.9729 12.2622 20.273 14.1966ZM12.739 11.9419L19.965 14.9349C19.0883 16.7946 17.5916 18.2912 15.732 19.1679V19.1663L12.739 11.9419ZM12 12.2479L14.9937 19.4759C13.0602 20.1785 10.9408 20.1759 9.00904 19.4687L12 12.2479ZM8.2704 19.1611C6.41311 18.285 4.91819 16.7904 4.04173 14.9333L11.2609 11.9419L8.2704 19.1611ZM12.739 10.4639L15.732 3.23786C17.5916 4.11461 19.0883 5.61123 19.965 7.47092L12.739 10.4639ZM12 10.1579L9.00904 2.93712C10.9408 2.22988 13.0602 2.22733 14.9937 2.92992L12 10.1579ZM11.2609 10.4643L4.04173 7.47252C4.91789 5.61518 6.41291 4.12046 8.2704 3.24465L11.2609 10.4643ZM10.955 11.2029L3.7326 14.1946C3.54674 13.683 3.40922 13.1551 3.32189 12.6178L5.01512 11.5404C5.20153 11.4219 5.25662 11.1748 5.13814 10.9884C5.10665 10.9389 5.06466 10.8969 5.01512 10.8654L3.32189 9.78801C3.40922 9.25073 3.54674 8.72279 3.7326 8.21116L10.955 11.2029ZM7.84809 23.2002L8.52994 21.8365C10.7837 22.5852 13.2187 22.5884 15.4744 21.8457L16.1519 23.2002H7.84809ZM12 21.6006C7.16289 21.5894 2.96947 18.251 1.87421 13.5396L2.59405 13.0813C3.63142 18.2796 8.68646 21.6526 13.8847 20.6152C19.083 19.5778 22.456 14.5228 21.4186 9.32456C20.3812 4.12626 15.3262 0.753256 10.1279 1.79063C6.32533 2.54951 3.35294 5.52195 2.59405 9.32451L1.87421 8.86581C3.16628 3.27195 8.74844 -0.21538 14.3423 1.07668C19.9362 2.36875 23.4235 7.95091 22.1314 13.5448C21.042 18.2615 16.8409 21.6019 12 21.6006Z" fill="#515172"/>
</svg>
