<svg width="47" height="63" viewBox="0 0 47 63" fill="none" xmlns="http://www.w3.org/2000/svg">
<path d="M44.1469 4.37875C44.5145 3.59039 44.1747 2.64938 43.369 2.32162C38.8768 0.494284 34.016 -0.273831 29.1656 0.0866183C23.7908 0.486034 18.6083 2.25785 14.114 5.23259C9.61965 8.20733 5.96374 12.2855 3.49596 17.077C1.02819 21.8684 -0.168905 27.213 0.0191886 32.5993C0.207283 37.9857 1.77427 43.2337 4.57027 47.8414C7.36627 52.449 11.2978 56.2622 15.9887 58.9162C20.6796 61.5702 25.973 62.9762 31.3625 62.9997C36.2263 63.0209 41.0216 61.9156 45.3754 59.7794C46.1563 59.3962 46.4296 58.4338 46.0079 57.673C45.5862 56.9122 44.6293 56.6416 43.8463 57.0204C39.9656 58.8978 35.701 59.8686 31.3763 59.8497C26.5257 59.8286 21.7616 58.5632 17.5398 56.1746C13.318 53.786 9.77964 50.3541 7.26325 46.2072C4.74685 42.0603 3.33656 37.3371 3.16727 32.4894C2.99799 27.6417 4.07537 22.8316 6.29637 18.5193C8.51737 14.2069 11.8077 10.5366 15.8526 7.85933C19.8975 5.18207 24.5617 3.58743 29.399 3.22796C33.7119 2.90746 38.0338 3.57837 42.036 5.18051C42.8435 5.50379 43.7792 5.1671 44.1469 4.37875Z" fill="#BCD476"/>
</svg>
