<svg width="24" height="24" viewBox="0 0 24 24" fill="none" xmlns="http://www.w3.org/2000/svg">
<path d="M16.4319 19.1098C16.3767 19.1103 16.3224 19.0966 16.274 19.0702C16.2256 19.0437 16.1847 19.0054 16.1553 18.9587C16.1325 18.923 16.117 18.883 16.1097 18.8413C16.1025 18.7995 16.1035 18.7567 16.1129 18.7154C16.1223 18.674 16.1398 18.6349 16.1644 18.6004C16.189 18.5658 16.2201 18.5365 16.2561 18.5141C16.3511 18.455 16.439 18.4009 16.523 18.3435C16.5964 18.2984 16.6847 18.2844 16.7684 18.3045C16.8521 18.3245 16.9244 18.377 16.9695 18.4503C17.0145 18.5237 17.0285 18.612 17.0085 18.6957C16.9885 18.7794 16.936 18.8517 16.8626 18.8968C16.7786 18.9529 16.6927 19.0067 16.6061 19.0606C16.5537 19.0929 16.4934 19.11 16.4319 19.1098Z" fill="#56657F"/>
<path d="M19.7225 14.8265C19.6998 14.8266 19.677 14.8242 19.6548 14.8194C19.6131 14.8106 19.5735 14.7936 19.5384 14.7695C19.5033 14.7454 19.4733 14.7146 19.45 14.6789C19.4268 14.6432 19.4109 14.6032 19.4031 14.5613C19.3953 14.5194 19.3958 14.4764 19.4047 14.4348C19.4783 14.0858 19.5152 13.7302 19.5146 13.3736C19.5146 11.3193 18.3013 9.42944 16.1851 8.18858C16.1109 8.14505 16.057 8.07382 16.0353 7.99056C16.0136 7.90729 16.0258 7.81881 16.0693 7.74458C16.1129 7.67034 16.1841 7.61644 16.2674 7.59473C16.3506 7.57302 16.4391 7.58527 16.5133 7.62879C18.7989 8.96923 20.1633 11.1169 20.1633 13.3736C20.1637 13.7755 20.1222 14.1764 20.0394 14.5697C20.024 14.6423 19.9841 14.7074 19.9264 14.7542C19.8687 14.8009 19.7968 14.8265 19.7225 14.8265Z" fill="#56657F"/>
<path d="M16.3184 19.4205C16.3034 19.4021 16.2905 19.3822 16.2797 19.3611C16.2596 19.3216 16.2473 19.2785 16.2438 19.2344C16.2403 19.1902 16.2455 19.1457 16.2591 19.1036C16.2727 19.0614 16.2945 19.0223 16.3233 18.9886C16.352 18.9549 16.3871 18.9271 16.4266 18.907C16.7567 18.7378 17.0682 18.5344 17.356 18.3003C19.0156 16.954 19.6456 14.8442 19.4245 12.3099C19.411 12.2214 19.3715 12.0337 19.4245 11.9615C19.4776 11.8894 19.5571 11.8413 19.6456 11.8279C19.7341 11.8144 19.8243 11.8366 19.8964 11.8896C19.9685 11.9427 20.0166 12.0222 20.0301 12.1107C20.445 14.8356 19.6042 17.3454 17.7811 18.8243C17.4567 19.0881 17.1056 19.3173 16.7336 19.5081C16.6648 19.5432 16.586 19.5537 16.5105 19.5378C16.4349 19.5218 16.3671 19.4804 16.3184 19.4205Z" fill="#56657F"/>
<path d="M16.427 22.2405H14.04C13.954 22.2405 13.8715 22.2063 13.8106 22.1455C13.7498 22.0847 13.7156 22.0022 13.7156 21.9162V20.2229C12.0213 20.6153 10.2597 20.6153 8.56538 20.2229V21.9162C8.56538 22.0022 8.53121 22.0847 8.47039 22.1455C8.40956 22.2063 8.32707 22.2405 8.24105 22.2405H5.85403C5.76801 22.2405 5.68552 22.2063 5.62469 22.1455C5.56387 22.0847 5.5297 22.0022 5.5297 21.9162V18.9648C4.24591 18.1951 3.22576 17.054 2.60397 15.6924H1.65403C1.38738 15.6924 1.13165 15.5865 0.943097 15.3979C0.754547 15.2094 0.648621 14.9536 0.648621 14.687V12.06C0.648534 11.793 0.754329 11.5369 0.942805 11.3478C1.13128 11.1587 1.38705 11.0521 1.65403 11.0513H2.6043C3.01252 10.134 3.61362 9.31541 4.36667 8.6513L3.827 5.33022C3.81755 5.2721 3.8241 5.21251 3.84595 5.15783C3.86781 5.10315 3.90413 5.05545 3.95103 5.01985C3.99793 4.98425 4.05364 4.96209 4.11218 4.95575C4.17072 4.9494 4.22988 4.95911 4.28332 4.98384L7.95565 6.6833C8.33058 6.57203 8.71111 6.48055 9.09565 6.40925C9.18025 6.39355 9.26761 6.4121 9.33853 6.46082C9.40945 6.50954 9.45811 6.58444 9.47381 6.66903C9.48951 6.75363 9.47096 6.841 9.42224 6.91192C9.37352 6.98284 9.29862 7.0315 9.21403 7.04719C8.8135 7.12114 8.41768 7.2186 8.02862 7.33909C7.95184 7.36318 7.86884 7.35786 7.79576 7.32417L4.56484 5.82903L5.03478 8.7259C5.04364 8.78078 5.03824 8.83702 5.0191 8.88921C4.99996 8.94141 4.96772 8.9878 4.92549 9.02395C4.13163 9.6872 3.51266 10.5351 3.12289 11.4934C3.09918 11.5542 3.05763 11.6065 3.0037 11.6434C2.94976 11.6803 2.88595 11.7 2.82062 11.7H1.65403C1.559 11.7005 1.46807 11.7387 1.40118 11.8062C1.3343 11.8737 1.29692 11.9649 1.29727 12.06V14.687C1.29727 14.7816 1.33486 14.8723 1.40176 14.9392C1.46867 15.0061 1.55941 15.0437 1.65403 15.0437H2.82159C2.88692 15.0437 2.95073 15.0634 3.00467 15.1003C3.0586 15.1372 3.10015 15.1895 3.12386 15.2503C3.70728 16.6372 4.73709 17.7894 6.04992 18.5244C6.11858 18.5652 6.16978 18.6298 6.19372 18.706C6.21765 18.7822 6.21264 18.8645 6.17965 18.9373V21.5918H7.91803V19.8048C7.91803 19.7548 7.92962 19.7054 7.95187 19.6606C7.97412 19.6158 8.00644 19.5768 8.04629 19.5465C8.08615 19.5163 8.13246 19.4956 8.18161 19.4863C8.23076 19.4769 8.28141 19.479 8.32959 19.4925C10.171 19.9931 12.1126 19.9931 13.954 19.4925C14.0022 19.479 14.0529 19.4769 14.102 19.4863C14.1512 19.4956 14.1975 19.5163 14.2373 19.5465C14.2772 19.5768 14.3095 19.6158 14.3318 19.6606C14.354 19.7054 14.3656 19.7548 14.3656 19.8048V21.5918H16.104V18.8601C16.0878 18.791 16.0955 18.7184 16.1257 18.6542C16.1559 18.59 16.2068 18.5379 16.2704 18.5062C16.3207 18.481 16.3765 18.4687 16.4327 18.4706C16.489 18.4725 16.5439 18.4884 16.5924 18.5169C16.6402 18.5449 16.68 18.5847 16.708 18.6324C16.7361 18.6802 16.7514 18.7343 16.7526 18.7897V21.9162C16.7526 21.9589 16.7442 22.0012 16.7278 22.0406C16.7114 22.08 16.6874 22.1158 16.6572 22.146C16.6269 22.1761 16.591 22.2 16.5515 22.2162C16.512 22.2324 16.4697 22.2407 16.427 22.2405Z" fill="#56657F"/>
<path d="M20.2003 13.716C20.0652 13.7171 19.9301 13.7096 19.7959 13.6936C19.7106 13.682 19.6335 13.6371 19.5814 13.5686C19.5293 13.5002 19.5065 13.4138 19.5181 13.3286C19.5297 13.2433 19.5746 13.1662 19.6431 13.1141C19.7115 13.062 19.7979 13.0392 19.8831 13.0508C20.5901 13.1272 21.3016 12.9536 21.8939 12.5601C22.1283 12.3669 22.321 12.1282 22.4604 11.8584C22.5997 11.5886 22.6829 11.2933 22.7047 10.9904C22.7172 10.9066 22.762 10.831 22.8294 10.7798C22.8969 10.7287 22.9817 10.7059 23.0657 10.7164C23.1498 10.7269 23.2264 10.7698 23.2791 10.8361C23.3319 10.9023 23.3567 10.9865 23.3482 11.0708C23.3174 11.4599 23.2074 11.8386 23.0249 12.1836C22.8424 12.5286 22.5913 12.8326 22.287 13.0771C21.6781 13.5086 20.9464 13.7327 20.2003 13.716Z" fill="#56657F"/>
<path d="M5.67566 12.4622C5.45115 12.4622 5.23169 12.3956 5.04501 12.2709C4.85834 12.1461 4.71285 11.9688 4.62693 11.7614C4.54102 11.554 4.51854 11.3258 4.56234 11.1056C4.60614 10.8854 4.71425 10.6831 4.873 10.5244C5.03175 10.3656 5.23401 10.2575 5.45421 10.2137C5.6744 10.1699 5.90264 10.1924 6.11006 10.2783C6.31748 10.3642 6.49476 10.5097 6.61949 10.6964C6.74422 10.8831 6.81079 11.1025 6.81079 11.327C6.81079 11.6281 6.6912 11.9168 6.47832 12.1297C6.26544 12.3426 5.97672 12.4622 5.67566 12.4622ZM5.67566 10.8405C5.57944 10.8405 5.48539 10.8691 5.40538 10.9225C5.32538 10.976 5.26303 11.052 5.22621 11.1409C5.18939 11.2298 5.17975 11.3276 5.19852 11.4219C5.21729 11.5163 5.26363 11.603 5.33166 11.671C5.3997 11.7391 5.48638 11.7854 5.58075 11.8042C5.67512 11.8229 5.77294 11.8133 5.86183 11.7765C5.95072 11.7397 6.0267 11.6773 6.08016 11.5973C6.13362 11.5173 6.16215 11.4232 6.16215 11.327C6.16215 11.198 6.11089 11.0743 6.01966 10.983C5.92842 10.8918 5.80469 10.8405 5.67566 10.8405Z" fill="#56657F"/>
<path d="M14.8251 9.7248C14.753 9.72488 14.6829 9.7009 14.6259 9.65664C14.5689 9.61238 14.5282 9.55037 14.5105 9.48043C14.4927 9.41049 14.4987 9.33662 14.5276 9.2705C14.5565 9.20439 14.6067 9.1498 14.6701 9.11539C15.3684 8.73774 15.9207 8.13799 16.2397 7.41107C16.5588 6.68416 16.6262 5.8716 16.4314 5.10203C16.2367 4.33246 15.7908 3.64983 15.1644 3.16221C14.5379 2.67458 13.7668 2.40982 12.9729 2.40982C12.1791 2.40982 11.4079 2.67458 10.7815 3.16221C10.1551 3.64983 9.7092 4.33246 9.51442 5.10203C9.31964 5.8716 9.3871 6.68416 9.70612 7.41107C10.0251 8.13799 10.5775 8.73774 11.2757 9.11539C11.3514 9.15642 11.4076 9.22581 11.432 9.30828C11.4565 9.39076 11.4472 9.47957 11.4061 9.55518C11.3651 9.63078 11.2957 9.687 11.2132 9.71145C11.1308 9.7359 11.0419 9.72658 10.9663 9.68555C10.1413 9.23909 9.48871 8.53023 9.11187 7.67116C8.73502 6.81209 8.65544 5.85187 8.88572 4.94248C9.11599 4.03309 9.64297 3.22647 10.3833 2.65028C11.1235 2.07408 12.0348 1.76123 12.9729 1.76123C13.911 1.76123 14.8223 2.07408 15.5626 2.65028C16.3029 3.22647 16.8299 4.03309 17.0601 4.94248C17.2904 5.85187 17.2108 6.81209 16.834 7.67116C16.4572 8.53023 15.8046 9.23909 14.9795 9.68555C14.9321 9.71127 14.8791 9.72475 14.8251 9.7248Z" fill="#56657F"/>
<path d="M12.9729 6.30004C12.7164 6.30004 12.4656 6.22395 12.2522 6.0814C12.0389 5.93885 11.8726 5.73624 11.7744 5.49919C11.6762 5.26214 11.6505 5.0013 11.7006 4.74965C11.7506 4.498 11.8742 4.26684 12.0556 4.08541C12.2371 3.90398 12.4682 3.78043 12.7199 3.73037C12.9715 3.68032 13.2324 3.70601 13.4694 3.8042C13.7065 3.90238 13.9091 4.06866 14.0516 4.282C14.1942 4.49534 14.2702 4.74616 14.2702 5.00274C14.2702 5.08876 14.2361 5.17125 14.1752 5.23207C14.1144 5.29289 14.0319 5.32706 13.9459 5.32706C13.8599 5.32706 13.7774 5.29289 13.7166 5.23207C13.6558 5.17125 13.6216 5.08876 13.6216 5.00274C13.6216 4.87445 13.5836 4.74904 13.5123 4.64237C13.441 4.5357 13.3397 4.45256 13.2212 4.40347C13.1027 4.35437 12.9722 4.34153 12.8464 4.36656C12.7206 4.39158 12.605 4.45336 12.5143 4.54408C12.4236 4.63479 12.3618 4.75037 12.3368 4.8762C12.3117 5.00202 12.3246 5.13244 12.3737 5.25097C12.4228 5.36949 12.5059 5.4708 12.6126 5.54207C12.7193 5.61335 12.8447 5.65139 12.9729 5.65139C13.059 5.65139 13.1415 5.68556 13.2023 5.74638C13.2631 5.8072 13.2973 5.8897 13.2973 5.97571C13.2973 6.06173 13.2631 6.14422 13.2023 6.20504C13.1415 6.26587 13.059 6.30004 12.9729 6.30004Z" fill="#56657F"/>
<path d="M12.973 8.24597C12.629 8.24597 12.299 8.10929 12.0557 7.866C11.8124 7.6227 11.6757 7.29273 11.6757 6.94867C11.6757 6.86265 11.7099 6.78016 11.7707 6.71933C11.8315 6.65851 11.914 6.62434 12 6.62434C12.0861 6.62434 12.1686 6.65851 12.2294 6.71933C12.2902 6.78016 12.3244 6.86265 12.3244 6.94867C12.3244 7.07696 12.3624 7.20237 12.4337 7.30904C12.505 7.41571 12.6063 7.49885 12.7248 7.54794C12.8433 7.59704 12.9737 7.60988 13.0996 7.58485C13.2254 7.55982 13.341 7.49805 13.4317 7.40733C13.5224 7.31662 13.5842 7.20104 13.6092 7.07521C13.6342 6.94939 13.6214 6.81896 13.5723 6.70044C13.5232 6.58191 13.4401 6.48061 13.3334 6.40933C13.2267 6.33806 13.1013 6.30002 12.973 6.30002C12.887 6.30002 12.8045 6.26585 12.7437 6.20502C12.6829 6.1442 12.6487 6.06171 12.6487 5.97569C12.6487 5.88968 12.6829 5.80718 12.7437 5.74636C12.8045 5.68554 12.887 5.65137 12.973 5.65137C13.3171 5.65137 13.6471 5.78805 13.8903 6.03134C14.1336 6.27463 14.2703 6.6046 14.2703 6.94867C14.2703 7.29273 14.1336 7.6227 13.8903 7.866C13.6471 8.10929 13.3171 8.24597 12.973 8.24597Z" fill="#56657F"/>
<path d="M12.9729 8.57026C12.8869 8.57026 12.8044 8.53609 12.7436 8.47527C12.6827 8.41445 12.6486 8.33195 12.6486 8.24594V7.92161C12.6486 7.8356 12.6827 7.75311 12.7436 7.69228C12.8044 7.63146 12.8869 7.59729 12.9729 7.59729C13.0589 7.59729 13.1414 7.63146 13.2022 7.69228C13.263 7.75311 13.2972 7.8356 13.2972 7.92161V8.24594C13.2972 8.33195 13.263 8.41445 13.2022 8.47527C13.1414 8.53609 13.0589 8.57026 12.9729 8.57026Z" fill="#56657F"/>
<path d="M12.9729 4.35407C12.8869 4.35407 12.8044 4.31991 12.7436 4.25908C12.6827 4.19826 12.6486 4.11577 12.6486 4.02975V3.70543C12.6486 3.61941 12.6827 3.53692 12.7436 3.4761C12.8044 3.41527 12.8869 3.3811 12.9729 3.3811C13.0589 3.3811 13.1414 3.41527 13.2022 3.4761C13.263 3.53692 13.2972 3.61941 13.2972 3.70543V4.02975C13.2972 4.11577 13.263 4.19826 13.2022 4.25908C13.1414 4.31991 13.0589 4.35407 12.9729 4.35407Z" fill="#56657F"/>
<path d="M16.2162 9.72555H9.72972C9.6437 9.72555 9.56121 9.69138 9.50039 9.63056C9.43957 9.56973 9.4054 9.48724 9.4054 9.40123C9.4054 9.31521 9.43957 9.23272 9.50039 9.1719C9.56121 9.11107 9.6437 9.0769 9.72972 9.0769H16.2162C16.3022 9.0769 16.3847 9.11107 16.4455 9.1719C16.5064 9.23272 16.5405 9.31521 16.5405 9.40123C16.5405 9.48724 16.5064 9.56973 16.4455 9.63056C16.3847 9.69138 16.3022 9.72555 16.2162 9.72555Z" fill="#56657F"/>
</svg>
