<svg width="30" height="30" viewBox="0 0 30 30" fill="none" xmlns="http://www.w3.org/2000/svg">
<path d="M30 9.19451C30 9.07354 29.9854 8.94753 29.9561 8.81648C29.9268 8.68544 29.8926 8.56447 29.8535 8.45358C29.8145 8.34269 29.7607 8.23685 29.6924 8.13604C29.624 8.03523 29.5459 7.93947 29.458 7.84874C29.3701 7.75802 29.2773 7.67737 29.1797 7.60681C29.082 7.53624 28.9746 7.47576 28.8574 7.42536C28.7402 7.37495 28.623 7.33463 28.5059 7.30439C28.3887 7.27415 28.2617 7.25903 28.125 7.25903H24.9316C25.8301 6.35177 26.2793 5.25298 26.2793 3.96265C26.2793 3.35782 26.1719 2.80338 25.957 2.29935C25.7422 1.79532 25.3564 1.36185 24.7998 0.998945C24.2432 0.636041 23.5547 0.45459 22.7344 0.45459C22.4023 0.45459 22.0654 0.489872 21.7236 0.560437C21.3818 0.631001 21.0547 0.736848 20.7422 0.877977C20.4297 1.01911 20.1221 1.17536 19.8193 1.34673C19.5166 1.5181 19.2236 1.71467 18.9404 1.93644C18.6572 2.15822 18.3838 2.38503 18.1201 2.61689C17.8564 2.84874 17.6025 3.10076 17.3584 3.37294C17.1143 3.64511 16.8848 3.90721 16.6699 4.15923C16.4551 4.41124 16.2451 4.67334 16.04 4.94552C15.835 5.21769 15.6543 5.46467 15.498 5.68644C15.3418 5.90822 15.1953 6.14007 15.0586 6.38201C14.6484 5.73685 14.2041 5.11689 13.7256 4.52213C13.2471 3.92737 12.666 3.30237 11.9824 2.64713C11.2988 1.99189 10.5469 1.46265 9.72656 1.05943C8.90625 0.656203 8.0957 0.45459 7.29492 0.45459C6.47461 0.45459 5.78613 0.636041 5.22949 0.998945C4.67285 1.36185 4.28711 1.79532 4.07227 2.29935C3.85742 2.80338 3.75 3.35782 3.75 3.96265C3.75 5.25298 4.20898 6.36185 5.12695 7.28927H1.875C1.34766 7.28927 0.90332 7.47576 0.541992 7.84874C0.180664 8.22173 0 8.6804 0 9.22475V15.001H1.9043V27.6118C1.9043 28.136 2.08496 28.5897 2.44629 28.9727C2.80762 29.3558 3.25195 29.5473 3.7793 29.5473H26.25C26.7773 29.5473 27.2217 29.3558 27.583 28.9727C27.9443 28.5897 28.125 28.136 28.125 27.6118V15.001H30V9.19451ZM22.7344 2.39007C23.8477 2.39007 24.4043 2.91427 24.4043 3.96265C24.4043 4.64814 24.1797 5.24794 23.7305 5.76205C23.2812 6.27616 22.7197 6.65419 22.0459 6.89612C21.3721 7.13806 20.6543 7.25903 19.8926 7.25903H16.7285C17.0996 6.69451 17.4951 6.15519 17.915 5.64108C18.335 5.12697 18.8086 4.61286 19.3359 4.09874C19.8633 3.58463 20.4248 3.17132 21.0205 2.85882C21.6162 2.54632 22.1875 2.39007 22.7344 2.39007ZM7.29492 2.39007C8.34961 2.39007 9.41895 2.88403 10.5029 3.87193C11.5869 4.85983 12.5488 5.98886 13.3887 7.25903H10.2246C9.0332 7.25903 7.96875 6.95661 7.03125 6.35177C6.09375 5.74693 5.625 4.94048 5.625 3.93241C5.625 2.96467 6.12305 2.46064 7.11914 2.42032C7.17773 2.40015 7.23633 2.39007 7.29492 2.39007ZM28.125 13.0655H15.9375V9.19451H28.125V13.0655ZM1.875 9.19451H14.0625V13.0655H1.875V9.19451ZM3.7793 15.001H14.0625V27.6118H3.7793V15.001ZM26.25 27.6118H15.9375V15.001H26.25V27.6118Z" fill="#FF416E"/>
</svg>
