<svg width="20" height="20" viewBox="0 0 18 18" fill="none" xmlns="http://www.w3.org/2000/svg">
<g filter="url(#filter0_i)">
<path opacity="0.9" d="M18 5.51678C18 5.4442 17.9912 5.36859 17.9736 5.28996C17.9561 5.21134 17.9355 5.13875 17.9121 5.07222C17.8887 5.00569 17.8564 4.94218 17.8154 4.8817C17.7744 4.82121 17.7275 4.76375 17.6748 4.70932C17.6221 4.65488 17.5664 4.6065 17.5078 4.56416C17.4492 4.52182 17.3848 4.48553 17.3145 4.45529C17.2441 4.42505 17.1738 4.40085 17.1035 4.38271C17.0332 4.36456 16.957 4.35549 16.875 4.35549H14.959C15.498 3.81113 15.7676 3.15186 15.7676 2.37767C15.7676 2.01476 15.7031 1.6821 15.5742 1.37968C15.4453 1.07726 15.2139 0.817182 14.8799 0.59944C14.5459 0.381698 14.1328 0.272827 13.6406 0.272827C13.4414 0.272827 13.2393 0.293997 13.0342 0.336335C12.8291 0.378674 12.6328 0.442182 12.4453 0.526859C12.2578 0.611537 12.0732 0.705287 11.8916 0.808109C11.71 0.910932 11.5342 1.02888 11.3643 1.16194C11.1943 1.295 11.0303 1.43109 10.8721 1.57021C10.7139 1.70932 10.5615 1.86053 10.415 2.02384C10.2686 2.18714 10.1309 2.3444 10.002 2.49561C9.87305 2.64682 9.74707 2.80408 9.62402 2.96738C9.50098 3.13069 9.39258 3.27888 9.29883 3.41194C9.20508 3.545 9.11719 3.68412 9.03516 3.82928C8.78906 3.44218 8.52246 3.07021 8.23535 2.71335C7.94824 2.3565 7.59961 1.9815 7.18945 1.58835C6.7793 1.19521 6.32812 0.877666 5.83594 0.63573C5.34375 0.393795 4.85742 0.272827 4.37695 0.272827C3.88477 0.272827 3.47168 0.381698 3.1377 0.59944C2.80371 0.817182 2.57227 1.07726 2.44336 1.37968C2.31445 1.6821 2.25 2.01476 2.25 2.37767C2.25 3.15186 2.52539 3.81718 3.07617 4.37363H1.125C0.808594 4.37363 0.541992 4.48553 0.325195 4.70932C0.108398 4.93311 0 5.20831 0 5.53492V9.00065H1.14258V16.5672C1.14258 16.8817 1.25098 17.1539 1.46777 17.3837C1.68457 17.6136 1.95117 17.7285 2.26758 17.7285H15.75C16.0664 17.7285 16.333 17.6136 16.5498 17.3837C16.7666 17.1539 16.875 16.8817 16.875 16.5672V9.00065H18V5.51678ZM13.6406 1.43412C14.3086 1.43412 14.6426 1.74863 14.6426 2.37767C14.6426 2.78896 14.5078 3.14884 14.2383 3.4573C13.9688 3.76577 13.6318 3.99259 13.2275 4.13775C12.8232 4.28291 12.3926 4.35549 11.9355 4.35549H10.0371C10.2598 4.01678 10.4971 3.69319 10.749 3.38472C11.001 3.07625 11.2852 2.76779 11.6016 2.45932C11.918 2.15085 12.2549 1.90287 12.6123 1.71537C12.9697 1.52787 13.3125 1.43412 13.6406 1.43412ZM4.37695 1.43412C5.00977 1.43412 5.65137 1.73049 6.30176 2.32323C6.95215 2.91597 7.5293 3.59339 8.0332 4.35549H6.13477C5.41992 4.35549 4.78125 4.17404 4.21875 3.81113C3.65625 3.44823 3.375 2.96436 3.375 2.35952C3.375 1.77888 3.67383 1.47646 4.27148 1.45226C4.30664 1.44017 4.3418 1.43412 4.37695 1.43412ZM16.875 7.83936H9.5625V5.51678H16.875V7.83936ZM1.125 5.51678H8.4375V7.83936H1.125V5.51678ZM2.26758 9.00065H8.4375V16.5672H2.26758V9.00065ZM15.75 16.5672H9.5625V9.00065H15.75V16.5672Z" fill="#0094FF"/>
</g>
<defs>
<filter id="filter0_i" x="0" y="0" width="18" height="18" filterUnits="userSpaceOnUse" color-interpolation-filters="sRGB">
<feFlood flood-opacity="0" result="BackgroundImageFix"/>
<feBlend mode="normal" in="SourceGraphic" in2="BackgroundImageFix" result="shape"/>
<feColorMatrix in="SourceAlpha" type="matrix" values="0 0 0 0 0 0 0 0 0 0 0 0 0 0 0 0 0 0 127 0" result="hardAlpha"/>
<feOffset dy="1"/>
<feComposite in2="hardAlpha" operator="arithmetic" k2="-1" k3="1"/>
<feColorMatrix type="matrix" values="0 0 0 0 0 0 0 0 0 0 0 0 0 0 0 0 0 0 0.25 0"/>
<feBlend mode="normal" in2="shape" result="effect1_innerShadow"/>
</filter>
</defs>
</svg>
