<svg width="390" height="290" viewBox="0 0 390 290" fill="none" xmlns="http://www.w3.org/2000/svg">
<mask id="mask0" mask-type="alpha" maskUnits="userSpaceOnUse" x="56" y="0" width="317" height="244">
<rect x="56" width="317" height="244" fill="#C4C4C4"/>
</mask>
<g mask="url(#mask0)">
<circle opacity="0.3" cx="191" cy="159" r="146" fill="#E2E2E2"/>
</g>
<path opacity="0.8" d="M195 258.834C302.696 258.834 390 253.002 390 245.808C390 238.614 302.696 232.782 195 232.782C87.3045 232.782 0 238.614 0 245.808C0 253.002 87.3045 258.834 195 258.834Z" fill="#C6D5FA"/>
<path opacity="0.8" d="M202.463 249.668C275.988 249.668 335.593 247.292 335.593 244.361C335.593 241.43 275.988 239.054 202.463 239.054C128.938 239.054 69.3334 241.43 69.3334 244.361C69.3334 247.292 128.938 249.668 202.463 249.668Z" fill="#9CAED9"/>
<path d="M221.77 243.686L198.707 242.238V136.198L221.77 134.751V243.686Z" fill="#175D99"/>
<path d="M330.104 134.751H221.385V243.686H330.104V134.751Z" fill="#4DA3F8"/>
<path d="M235.396 134.751H210.889V243.686H235.396V134.751Z" fill="#217CC5"/>
<path d="M269.796 136.537L267.311 135L237.478 153.447L239.963 154.984L269.796 136.537Z" fill="#3993F3"/>
<path d="M275.334 139.973L272.849 138.436L237.211 160.472L239.697 162.009L275.334 139.973Z" fill="#3993F3"/>
<path d="M280.941 143.409L278.456 141.872L235.644 168.344L238.13 169.881L280.941 143.409Z" fill="#3993F3"/>
<path d="M286.454 146.851L283.969 145.314L193.135 201.48L195.621 203.017L286.454 146.851Z" fill="#3993F3"/>
<path d="M292.023 150.267L289.538 148.73L198.704 204.897L201.19 206.434L292.023 150.267Z" fill="#3993F3"/>
<path d="M316.62 144.908L313.627 143L230.663 195.911L233.656 197.819L316.62 144.908Z" fill="#3993F3"/>
<path d="M323.32 149.157L320.327 147.249L236.164 200.91L239.157 202.818L323.32 149.157Z" fill="#3993F3"/>
<path d="M330 153.456L327.007 151.548L237.043 208.908L240.035 210.816L330 153.456Z" fill="#3993F3"/>
<path d="M322.852 170.943L320.963 169L235.88 219.477L237.769 221.42L322.852 170.943Z" fill="#3993F3"/>
<path d="M327.073 175.313L325.184 173.37L235.911 226.334L237.8 228.277L327.073 175.313Z" fill="#3993F3"/>
<path d="M331.326 179.635L329.438 177.692L237.495 232.239L239.384 234.182L331.326 179.635Z" fill="#3993F3"/>
<path d="M328.791 188.001L326.902 186.058L236.114 239.92L238.003 241.863L328.791 188.001Z" fill="#3993F3"/>
<path d="M329.002 196.895L327.251 193.843L248.057 239.483L249.807 242.535L329.002 196.895Z" fill="#3993F3"/>
<path d="M330.296 201.762V178.701L286.096 134.462H263.081L330.296 201.762Z" fill="#E2E8FE"/>
<path d="M235.252 176.723V199.784L279.452 244.072H302.467L235.252 176.723Z" fill="url(#paint0_linear)"/>
<path d="M235.252 176.723H213.2L207.615 199.88L235.252 199.784V176.723Z" fill="url(#paint1_linear)"/>
<path d="M229.426 134.606L213.055 242.914C213.055 242.914 201.018 243.637 201.018 242.914C201.018 242.19 216.907 135.089 216.907 135.089L229.426 134.606Z" fill="#D6DEFE"/>
<path d="M302.418 167.846C302.418 167.846 306.704 201.086 306.222 212.665C305.741 224.244 304.922 225.401 304.922 225.401C304.922 225.401 313.444 223.52 317.778 221.108C322.111 218.695 323.074 210.012 322.352 204.705C321.63 199.398 303.333 166.833 303.333 166.833L302.418 167.846Z" fill="#E6E6E6"/>
<path d="M301.696 169.487C301.696 169.487 288.937 184.683 282.678 190.955C276.419 197.227 273.289 200.604 267.993 200.845C262.696 201.086 255.715 191.196 253.789 189.267C251.863 187.337 256.437 188.302 261.011 186.613C265.585 184.925 301.696 169.487 301.696 169.487Z" fill="#E6E6E6"/>
<path d="M303.381 166.833C318.307 174.07 330.344 173.346 330.344 173.346L329.863 161.768L303.381 166.833Z" fill="#E6E6E6"/>
<path d="M269.437 134.269C264.622 142.952 276.659 156.461 287.493 160.803C298.326 165.145 300.733 165.627 300.733 165.627L273.144 134.606L269.437 134.269Z" fill="#E6E6E6"/>
<path d="M303.093 166.303C303.093 166.303 324.037 170.596 332.752 166.447C341.467 162.298 347.967 157.763 347.1 155.544C346.233 153.325 335.159 141.843 332.126 134.655C329.093 127.515 318.067 151.106 313.156 155.834C308.293 160.61 303.093 166.303 303.093 166.303Z" fill="url(#paint2_linear)"/>
<path d="M302.13 166.206C308.967 167.026 330.152 143.531 332.27 138.08C334.389 132.677 326.878 129.203 321.341 140.492C315.804 151.829 302.13 166.206 302.13 166.206Z" fill="url(#paint3_radial)"/>
<path d="M303.381 166.833C310.941 154.627 301.215 124.041 293.367 120.857C285.518 117.673 288.985 123.896 280.752 127.756C272.567 131.615 269.581 133.545 278.441 147.391C287.252 161.189 303.381 166.833 303.381 166.833Z" fill="url(#paint4_linear)"/>
<path d="M303.141 167.46C290.574 144.11 273.77 129.492 273.144 134.606C272.518 139.72 275.263 143.917 281.859 152.312C288.456 160.706 303.141 167.46 303.141 167.46Z" fill="url(#paint5_radial)"/>
<path d="M304.778 167.316C327.263 180.342 324.085 213.919 324.085 213.919C324.085 213.919 309.881 224.678 304.97 225.401C306.704 220.432 311.085 214.498 308.678 194.284C306.222 174.118 302.418 167.846 302.418 167.846L304.778 167.316Z" fill="url(#paint6_radial)"/>
<path d="M300.059 164.662C300.059 164.662 285.615 164.083 272.23 174.6C258.893 185.118 253.741 184.828 253.741 184.828C253.741 184.828 264.478 199.205 270.304 197.806C276.13 196.407 295.485 178.653 298.037 173.636C300.589 168.618 301.263 166.881 301.263 166.881L300.059 164.662Z" fill="url(#paint7_radial)"/>
<path d="M306.993 166.061C306.704 168.329 304.778 169.921 302.611 169.68C300.445 169.438 298.904 167.412 299.193 165.145C299.482 162.877 301.407 161.285 303.574 161.526C305.741 161.768 307.282 163.794 306.993 166.061Z" fill="url(#paint8_radial)"/>
<path d="M129.711 243.686H78.4815L36.8334 92.8752L98.7519 93.8401L129.711 243.686Z" fill="#47C1E7"/>
<path d="M98.7519 93.8401L36.8334 92.8752L140.593 68.6567L222.107 77.9196L98.7519 93.8401Z" fill="#ABE3F4"/>
<path d="M222.107 77.9194L208.337 243.686H129.711L98.752 93.8399L222.107 77.9194Z" fill="#88D7EF"/>
<path d="M53.3481 93.1165L78.1926 93.4542L108.863 243.686H91.0482L53.3481 93.1165Z" fill="#5D69E6"/>
<path d="M77.7593 93.406L78.1926 93.4543L108.863 243.686H108.044L77.7593 93.406Z" fill="#3A45D2"/>
<path d="M140.448 88.2919L181.904 83.2263L183.926 243.686H160.141L140.448 88.2919Z" fill="url(#paint9_linear)"/>
<path d="M140.448 88.3402L141.17 88.292L160.767 243.686H160.141L140.448 88.3402Z" fill="#3A45D2"/>
<path d="M181.904 83.2265L115.652 74.832L92.3481 79.8012L140.737 88.3403L181.904 83.2265Z" fill="#5D69E6"/>
<path d="M141.363 88.3402L93.4075 79.7046L92.252 79.8011L140.448 88.5332L141.363 88.3402Z" fill="#0614C1"/>
<path d="M78.1926 93.4543L191.485 74.3979L173.815 72.4199L53.3481 93.1166L78.1926 93.4543Z" fill="#8E9AFD"/>
<path d="M78.2408 93.5989L191.485 74.3978L189.8 74.2048L77.8075 93.4059L78.2408 93.5989Z" fill="#0614C1"/>
<g opacity="0.5">
<path opacity="0.5" d="M156.626 84.6255L118.011 80.2354L118.3 82.6958C109.778 84.3843 93.9853 90.0289 83.5853 87.7614C75.5927 86.0246 65.626 88.2921 65.626 88.2921C46.3668 95.1427 87.5334 93.4059 98.0297 93.6954C99.8112 93.1647 115.026 88.9675 121.045 85.7834C135.537 90.8008 156.626 84.6255 156.626 84.6255Z" fill="#999999"/>
</g>
<path d="M114.159 83.1298L136.982 76.7134C129.615 73.2398 105.252 68.5602 105.974 46.9469C106.07 44.2935 107.082 42.0742 109.682 41.3506C85.0779 48.2495 84.9816 47.5741 83.7297 49.6485C80.1668 55.4861 87.8223 71.1653 96.7779 76.2792C98.8482 77.4853 110.211 81.2966 114.159 83.1298Z" fill="url(#paint10_linear)"/>
<path d="M105.396 58.622C109.97 65.9069 114.304 73.9154 115.844 82.0203L133.756 80.766C130.289 62.3368 128.026 38.2631 109.344 40.1446C108.959 40.1929 110.404 39.8069 86.0408 46.6576C90.4223 45.4032 98.6074 47.8154 105.396 58.622Z" fill="url(#paint11_linear)"/>
<path d="M102.893 55.052C111.656 66.2446 116.711 82.6958 116.904 83.6124C116.759 83.5641 112.282 82.937 98.6075 77.6784C95.1889 76.3758 91.8667 73.5294 89.1704 70.0558C81.0334 59.7317 77.9519 43.8594 90.9519 46.7058C95.7186 47.7189 99.6667 50.903 102.893 55.052ZM98.6556 77.003C111.559 81.9239 115.844 82.5028 115.989 82.551C115.844 81.6826 110.982 66.2446 102.7 55.6792C99.6667 51.8196 95.9593 48.7803 91.4334 47.8154C79.2519 45.162 82.1408 60.0694 89.7964 69.8146C92.3001 73.0952 95.3815 75.7486 98.6556 77.003Z" fill="#3A45D2"/>
<path d="M177.522 51.9162L157.204 43.1841C170.059 48.8286 159.708 70.4901 143.963 71.4068C125.956 72.4681 122.489 72.8541 122.296 72.9023L134.189 81.4415C134.382 81.4415 142.374 79.6082 160.382 78.5951C176.27 77.6785 190.33 57.5608 177.522 51.9162Z" fill="url(#paint12_linear)"/>
<path d="M178.63 51.0961L179.545 51.289L178.63 50.9513C162.163 43.763 157.637 41.5438 153.689 40.9648C135.585 38.4079 126.1 56.4511 120.948 73.6742L133.274 81.6345C140.207 61.7097 162.693 44.1007 178.63 51.0961Z" fill="url(#paint13_linear)"/>
<path d="M171.937 49.504C194.085 50.9031 181.904 73.9155 164.956 78.4986C163.463 78.8846 161.922 79.1741 160.333 79.2705C141.219 80.3801 128.796 82.2617 132.889 81.731C133.274 80.4766 142.519 56.017 163.559 50.3242C166.159 49.6488 168.904 49.3111 171.937 49.504ZM164.667 77.8715C180.604 73.5295 192.063 51.9162 171.215 50.5654C168.422 50.3724 165.774 50.6619 163.367 51.3373C145.793 56.1135 134.574 79.753 134.237 80.9591C134.43 80.9591 142.278 79.6565 160.333 78.5951C161.778 78.4986 163.222 78.2574 164.667 77.8715Z" fill="#6372EF"/>
<path d="M150.27 57.2712L129.47 59.8282C115.652 61.5167 117.096 82.3581 116.904 83.5159L132.937 81.6827C133.178 80.5248 136.452 58.9598 150.27 57.2712Z" fill="#3A45D2"/>
<path d="M154.17 85.3491C150.8 85.5903 138.715 82.2133 132.793 81.5378L114.881 83.6606C122.537 86.8929 129.567 88.0508 132.359 88.0508C133.467 88.099 131.396 88.1473 154.17 85.3491Z" fill="#6372EF"/>
<path d="M160.863 58.4773C153.833 54.859 149.644 56.3545 129.518 58.815C134.044 58.2843 139.533 60.1176 142.952 62.8675C153.4 71.1654 145.985 87.1824 134.285 88.5815L155.085 86.0245C168.133 84.4807 175.163 65.8103 160.863 58.4773Z" fill="url(#paint14_linear)"/>
<path d="M137.126 59.7799C155.759 66.1963 147.478 87.6166 133.659 88.678C132.456 88.7745 131.156 88.7262 129.856 88.4367C113.919 85.3491 116.759 83.1782 116.567 83.1782C116.759 81.9238 114.978 59.9246 130.193 58.7667C132.311 58.622 134.574 58.9115 137.126 59.7799ZM133.37 87.9061C146.37 86.8929 154.17 66.727 136.644 60.6965C134.285 59.8764 132.119 59.5869 130.144 59.7799C115.796 60.8895 117.867 81.4896 117.674 82.6475C117.819 82.6475 114.833 84.7702 129.807 87.7131C131.011 87.9061 132.215 88.0026 133.37 87.9061Z" fill="url(#paint15_linear)"/>
<path d="M103.759 63.4946C103.47 63.3981 103.182 63.3016 102.845 63.2051L86.3297 58.429C86.6186 58.5254 86.9556 58.6219 87.2445 58.7184C95.6704 61.6613 101.641 70.9724 103.952 79.5115L116.663 83.2263C116.47 82.4544 116.037 67.7883 103.759 63.4946Z" fill="#3A45D2"/>
<path d="M103.952 79.5598C103.759 79.6081 100.293 80.2835 82.237 85.0114C78.5296 85.9763 74.9667 85.8798 71.837 84.9631L88.3519 89.7393C91.4815 90.6559 95.0444 90.7524 98.7519 89.7875C116.807 85.0596 116.759 83.2746 116.952 83.2264L103.952 79.5598Z" fill="#3A45D2"/>
<path d="M103.085 62.3368L86.5704 57.5606C66.0593 51.6266 45.3556 78.2573 71.163 85.7351L87.6778 90.5112C74.8704 86.7965 69.1889 70.9242 88.4963 63.4464C93.263 61.6131 98.2222 60.9377 103.085 62.3368Z" fill="url(#paint16_linear)"/>
<path d="M104.048 62.6263C117.096 67.1612 117 82.4546 117.241 83.3229C117.048 83.3712 117.915 85.4939 98.7038 90.5595C94.3705 91.7174 90.2297 91.4279 86.7149 90.1736C74.6297 85.9764 69.7186 70.7313 88.4964 63.4464C94.6594 61.0825 99.7631 61.1307 104.048 62.6263ZM98.752 89.7876C116.808 85.0597 115.748 82.937 115.941 82.937C115.7 82.1168 116.037 67.7884 103.808 63.5429C99.8112 62.1439 94.9483 62.0956 89.1705 64.3148C71.452 71.1655 76.1223 85.5422 87.4853 89.4982C90.8075 90.6078 94.7075 90.849 98.752 89.7876Z" fill="#8593FF"/>
<defs>
<linearGradient id="paint0_linear" x1="279.609" y1="165.008" x2="256.652" y2="261.476" gradientUnits="userSpaceOnUse">
<stop offset="0.1647" stop-color="#EBEFFF"/>
<stop offset="0.4741" stop-color="#D8E0FF"/>
<stop offset="1" stop-color="#AFC0FF"/>
</linearGradient>
<linearGradient id="paint1_linear" x1="298.429" y1="155.057" x2="201.587" y2="198.213" gradientUnits="userSpaceOnUse">
<stop offset="0.1647" stop-color="#EBEFFF"/>
<stop offset="0.4741" stop-color="#D8E0FF"/>
<stop offset="1" stop-color="#AFC0FF"/>
</linearGradient>
<linearGradient id="paint2_linear" x1="341.349" y1="143.574" x2="306.757" y2="168.019" gradientUnits="userSpaceOnUse">
<stop stop-color="#C8D4FF"/>
<stop offset="0.0755832" stop-color="#E3E9FF"/>
<stop offset="0.1533" stop-color="#F7F9FF"/>
<stop offset="0.2048" stop-color="white"/>
<stop offset="0.4344" stop-color="#ECF0FF"/>
<stop offset="0.8985" stop-color="#BBC9FF"/>
<stop offset="1" stop-color="#AFC0FF"/>
</linearGradient>
<radialGradient id="paint3_radial" cx="0" cy="0" r="1" gradientUnits="userSpaceOnUse" gradientTransform="translate(325.484 174.971) rotate(6.79583) scale(39.9863 40.0636)">
<stop offset="0.1647" stop-color="#EBEFFF"/>
<stop offset="0.4741" stop-color="#D8E0FF"/>
<stop offset="1" stop-color="#AFC0FF"/>
</radialGradient>
<linearGradient id="paint4_linear" x1="281.07" y1="125.026" x2="303.546" y2="160.846" gradientUnits="userSpaceOnUse">
<stop stop-color="#C8D4FF"/>
<stop offset="0.0755832" stop-color="#E3E9FF"/>
<stop offset="0.1533" stop-color="#F7F9FF"/>
<stop offset="0.2048" stop-color="white"/>
<stop offset="0.5456" stop-color="#D6DEFF"/>
<stop offset="0.8337" stop-color="#BAC8FF"/>
<stop offset="1" stop-color="#AFC0FF"/>
</linearGradient>
<radialGradient id="paint5_radial" cx="0" cy="0" r="1" gradientUnits="userSpaceOnUse" gradientTransform="translate(307.038 145.441) rotate(6.79585) scale(32.7551 32.8185)">
<stop offset="0.1647" stop-color="#EBEFFF"/>
<stop offset="0.4741" stop-color="#D8E0FF"/>
<stop offset="1" stop-color="#AFC0FF"/>
</radialGradient>
<radialGradient id="paint6_radial" cx="0" cy="0" r="1" gradientUnits="userSpaceOnUse" gradientTransform="translate(312.507 197.279) rotate(6.79583) scale(22.4619 22.5053)">
<stop offset="0.1647" stop-color="#EBEFFF"/>
<stop offset="0.4741" stop-color="#D8E0FF"/>
<stop offset="1" stop-color="#AFC0FF"/>
</radialGradient>
<radialGradient id="paint7_radial" cx="0" cy="0" r="1" gradientUnits="userSpaceOnUse" gradientTransform="translate(276.984 180.384) rotate(6.79584) scale(20.5214 20.561)">
<stop offset="0.1647" stop-color="#EBEFFF"/>
<stop offset="0.4741" stop-color="#D8E0FF"/>
<stop offset="1" stop-color="#AFC0FF"/>
</radialGradient>
<radialGradient id="paint8_radial" cx="0" cy="0" r="1" gradientUnits="userSpaceOnUse" gradientTransform="translate(303.112 165.593) rotate(6.79587) scale(4.00785 4.01562)">
<stop offset="0.1647" stop-color="#EBEFFF"/>
<stop offset="0.4741" stop-color="#D8E0FF"/>
<stop offset="1" stop-color="#AFC0FF"/>
</radialGradient>
<linearGradient id="paint9_linear" x1="186.192" y1="3.04372" x2="139.549" y2="318.242" gradientUnits="userSpaceOnUse">
<stop offset="0.0196078" stop-color="#384BE5"/>
<stop offset="0.2883" stop-color="#8F9BFF"/>
<stop offset="0.3994" stop-color="#8A96FD"/>
<stop offset="0.5232" stop-color="#7D89F7"/>
<stop offset="0.653" stop-color="#6773ED"/>
<stop offset="0.7872" stop-color="#4855DF"/>
<stop offset="0.9232" stop-color="#202DCD"/>
<stop offset="1" stop-color="#0614C1"/>
</linearGradient>
<linearGradient id="paint10_linear" x1="128.225" y1="82.2033" x2="90.1893" y2="47.3274" gradientUnits="userSpaceOnUse">
<stop offset="0.0196078" stop-color="#6372EF"/>
<stop offset="0.3938" stop-color="#8593FF"/>
<stop offset="1" stop-color="#3A45D2"/>
</linearGradient>
<linearGradient id="paint11_linear" x1="89.7538" y1="23.2709" x2="130.038" y2="84.6998" gradientUnits="userSpaceOnUse">
<stop offset="0.0196078" stop-color="#6372EF"/>
<stop offset="0.3938" stop-color="#8593FF"/>
<stop offset="1" stop-color="#3A45D2"/>
</linearGradient>
<linearGradient id="paint12_linear" x1="125.184" y1="58.2068" x2="180.693" y2="69.2561" gradientUnits="userSpaceOnUse">
<stop offset="0.0196078" stop-color="#6372EF"/>
<stop offset="0.3938" stop-color="#8593FF"/>
<stop offset="1" stop-color="#3A45D2"/>
</linearGradient>
<linearGradient id="paint13_linear" x1="185.68" y1="31.3884" x2="125.377" y2="69.5018" gradientUnits="userSpaceOnUse">
<stop offset="0.0196078" stop-color="#6372EF"/>
<stop offset="0.3938" stop-color="#8593FF"/>
<stop offset="1" stop-color="#3A45D2"/>
</linearGradient>
<linearGradient id="paint14_linear" x1="146.649" y1="50.1434" x2="153.285" y2="89.2504" gradientUnits="userSpaceOnUse">
<stop offset="0.0196078" stop-color="#6372EF"/>
<stop offset="0.3938" stop-color="#A9B3FF"/>
<stop offset="1" stop-color="#3A45D2"/>
</linearGradient>
<linearGradient id="paint15_linear" x1="117.814" y1="70.6152" x2="147.38" y2="77.0603" gradientUnits="userSpaceOnUse">
<stop offset="0.0196078" stop-color="#6372EF"/>
<stop offset="0.3938" stop-color="#8593FF"/>
<stop offset="1" stop-color="#3A45D2"/>
</linearGradient>
<linearGradient id="paint16_linear" x1="86.5535" y1="49.8901" x2="75.0314" y2="86.3839" gradientUnits="userSpaceOnUse">
<stop offset="0.0196078" stop-color="#6372EF"/>
<stop offset="0.5137" stop-color="#9FAAFF"/>
<stop offset="1" stop-color="#3A45D2"/>
</linearGradient>
</defs>
</svg>
