<svg xmlns="http://www.w3.org/2000/svg" viewBox="0 0 78.19 69.06"><defs><style>.cls-1{fill:#fff;}</style></defs><g id="Слой_2" data-name="Слой 2"><g id="sdfdsf"><g id="fgh"><path id="_4" data-name="4" class="cls-1" d="M8,34.31a2.69,2.69,0,0,1,1.17,3.63l-3.5,6.84a2.7,2.7,0,0,0,1.17,3.63l6.72,3.44a2.7,2.7,0,0,1-2.46,4.8L4.4,53.21A8.1,8.1,0,0,1,.89,42.32l3.5-6.84A2.7,2.7,0,0,1,8,34.31Zm51.62-7.67-47,15.17a2.7,2.7,0,1,0,1.66,5.13l47-15.17A2.69,2.69,0,0,0,63,28.38a2.69,2.69,0,0,0-3.39-1.74ZM32.08,15.73A8.09,8.09,0,1,0,43,12.22,8.1,8.1,0,0,0,32.08,15.73Zm4.8,2.46a2.69,2.69,0,1,1,1.17,3.63A2.69,2.69,0,0,1,36.88,18.19ZM40.83,46a8.09,8.09,0,1,0,10.89-3.51A8.1,8.1,0,0,0,40.83,46Zm4.8,2.46a2.7,2.7,0,1,1,1.17,3.63A2.7,2.7,0,0,1,45.63,48.42ZM33.05,1.69A34.52,34.52,0,0,0,10,27a2.7,2.7,0,0,0,5.26,1.18,29.71,29.71,0,0,1,2.5-6.9,29.08,29.08,0,1,1,6.49,35,2.69,2.69,0,0,0-3.59,4A34.52,34.52,0,1,0,59.38,3.81,34.25,34.25,0,0,0,33.05,1.69Z"/></g></g></g></svg>