<svg width="342" height="86" viewBox="0 0 342 86" fill="none" xmlns="http://www.w3.org/2000/svg">
<path d="M10.7273 38.9733C-3.95483 31.6219 -14 72.9911 -14 72.9911V90H343V17.3369C343 17.3369 328.5 51.7299 316.727 51.7299C291.519 51.7299 279.548 19.7757 261.5 33.8456C236.955 52.9806 235.5 -6.67565 224 7.08158C212.5 20.8388 193.727 69.9895 181.5 59.3589C169.273 48.7284 166.5 26.2166 154.455 26.2166C142.409 26.2166 142.636 11.3338 137 11.3338C131.364 11.3338 125.091 38.9733 125.091 38.9733C125.091 38.9733 127.773 14.3354 112 14.3354C99.036 14.3354 106.322 51.7299 92.6363 51.7299C78.5 51.7299 90.2727 87.6238 75.6363 81.4955C61 75.3673 70 57.8581 62.5 23.3401C55 -11.178 42.3387 54.8013 10.7273 38.9733Z" fill="url(#paint0_linear)"/>
<defs>
<linearGradient id="paint0_linear" x1="164" y1="-78.2131" x2="155.491" y2="40.3484" gradientUnits="userSpaceOnUse">
<stop stop-color="#FF416E"/>
<stop offset="1" stop-color="#FF416E" stop-opacity="0"/>
</linearGradient>
</defs>
</svg>
