<svg width="15" height="13" viewBox="0 0 15 13" fill="none" xmlns="http://www.w3.org/2000/svg">
<path fill-rule="evenodd" clip-rule="evenodd" d="M1.90299 6.29698C1.90299 9.34098 4.10999 11.415 6.58899 11.844C6.65643 11.8557 6.7209 11.8805 6.77873 11.9171C6.83655 11.9537 6.88661 12.0014 6.92602 12.0573C6.96544 12.1133 6.99346 12.1764 7.00846 12.2432C7.02347 12.31 7.02518 12.379 7.01349 12.4465C7.0018 12.5139 6.97695 12.5784 6.94035 12.6362C6.90374 12.694 6.85611 12.7441 6.80016 12.7835C6.74421 12.8229 6.68105 12.8509 6.61427 12.866C6.5475 12.881 6.47843 12.8827 6.41099 12.871C3.49999 12.367 0.860992 9.91298 0.860992 6.29698C0.860992 4.75998 1.55999 3.55198 2.37599 2.63398C2.96099 1.97598 3.62999 1.44098 4.16799 1.03198H2.53199C2.39938 1.03198 2.27221 0.979304 2.17844 0.885536C2.08467 0.791768 2.03199 0.664591 2.03199 0.531982C2.03199 0.399374 2.08467 0.272197 2.17844 0.178429C2.27221 0.0846609 2.39938 0.0319824 2.53199 0.0319824H5.53199C5.6646 0.0319824 5.79178 0.0846609 5.88555 0.178429C5.97931 0.272197 6.03199 0.399374 6.03199 0.531982V3.53198C6.03199 3.66459 5.97931 3.79177 5.88555 3.88554C5.79178 3.9793 5.6646 4.03198 5.53199 4.03198C5.39938 4.03198 5.27221 3.9793 5.17844 3.88554C5.08467 3.79177 5.03199 3.66459 5.03199 3.53198V1.68598L5.03099 1.68798C4.45899 2.11798 3.76099 2.64498 3.15599 3.32598C2.44099 4.12998 1.90299 5.10198 1.90299 6.29598V6.29698ZM13.011 6.70298C13.011 3.69098 10.851 1.62998 8.40399 1.16998C8.33579 1.15841 8.27058 1.13337 8.21216 1.09633C8.15373 1.05929 8.10327 1.01098 8.06372 0.954227C8.02416 0.897475 7.99631 0.833414 7.98177 0.765782C7.96724 0.69815 7.96632 0.628301 7.97907 0.56031C7.99182 0.492318 8.01798 0.427547 8.05603 0.369773C8.09407 0.312 8.14324 0.262382 8.20067 0.223814C8.2581 0.185246 8.32263 0.1585 8.3905 0.145137C8.45838 0.131774 8.52823 0.132062 8.59599 0.145983C11.47 0.685983 14.053 3.12598 14.053 6.70298C14.053 8.23998 13.354 9.44698 12.538 10.366C11.953 11.024 11.284 11.559 10.746 11.968H12.382C12.5146 11.968 12.6418 12.0207 12.7355 12.1144C12.8293 12.2082 12.882 12.3354 12.882 12.468C12.882 12.6006 12.8293 12.7278 12.7355 12.8215C12.6418 12.9153 12.5146 12.968 12.382 12.968H9.38199C9.24938 12.968 9.12221 12.9153 9.02844 12.8215C8.93467 12.7278 8.88199 12.6006 8.88199 12.468V9.46798C8.88199 9.33537 8.93467 9.2082 9.02844 9.11443C9.12221 9.02066 9.24938 8.96798 9.38199 8.96798C9.5146 8.96798 9.64178 9.02066 9.73555 9.11443C9.82931 9.2082 9.88199 9.33537 9.88199 9.46798V11.313H9.88399C10.455 10.881 11.154 10.355 11.758 9.67298C12.473 8.86998 13.011 7.89798 13.011 6.70298Z" fill="#FF416E"/>
</svg>
