<svg width="14" height="14" viewBox="0 0 14 14" fill="none" xmlns="http://www.w3.org/2000/svg">
<path d="M8.32416 4.84925C8.38934 4.96323 8.54272 5.05413 8.675 5.0546L13.6346 5.08191C13.763 5.08286 13.88 5.01692 13.9471 4.90953C14.0147 4.80215 14.0166 4.66603 13.9581 4.55394L11.6964 0.206755C11.636 0.0899514 11.5004 0.00470319 11.3681 0.000464333C11.2348 -0.00518748 11.0776 0.040498 11.0077 0.15165L10.3141 1.25705C9.31244 0.700818 8.16312 0.374426 6.93233 0.374426C3.11006 0.373484 0 3.43017 0 7.18674C0 10.9438 3.11006 14 6.93329 14C10.756 14 13.8661 10.9438 13.8661 7.18674C13.8661 6.77557 13.823 6.37429 13.7515 5.98291C13.7132 5.9862 13.6768 5.99656 13.638 5.99656H13.6279L11.2995 5.98997C11.4079 6.37147 11.4697 6.77133 11.4697 7.18627C11.4697 9.64434 9.43466 11.6446 6.93329 11.6446C4.43144 11.6451 2.39641 9.64434 2.39641 7.18674C2.39641 4.7282 4.43144 2.72841 6.93329 2.72841C7.70253 2.72841 8.42385 2.92386 9.0589 3.25826L8.30164 4.46539C8.23166 4.57655 8.25994 4.7348 8.32416 4.84925Z" fill="#0094FF"/>
</svg>
