<svg width="30" height="30" viewBox="0 0 30 30" fill="none" xmlns="http://www.w3.org/2000/svg">
<path d="M14.9531 0.9375C8.85937 0.9375 3.65625 4.875 1.73438 10.3125H28.2656C26.2969 4.875 21.0938 0.9375 14.9531 0.9375Z" fill="#F9F9F9"/>
<path d="M14.9531 29.0625C21.0938 29.0625 26.2969 25.125 28.2188 19.6875H1.73438C3.65625 25.1719 8.85937 29.0625 14.9531 29.0625Z" fill="#ED4C5C"/>
<path d="M1.73438 10.3125C1.21875 11.7656 0.9375 13.3594 0.9375 15C0.9375 16.6406 1.21875 18.2344 1.73438 19.6875H28.2656C28.7812 18.2344 29.0625 16.6406 29.0625 15C29.0625 13.3594 28.7812 11.7656 28.2656 10.3125H1.73438Z" fill="#428BC1"/>
</svg>
