<svg width="27" height="45" viewBox="0 0 27 45" fill="none" xmlns="http://www.w3.org/2000/svg">
<rect x="0.5" y="0.5" width="26" height="44" rx="13" stroke="#0E0D3D"/>
 
<rect x="12" y="12" width="3" height="5" rx="1.5" fill="#FF416E"/>
<g class="scroll">  
<g opacity="0.7">
<path d="M10.7071 26.2428C10.3166 25.8522 10.3166 25.2191 10.7071 24.8285C11.0976 24.438 11.7308 24.438 12.1213 24.8285L14.2426 26.9499C14.6332 27.3404 14.6332 27.9735 14.2426 28.3641C13.8521 28.7546 13.219 28.7546 12.8284 28.3641L10.7071 26.2428Z" fill="#FF416E"/>
<path d="M14.9497 24.8285C15.3403 24.438 15.9734 24.438 16.364 24.8285C16.7545 25.2191 16.7545 25.8522 16.364 26.2428L14.2426 28.3641C13.8521 28.7546 13.219 28.7546 12.8284 28.3641C12.4379 27.9735 12.4379 27.3404 12.8284 26.9499L14.9497 24.8285Z" fill="#FF416E"/>
</g>
<g opacity="0.4">
<path d="M10.7071 31.2428C10.3166 30.8522 10.3166 30.2191 10.7071 29.8285C11.0976 29.438 11.7308 29.438 12.1213 29.8285L14.2426 31.9499C14.6332 32.3404 14.6332 32.9735 14.2426 33.3641C13.8521 33.7546 13.219 33.7546 12.8284 33.3641L10.7071 31.2428Z" fill="#FF416E"/>
<path d="M14.9497 29.8285C15.3403 29.438 15.9734 29.438 16.364 29.8285C16.7545 30.2191 16.7545 30.8522 16.364 31.2428L14.2426 33.3641C13.8521 33.7546 13.219 33.7546 12.8284 33.3641C12.4379 32.9735 12.4379 32.3404 12.8284 31.9499L14.9497 29.8285Z" fill="#FF416E"/>
</g>
<g opacity="0.1">
<path d="M10.7071 36.2428C10.3166 35.8522 10.3166 35.2191 10.7071 34.8285C11.0976 34.438 11.7308 34.438 12.1213 34.8285L14.2426 36.9499C14.6332 37.3404 14.6332 37.9735 14.2426 38.3641C13.8521 38.7546 13.219 38.7546 12.8284 38.3641L10.7071 36.2428Z" fill="#FF416E"/>
<path d="M14.9497 34.8285C15.3403 34.438 15.9734 34.438 16.364 34.8285C16.7545 35.2191 16.7545 35.8522 16.364 36.2428L14.2426 38.3641C13.8521 38.7546 13.219 38.7546 12.8284 38.3641C12.4379 37.9735 12.4379 37.3404 12.8284 36.9499L14.9497 34.8285Z" fill="#FF416E"/>
</g>
</g>
</svg>
