<svg fill="none" height="673" viewBox="0 0 853 673" width="853" xmlns="http://www.w3.org/2000/svg" xmlns:xlink="http://www.w3.org/1999/xlink"><linearGradient id="a"><stop offset="0" stop-color="#31d1d6"/><stop offset=".3733" stop-color="#32ced8"/><stop offset=".6175" stop-color="#36c6df"/><stop offset=".824" stop-color="#3cb7eb"/><stop offset="1" stop-color="#45a3fa"/></linearGradient><linearGradient id="b" gradientUnits="userSpaceOnUse" x1="411.711" x2="438.539" xlink:href="#a" y1="570.812" y2="166.131"/><linearGradient id="c" gradientUnits="userSpaceOnUse" x1="433.483" x2="460.311" xlink:href="#a" y1="570.812" y2="166.131"/><linearGradient id="d"><stop offset="0" stop-color="#f9e6d9"/><stop offset=".121" stop-color="#fcf1ea"/><stop offset=".2698" stop-color="#fef9f6"/><stop offset=".4751" stop-color="#fffefd"/><stop offset="1" stop-color="#fff"/></linearGradient><linearGradient id="e" gradientUnits="userSpaceOnUse" x1="164.753" x2="164.753" xlink:href="#d" y1="256.928" y2="186.353"/><linearGradient id="f" gradientUnits="userSpaceOnUse" x1="648.098" x2="652.569" xlink:href="#d" y1="306.469" y2="237.682"/><linearGradient id="g"><stop offset="0" stop-color="#8aebd6"/><stop offset=".4615" stop-color="#89e9d7"/><stop offset=".6276" stop-color="#84e2da"/><stop offset=".7461" stop-color="#7dd7de"/><stop offset=".8419" stop-color="#72c6e5"/><stop offset=".9229" stop-color="#64b0ee"/><stop offset=".9944" stop-color="#5395f9"/><stop offset="1" stop-color="#5193fa"/></linearGradient><linearGradient id="h" gradientUnits="userSpaceOnUse" x1="442.464" x2="444.252" xlink:href="#g" y1="677.528" y2="554.246"/><linearGradient id="i" gradientUnits="userSpaceOnUse" x1="731.895" x2="731.895" xlink:href="#g" y1="669.616" y2="561.074"/><linearGradient id="j" gradientUnits="userSpaceOnUse" x1="197.407" x2="197.407" xlink:href="#g" y1="669.616" y2="561.074"/><linearGradient id="k" gradientUnits="userSpaceOnUse" x1="407.499" x2="460.456" xlink:href="#a" y1="475.686" y2="462.015"/><linearGradient id="l" gradientUnits="userSpaceOnUse" x1="302.396" x2="420.276" xlink:href="#a" y1="425.342" y2="425.342"/><linearGradient id="m" gradientUnits="userSpaceOnUse" x1="220.324" x2="306.99" y1="190.663" y2="190.663"><stop offset="0" stop-color="#51adc6"/><stop offset=".0060817" stop-color="#55afc4"/><stop offset=".066315" stop-color="#74bfb5"/><stop offset=".1333" stop-color="#8fcda7"/><stop offset=".2102" stop-color="#a5d89d"/><stop offset=".3001" stop-color="#b6e094"/><stop offset=".4112" stop-color="#c1e78e"/><stop offset=".5672" stop-color="#c8ea8b"/><stop offset="1" stop-color="#caeb8a"/></linearGradient><linearGradient id="n" gradientUnits="userSpaceOnUse" x1="225.143" x2="211.118" xlink:href="#g" y1="180.635" y2="180.635"/><linearGradient id="o" gradientUnits="userSpaceOnUse" x1="227.709" x2="211.044" xlink:href="#a" y1="189.036" y2="189.036"/><linearGradient id="p" gradientUnits="userSpaceOnUse" x1="227.739" x2="212.417" xlink:href="#g" y1="198.721" y2="198.721"/><linearGradient id="q" gradientUnits="userSpaceOnUse" x1="306.989" x2="357.953" xlink:href="#a" y1="189.82" y2="189.82"/><linearGradient id="r"><stop offset="0" stop-color="#f7be86"/><stop offset=".3293" stop-color="#f7bc83"/><stop offset=".5448" stop-color="#f7b67b"/><stop offset=".7276" stop-color="#f7ac6c"/><stop offset=".8912" stop-color="#f79e57"/><stop offset="1" stop-color="#f79244"/></linearGradient><linearGradient id="s" gradientUnits="userSpaceOnUse" x1="284.699" x2="309.004" xlink:href="#r" y1="205.779" y2="205.779"/><linearGradient id="t"><stop offset="0" stop-color="#7b6ed6"/><stop offset=".4804" stop-color="#796dd5"/><stop offset=".6535" stop-color="#7268d0"/><stop offset=".7768" stop-color="#6760c9"/><stop offset=".8765" stop-color="#5655be"/><stop offset=".961" stop-color="#4047b0"/><stop offset="1" stop-color="#333ea8"/></linearGradient><linearGradient id="u" gradientUnits="userSpaceOnUse" x1="428.253" x2="427.447" xlink:href="#t" y1="224.375" y2="253.64"/><linearGradient id="v" gradientUnits="userSpaceOnUse" x1="447.956" x2="445.806" xlink:href="#t" y1="224.76" y2="292.687"/><linearGradient id="w" gradientUnits="userSpaceOnUse" x1="465.846" x2="465.039" xlink:href="#t" y1="225.41" y2="254.675"/><linearGradient id="x" gradientUnits="userSpaceOnUse" x1="292.906" x2="488.169" xlink:href="#t" y1="287.102" y2="287.102"/><linearGradient id="y" gradientUnits="userSpaceOnUse" x1="377.447" x2="412.782" xlink:href="#r" y1="204.582" y2="204.582"/><linearGradient id="z" gradientUnits="userSpaceOnUse" x1="396.311" x2="488.169" y1="273.207" y2="273.207"><stop offset="0" stop-color="#3c0887"/><stop offset=".3227" stop-color="#3f0987"/><stop offset=".5338" stop-color="#470e87"/><stop offset=".7129" stop-color="#561588"/><stop offset=".8732" stop-color="#6b1f89"/><stop offset="1" stop-color="#822a8a"/></linearGradient><linearGradient id="A" gradientUnits="userSpaceOnUse" x1="418.063" x2="464.493" xlink:href="#r" y1="212.124" y2="212.124"/><clipPath id="B"><path d="m0 0h853v673h-853z"/></clipPath><g clip-path="url(#B)"><path d="m107.721 547.61h-85.217c-22.834903-23.687-28.95731-61.453-15.22326-91.434 12.90666-28.491 40.87116-47.374 57.74916-73.876 36.0721-56.318 18.6982-140.464 67.5121-186.015 24.489-22.859 59.735-29.319 92.994-31.969 33.26-2.65 67.678-2.65 98.621-15.57 38.058-16.068 66.684-50.3552 105.735-63.2753 44.015-14.5764 96.47 3.6442 122.283 42.0733 16.051 24.183 22.173 54.496 41.202 76.36 30.777 35.447 84.886 38.098 123.11 65.097 26.31 18.552 44.015 48.699 47.49 80.667 4.137 38.595-10.59 82.49 12.576 113.63 11.252 15.239 29.619 23.687 41.698 38.263 12.08 14.411 15.555 27.662 11.749 46.049z" fill="url(#b)" opacity=".37"/><path d="m129.398 547.61h-85.2172c-22.8349-23.687-28.9574-61.453-15.2233-91.434 12.9067-28.491 40.8712-47.374 57.7492-73.876 36.0723-56.318 18.6983-140.464 67.5123-186.015 24.489-22.859 59.734-29.319 92.994-31.969s67.677-2.65 98.62-15.57c38.059-16.068 66.685-50.3552 105.736-63.2753 44.015-14.5764 96.469 3.6442 122.283 42.0733 16.05 24.183 22.173 54.496 41.202 76.36 30.777 35.447 84.886 38.098 123.11 65.097 26.31 18.552 44.015 48.699 47.49 80.667 4.136 38.595-10.59 82.49 12.575 113.63 11.252 15.239 29.62 23.687 41.699 38.263 12.079 14.411 15.554 27.662 11.748 46.049z" fill="url(#c)" opacity=".37"/><path d="m325.48 255.584-3.475.166h-316.87567l-.82735.166c-3.14394-21.037 13.23762-42.405 34.08692-48.036 18.0363-4.97 39.2165-.497 54.4398-11.595 13.5683-9.939 16.8783-28.491 25.8133-42.736 5.461-8.944 13.403-16.398 22.67-21.202 11.582-6.294 25.978-8.447 37.727-2.816 21.014 9.939 24.986 37.767 39.051 56.318 3.144 4.141 7.115 7.951 12.079 9.442 4.633 1.325 9.597.331 14.231-.497 15.554-2.816 34.086-2.485 43.684 9.938 4.467 5.798 6.122 13.417 8.604 20.374s6.619 14.08 13.569 16.564c3.309 1.16 7.115 1.16 10.094 3.148 3.805 2.153 4.964 6.294 5.129 10.766z" fill="url(#e)"/><path d="m835.13 295.67h-369.496c-2.978-3.81-3.309-9.939-1.158-14.411 2.647-6.129 8.439-10.104 14.065-13.583 5.626-3.478 11.748-6.625 16.05-11.595 8.109-9.772 7.612-23.686 9.432-36.275 2.151-14.908 8.439-29.65 19.691-39.754 4.468-3.975 9.598-7.123 15.058-9.607 15.554-7.288 34.583-8.945 49.145 0 13.899 8.613 20.684 25.177 32.763 36.275 2.813 2.651 6.122 4.97 9.928 5.798 10.756 2.484 20.022-7.288 28.13-14.908 11.583-10.767 26.972-18.717 42.526-16.73 18.367 2.319 32.598 18.221 39.547 35.282 2.979 7.122 5.13 15.073 10.922 20.208 14.892 13.086 39.878-1.656 57.252 7.951 6.454 3.644 10.921 10.104 14.396 16.564 5.461 10.767 9.598 22.527 11.749 34.785z" fill="url(#f)"/><path d="m782.013 547.609h-663.867s-35.7419 23.687 17.374 27.828c53.116 4.141 136.017 7.785 133.866 25.84s-49.972 14.577-49.972 46.38c0 31.968 221.234 24.515 221.234 24.515s124.93 1.656 142.801-19.546c17.87-21.202-50.303-40.417-38.059-48.864 12.411-8.282 102.261 16.729 115.664-3.644 13.403-20.209-2.647-33.129 22.008-35.779 24.655-2.319 94.814 7.288 98.951-16.73z" fill="url(#h)" opacity=".5"/><path d="m731.876 603.927c27.69 0 50.137-6.377 50.137-14.245 0-7.867-22.447-14.245-50.137-14.245s-50.138 6.378-50.138 14.245c0 7.868 22.448 14.245 50.138 14.245z" fill="url(#i)"/><path d="m197.406 612.872c24.218 0 43.85-4.894 43.85-10.932s-19.632-10.932-43.85-10.932c-24.217 0-43.849 4.894-43.849 10.932s19.632 10.932 43.849 10.932z" fill="url(#j)"/><path d="m448.921 653.951c27.507 0 49.806-4.302 49.806-9.607 0-5.306-22.299-9.608-49.806-9.608-27.508 0-49.807 4.302-49.807 9.608 0 5.305 22.299 9.607 49.807 9.607z" fill="#e9fdff"/><path d="m484.522 588.999h-39.382l-24.986-183.034s-36.073-39.422-77.44-46.876l39.382-4.307 88.857 2.485z" fill="url(#k)"/><path d="m445.306 588.999-1.324 8.447s-11.914 1.657-12.576 18.552h30.778l16.712-16.398 1.489-10.601z" fill="#111023"/><path d="m397.65 405.799-49.31-1.822 7.942 75.533-33.425 11.926-19.194-93.256c-5.626-17.393 6.122-35.613 24.324-37.601l14.727-1.656c41.367 7.454 77.44 46.876 77.44 46.876z" fill="url(#l)"/><path d="m331.801 468.661s-39.572 2.952-55.289 28.155l73.428-5.371 2.301-8.812z" fill="#111023"/><path d="m306.973 195.104v2.153l-2.647.331c-.662-1.491-1.49-2.65-2.152-3.313-3.64-3.147-6.122-5.466-8.604-3.975-1.986 1.159-1.82 6.46-1.655 8.945l-7.28.993-64.368 8.117v-.166c4.136-.994 7.446-8.448 7.446-17.558 0-8.944-3.144-16.398-7.281-17.558l86.541 9.773v1.822z" fill="url(#m)"/><path d="m225.065 177.712c-.165.331-.331.497-.496.828-.993 1.822-1.324 3.81-2.482 5.466-.828 1.16-1.986 2.153-3.475 2.65-1.49.497-2.979.663-4.634.828-.992.166-2.151.332-2.978.829.496-8.614 3.806-15.239 8.108-15.571l1.324.166c1.82.663 3.475 2.319 4.633 4.804z" fill="url(#n)"/><path d="m227.713 189.141c-1.158 1.491-1.655 3.313-2.647 4.803-1.159 1.657-2.979 2.982-4.965 3.479-1.82.497-3.805.165-5.626.994-.827.331-1.489 1.159-1.985 1.987-.828-2.816-1.324-6.128-1.324-9.772 0-.829 0-1.491 0-2.154.993-.497 1.986-.662 2.978-.828 1.49-.166 3.144-.331 4.634-.828 1.323-.497 2.647-1.491 3.475-2.65 1.158-1.657 1.654-3.645 2.482-5.467.165-.331.331-.497.496-.828 1.324 2.816 2.317 6.791 2.482 11.264z" fill="url(#o)"/><path d="m227.713 190.631c0 9.111-3.309 16.565-7.446 17.558-.331 0-.662.166-.993.166-2.978 0-5.461-3.147-6.95-7.951.497-.828 1.159-1.491 2.151-1.987 1.655-.829 3.641-.663 5.626-.994 1.986-.497 3.806-1.657 4.964-3.479.993-1.491 1.49-3.313 2.482-4.638 0 0 0 0 0-.165.166.497.166.993.166 1.49z" fill="url(#p)"/><path d="m357.938 186.325h25.979c-2.648 1.159-4.964 2.319-6.123 3.313-.827.828-.496 2.153.497 3.975h-20.519v-7.288z" fill="#111023"/><path d="m415.687 190.631v2.816h-14.065c-1.324-3.147-2.316-5.797-2.647-7.288h16.878v4.472z" fill="#111023"/><path d="m357.938 193.447v1.657h-50.965v-10.601h50.965v1.822z" fill="url(#q)"/><path d="m308.959 213.159-11.252 8.613s-13.569-14.245-13.073-21.533l7.281-.994c-.165-2.484-.331-7.785 1.655-8.944 2.482-1.491 4.964.993 8.604 3.975.662.663 1.489 1.822 2.151 3.313 2.648 5.632 4.634 15.57 4.634 15.57z" fill="url(#s)"/><path d="m233.504 173.074c-.827-1.657-3.144-.166-2.482 1.325 4.633 10.104 3.971 21.202-1.489 30.809-.828 1.491 1.489 2.982 2.482 1.325 5.957-10.27 6.453-22.361 1.489-33.459z" fill="#5b2b89"/><path d="m433.392 224.422v8.614l-10.424-9.773z" fill="url(#u)"/><path d="m433.393 233.036 10.424 9.938 9.928 9.442s22.835-15.902 31.605-16.068c.662 0 1.159 0 1.82.166 7.778 1.16 12.576 10.104 11.252 18.883-1.489 9.276-1.158 19.712-10.259 21.368-8.935 1.656-48.483 11.264-48.483 11.264l-43.353-58.803 5.13-3.644 11.417-7.951 2.317-1.656 4.964 4.638 2.813 2.65z" fill="url(#v)"/><path d="m461.357 226.244 25.814 10.104c-.662-.165-1.159-.165-1.821-.165-8.769.165-31.604 16.067-31.604 16.067l-9.929-9.442z" fill="url(#w)"/><path d="m488.163 276.434-15.057 40.913-1.986 39.92s-1.82.331-4.799.828c-14.396 1.988-57.253 6.957-84.059-3.147l10.425-49.527-4.799-39.091-58.411 6.46-36.569-47.374 4.799-3.644 11.252-8.613 34.583 33.791 54.109-23.687c1.986 1.491 3.64 2.153 3.64 2.153l-5.129 3.644 43.353 58.803c.165 0 39.713-9.607 48.648-11.429z" fill="url(#x)"/><path d="m412.708 217.465-11.417 7.951s-1.655-.662-3.64-2.153c-2.648-1.822-5.626-4.804-5.957-9.11-.497-5.798-10.094-15.074-13.403-20.706-.993-1.822-1.324-3.147-.497-3.975.993-.994 3.31-2.153 6.123-3.313 5.956-2.319 14.065-3.975 14.726-.331v.331c.331 1.491 1.324 4.141 2.648 7.288 4.302 9.608 11.417 24.018 11.417 24.018z" fill="url(#y)"/><path d="m473.105 317.512c-66.188-14.079-76.778-88.452-76.778-88.452l43.353 58.803 48.483-11.264z" fill="url(#z)" opacity=".38"/><path d="m460.861 190.134c1.324-.331 2.813-.165 3.309 2.154 1.324 5.135-4.468 11.263-4.468 11.263l1.49 22.693-17.54 16.73 6.784-19.711-17.209 1.159-10.424-1.159-2.813-2.651s-1.986-18.883-1.986-29.981c0-2.484.165-4.638.331-6.128l.165-.497c12.08 1.987 28.958-2.651 28.958-2.651s2.316 23.025 5.626 23.356c3.144.331 4.302-12.423 4.302-12.423s1.655-1.657 3.475-2.154z" fill="url(#A)"/><path d="m461.026 173.405-.165 16.73c-1.82.497-3.64 2.153-3.64 2.153s-.993 12.92-4.303 12.423c-3.144-.331-5.626-23.355-5.626-23.355s-16.878 4.803-28.957 2.65c-3.806-.663-7.115-1.988-9.266-4.307-9.267-9.773-6.123-15.239 7.28-12.257 13.403 2.981 40.872-12.92 44.677 5.963z" fill="#111023"/><path d="m450.602 223.263-6.785 19.711-10.424-9.938v-8.613z" fill="#f79244"/><g fill="#111023"><path d="m417.342 186.988c2.648-1.325 5.461-1.491 8.274-.497 1.654.662.496 3.147-1.324 2.484-1.82-.662-3.806-.497-5.461.332-1.489.828-3.144-1.491-1.489-2.319z"/><path d="m443.303 196.753c1.095-.058 1.913-1.437 1.827-3.082-.086-1.644-1.043-2.931-2.138-2.873-1.095.057-1.914 1.437-1.828 3.081s1.044 2.931 2.139 2.874z"/><path d="m446.631 186.325c-2.813-.994-5.626-.994-8.274.331-1.655.828-.166 3.147 1.489 2.319s3.641-.828 5.461-.166c1.82.663 2.978-1.822 1.324-2.484z"/></g><path d="m426.939 203.055c.827-4.307 3.144-8.613 4.633-12.754.331-.829 1.49-.166 1.324.662-.993 2.65-1.82 5.135-2.813 7.785-.331.828-1.158 2.319-1.158 3.313-.331 3.313 1.158 2.982 2.813 3.81.827.331.165 1.656-.662 1.325-2.151-.994-4.633-1.16-4.137-4.141z" fill="#f79244"/><path d="m425.45 194.11c-1.324-.994-2.813-1.822-4.468-1.988-.993-.165-1.489 1.491-.496 1.657.827.165 1.654.331 2.482.662-.828.331-1.82.497-2.648.828-.993.332-.662 1.988.497 1.657 1.489-.497 2.978-.994 4.302-1.491.496-.166.827-.994.331-1.325z" fill="#111023"/><path d="m432.234 220.944c2.011 0 3.64-2.373 3.64-5.301 0-2.927-1.629-5.3-3.64-5.3-2.01 0-3.64 2.373-3.64 5.3 0 2.928 1.63 5.301 3.64 5.301z" fill="#fff"/></g></svg>