<svg width="24" height="24" viewBox="0 0 24 24" fill="none" xmlns="http://www.w3.org/2000/svg">
<path d="M11.25 18.75H12.75V21H11.25V18.75Z" fill="#F1F1F1"/>
<path d="M11.25 3H12.75V5.25H11.25V3Z" fill="#F1F1F1"/>
<path d="M3 11.25H5.25V12.75H3V11.25Z" fill="#F1F1F1"/>
<path d="M18.75 11.25H21V12.75H18.75V11.25Z" fill="#F1F1F1"/>
<path d="M5.11212 6.16177L6.16217 5.11172L7.75316 6.70271L6.70311 7.75276L5.11212 6.16177Z" fill="#F1F1F1"/>
<path d="M16.2583 17.2919L17.3084 16.2418L18.8993 17.8328L17.8493 18.8829L16.2583 17.2919Z" fill="#F1F1F1"/>
<path d="M5.12036 17.8299L6.71135 16.2389L7.7614 17.289L6.17041 18.8799L5.12036 17.8299Z" fill="#F1F1F1"/>
<path d="M16.2504 6.69424L17.8414 5.10325L18.8915 6.15331L17.3005 7.7443L16.2504 6.69424Z" fill="#F1F1F1"/>
<path d="M12 6.75C10.9617 6.75 9.94662 7.05791 9.08326 7.63478C8.2199 8.21166 7.54699 9.0316 7.14963 9.99091C6.75227 10.9502 6.64831 12.0058 6.85088 13.0242C7.05345 14.0426 7.55347 14.9781 8.28769 15.7123C9.02192 16.4465 9.95738 16.9466 10.9758 17.1491C11.9942 17.3517 13.0498 17.2477 14.0091 16.8504C14.9684 16.453 15.7883 15.7801 16.3652 14.9167C16.9421 14.0534 17.25 13.0384 17.25 12C17.25 10.6076 16.6969 9.27226 15.7123 8.28769C14.7277 7.30312 13.3924 6.75 12 6.75ZM12 15.75C11.0054 15.75 10.0516 15.3549 9.34835 14.6517C8.64509 13.9484 8.25 12.9946 8.25 12C8.25 11.0054 8.64509 10.0516 9.34835 9.34835C10.0516 8.64509 11.0054 8.25 12 8.25V15.75Z" fill="#F1F1F1"/>
</svg>
