<svg width="14" height="14" viewBox="0 0 14 14" fill="none" xmlns="http://www.w3.org/2000/svg">
<path d="M7.95253 6.9864L12.891 2.06111L12.8911 2.06121L12.8937 2.05828C13.0002 1.93424 13.0558 1.77467 13.0495 1.61144C13.0432 1.44822 12.9753 1.29341 12.8596 1.17794C12.7438 1.06248 12.5886 0.994862 12.4251 0.988562C12.2615 0.982262 12.1016 1.03774 11.9773 1.14395L11.9772 1.14383L11.9744 1.14656L7.03575 6.07203L2.09706 1.1406L2.09703 1.14058C1.97466 1.01854 1.80872 0.95 1.63573 0.95C1.46273 0.95 1.29679 1.01854 1.17442 1.14058C1.05204 1.26263 0.983271 1.42819 0.983271 1.60084C0.983271 1.7735 1.05204 1.93906 1.17442 2.06111L1.17444 2.06113L6.11888 6.9864L1.17577 11.9104C1.1084 11.9682 1.05365 12.0393 1.0149 12.1192C0.975878 12.1996 0.953944 12.2873 0.950485 12.3766C0.947025 12.4659 0.962116 12.555 0.994805 12.6382C1.02749 12.7214 1.07708 12.797 1.14043 12.8601C1.20378 12.9233 1.27954 12.9728 1.36294 13.0053C1.44634 13.0379 1.53558 13.053 1.62508 13.0495C1.71458 13.0461 1.8024 13.0242 1.88304 12.9853C1.96307 12.9467 2.03432 12.8921 2.09236 12.8249L7.03571 7.90073L11.9744 12.8262L11.9743 12.8263L11.9773 12.8289C12.1016 12.9351 12.2615 12.9905 12.4251 12.9842C12.5886 12.9779 12.7438 12.9103 12.8596 12.7949C12.9753 12.6794 13.0432 12.5246 13.0495 12.3614C13.0558 12.1981 13.0002 12.0386 12.8937 11.9145L12.8938 11.9144L12.891 11.9117L7.95253 6.9864Z" fill="black" stroke="black" stroke-width="0.1"/>
</svg>
