<svg width="15" height="15" viewBox="0 0 15 15" fill="none" xmlns="http://www.w3.org/2000/svg">
<path fill-rule="evenodd" clip-rule="evenodd" d="M1.90296 7.29723C1.90296 10.3412 4.10996 12.4152 6.58896 12.8442C6.6564 12.8559 6.72087 12.8808 6.7787 12.9174C6.83652 12.954 6.88658 13.0016 6.92599 13.0576C6.96541 13.1135 6.99342 13.1767 7.00843 13.2434C7.02344 13.3102 7.02515 13.3793 7.01346 13.4467C7.00177 13.5142 6.97692 13.5786 6.94032 13.6365C6.90371 13.6943 6.85608 13.7443 6.80013 13.7838C6.74418 13.8232 6.68102 13.8512 6.61424 13.8662C6.54747 13.8812 6.4784 13.8829 6.41096 13.8712C3.49996 13.3672 0.860962 10.9132 0.860962 7.29723C0.860962 5.76023 1.55996 4.55223 2.37596 3.63423C2.96096 2.97623 3.62996 2.44123 4.16796 2.03223H2.53196C2.39935 2.03223 2.27218 1.97955 2.17841 1.88578C2.08464 1.79201 2.03196 1.66483 2.03196 1.53223C2.03196 1.39962 2.08464 1.27244 2.17841 1.17867C2.27218 1.08491 2.39935 1.03223 2.53196 1.03223H5.53196C5.66457 1.03223 5.79175 1.08491 5.88552 1.17867C5.97928 1.27244 6.03196 1.39962 6.03196 1.53223V4.53223C6.03196 4.66483 5.97928 4.79201 5.88552 4.88578C5.79175 4.97955 5.66457 5.03223 5.53196 5.03223C5.39935 5.03223 5.27218 4.97955 5.17841 4.88578C5.08464 4.79201 5.03196 4.66483 5.03196 4.53223V2.68623L5.03096 2.68823C4.45896 3.11823 3.76096 3.64523 3.15596 4.32623C2.44096 5.13023 1.90296 6.10223 1.90296 7.29623V7.29723ZM13.011 7.70323C13.011 4.69123 10.851 2.63023 8.40396 2.17023C8.33576 2.15865 8.27055 2.13362 8.21212 2.09657C8.1537 2.05953 8.10324 2.01122 8.06369 1.95447C8.02413 1.89772 7.99628 1.83366 7.98174 1.76603C7.96721 1.69839 7.96629 1.62854 7.97904 1.56055C7.99179 1.49256 8.01795 1.42779 8.056 1.37002C8.09404 1.31224 8.14321 1.26263 8.20064 1.22406C8.25807 1.18549 8.3226 1.15874 8.39047 1.14538C8.45835 1.13202 8.5282 1.13231 8.59596 1.14623C11.47 1.68623 14.053 4.12623 14.053 7.70323C14.053 9.24023 13.354 10.4472 12.538 11.3662C11.953 12.0242 11.284 12.5592 10.746 12.9682H12.382C12.5146 12.9682 12.6417 13.0209 12.7355 13.1147C12.8293 13.2084 12.882 13.3356 12.882 13.4682C12.882 13.6008 12.8293 13.728 12.7355 13.8218C12.6417 13.9155 12.5146 13.9682 12.382 13.9682H9.38196C9.24935 13.9682 9.12218 13.9155 9.02841 13.8218C8.93464 13.728 8.88196 13.6008 8.88196 13.4682V10.4682C8.88196 10.3356 8.93464 10.2084 9.02841 10.1147C9.12218 10.0209 9.24935 9.96823 9.38196 9.96823C9.51457 9.96823 9.64175 10.0209 9.73552 10.1147C9.82928 10.2084 9.88196 10.3356 9.88196 10.4682V12.3132H9.88396C10.455 11.8812 11.154 11.3552 11.758 10.6732C12.473 9.87023 13.011 8.89823 13.011 7.70323Z" fill="#FF416E"/>
</svg>
