<svg width="24" height="24" viewBox="0 0 24 24" fill="none" xmlns="http://www.w3.org/2000/svg">
<path d="M10.9259 14.8556C11.9716 14.2645 12.7921 13.3437 13.2593 12.2371C13.7265 11.1305 13.8142 9.90029 13.5086 8.73861C13.203 7.57693 12.5213 6.54915 11.5699 5.81574C10.6186 5.08233 9.45122 4.68457 8.25001 4.68457C7.0488 4.68457 5.8814 5.08233 4.93008 5.81574C3.97876 6.54915 3.29708 7.57693 2.99145 8.73861C2.68583 9.90029 2.77348 11.1305 3.24071 12.2371C3.70795 13.3437 4.52846 14.2645 5.57415 14.8556C3.74064 15.4408 2.14842 16.6088 1.03965 18.182C0.997124 18.2424 0.966908 18.3106 0.950729 18.3827C0.934551 18.4548 0.932727 18.5293 0.945363 18.6021C0.957999 18.6749 0.984847 18.7445 1.02437 18.8069C1.0639 18.8693 1.11533 18.9233 1.17573 18.9658C1.23613 19.0084 1.30432 19.0386 1.37639 19.0547C1.44847 19.0709 1.52303 19.0727 1.59581 19.0601C1.6686 19.0475 1.73818 19.0206 1.80058 18.9811C1.86299 18.9416 1.917 18.8901 1.95953 18.8297C2.669 17.8205 3.61089 16.9968 4.70569 16.4281C5.80048 15.8594 7.01603 15.5626 8.2497 15.5625C9.48338 15.5625 10.6989 15.8593 11.7938 16.4278C12.8886 16.9964 13.8306 17.8201 14.5401 18.8293C14.5827 18.8897 14.6367 18.9411 14.6991 18.9806C14.7615 19.0201 14.8311 19.047 14.9039 19.0596C14.9766 19.0722 15.0512 19.0704 15.1233 19.0542C15.1953 19.038 15.2635 19.0078 15.3239 18.9653C15.3843 18.9227 15.4357 18.8687 15.4753 18.8063C15.5148 18.7439 15.5416 18.6743 15.5542 18.6015C15.5669 18.5287 15.565 18.4542 15.5488 18.3821C15.5327 18.31 15.5024 18.2419 15.4599 18.1815C14.3512 16.6086 12.7591 15.4408 10.9259 14.8556ZM3.93747 10.125C3.93747 9.27203 4.19039 8.43825 4.66425 7.72907C5.13812 7.01988 5.81164 6.46713 6.59964 6.14073C7.38765 5.81433 8.25475 5.72893 9.09129 5.89533C9.92784 6.06172 10.6962 6.47245 11.2994 7.07556C11.9025 7.67868 12.3132 8.44709 12.4796 9.28364C12.646 10.1202 12.5606 10.9873 12.2342 11.7753C11.9078 12.5633 11.355 13.2368 10.6459 13.7107C9.93668 14.1845 9.1029 14.4375 8.24997 14.4375C7.10662 14.4362 6.01046 13.9814 5.20199 13.1729C4.39352 12.3645 3.93876 11.2683 3.93747 10.125ZM22.9666 18.9653C22.9062 19.0078 22.838 19.0381 22.7659 19.0543C22.6938 19.0704 22.6193 19.0723 22.5465 19.0596C22.4737 19.047 22.4041 19.0202 22.3417 18.9806C22.2793 18.9411 22.2253 18.8897 22.1828 18.8293C21.4724 17.821 20.5304 16.998 19.4358 16.4295C18.3412 15.861 17.1261 15.5637 15.8927 15.5625C15.7435 15.5625 15.6004 15.5032 15.4949 15.3977C15.3894 15.2922 15.3302 15.1491 15.3302 15C15.3302 14.8508 15.3894 14.7077 15.4949 14.6022C15.6004 14.4967 15.7435 14.4375 15.8927 14.4375C16.5085 14.4368 17.1171 14.3043 17.6774 14.0488C18.2377 13.7933 18.7369 13.4207 19.1412 12.9562C19.5455 12.4916 19.8456 11.9459 20.0214 11.3556C20.1971 10.7654 20.2444 10.1443 20.16 9.53429C20.0757 8.92425 19.8616 8.33935 19.5323 7.81894C19.203 7.29854 18.7661 6.8547 18.2509 6.51729C17.7357 6.17989 17.1542 5.95674 16.5455 5.86286C15.9369 5.76899 15.3152 5.80656 14.7223 5.97306C14.5787 6.01346 14.4249 5.99516 14.2948 5.92218C14.1646 5.8492 14.0688 5.72751 14.0284 5.5839C13.988 5.44029 14.0063 5.2865 14.0793 5.15638C14.1523 5.02626 14.274 4.93046 14.4176 4.89006C15.6971 4.52901 17.0646 4.64934 18.2615 5.22829C19.4583 5.80724 20.4015 6.80468 20.9127 8.03197C21.4239 9.25927 21.4677 10.6313 21.0357 11.8887C20.6038 13.1461 19.7261 14.2016 18.5686 14.8557C20.4018 15.4409 21.9938 16.6087 23.1026 18.1816C23.1885 18.3035 23.2224 18.4546 23.1969 18.6016C23.1714 18.7486 23.0885 18.8794 22.9666 18.9653Z" fill="#56657F"/>
</svg>
