<svg width="24" height="24" viewBox="0 0 24 24" fill="none" xmlns="http://www.w3.org/2000/svg">
<g clip-path="url(#clip0)">
<path d="M21.2869 14.4764H20.7515V11.6263C20.7515 10.5621 19.8856 9.69622 18.8214 9.69622H18.1745L20.0611 6.12287C20.2576 5.75077 20.2972 5.32448 20.1726 4.92256C20.0479 4.52018 19.7736 4.1905 19.4003 3.99423L12.1455 0.181113C11.3761 -0.223333 10.4202 0.0725013 10.0146 0.840469L5.339 9.69622H4.17422C3.11 9.69622 2.2442 10.5621 2.2442 11.6263V22.0699C2.2442 23.1341 3.11 24 4.17422 24H18.8214C19.8857 24 20.7515 23.1341 20.7515 22.0699V19.2198H21.2869C21.5458 19.2198 21.7557 19.0099 21.7557 18.7511V14.9452C21.7556 14.6863 21.5458 14.4764 21.2869 14.4764ZM10.8436 1.2782C11.0082 0.966472 11.3965 0.84661 11.7093 1.01096L18.9642 4.82408C19.1155 4.90363 19.2267 5.03718 19.2772 5.20007C19.3276 5.36245 19.3115 5.53472 19.2321 5.68514L17.1144 9.69622H15.8561L17.0522 7.4308C17.1103 7.32069 17.1223 7.19206 17.0854 7.07314C17.0486 6.95426 16.9659 6.85493 16.8558 6.79699C16.5487 6.6356 16.3231 6.36456 16.2206 6.0339C16.1183 5.70403 16.1509 5.3541 16.3122 5.04857C16.3703 4.93846 16.3823 4.80983 16.3454 4.6909C16.3085 4.57203 16.2259 4.4727 16.1157 4.41476L13.6555 3.12173C13.4267 3.0015 13.1436 3.08911 13.0229 3.31781C12.6891 3.94998 11.9018 4.19318 11.2679 3.86008C11.0391 3.73984 10.756 3.8275 10.6353 4.05616L7.65748 9.69617H6.39914L10.8436 1.2782ZM15.3251 6.31145C15.4545 6.72921 15.6979 7.09175 16.0267 7.36503L14.796 9.69622H8.71762L11.2688 4.86416C12.1132 5.10074 13.0276 4.81817 13.5898 4.14635L15.3074 5.04913C15.1913 5.45929 15.1959 5.89463 15.3251 6.31145ZM19.814 22.0699C19.814 22.6172 19.3687 23.0625 18.8214 23.0625H4.17422C3.62695 23.0625 3.18172 22.6172 3.18172 22.0699V11.6263C3.18172 11.079 3.62695 10.6337 4.17422 10.6337H18.8214C19.3687 10.6337 19.814 11.079 19.814 11.6263V14.4764H17.9837C16.6759 14.4764 15.6119 15.5403 15.6119 16.8481C15.6119 18.1559 16.6759 19.2199 17.9837 19.2199H19.814V22.0699ZM20.8181 18.2823H17.9836C17.1928 18.2823 16.5494 17.6389 16.5494 16.8481C16.5494 16.0573 17.1928 15.4139 17.9836 15.4139H20.8181V18.2823Z" fill="#56657F"/>
</g>
<defs>
<clipPath id="clip0">
<rect width="24" height="24" fill="white"/>
</clipPath>
</defs>
</svg>
