<svg width="19" height="18" viewBox="0 0 19 18" fill="none" xmlns="http://www.w3.org/2000/svg">
<path d="M17.25 3.9375H2.25C2.00136 3.9375 1.7629 3.83873 1.58709 3.66291C1.41127 3.4871 1.3125 3.24864 1.3125 3C1.3125 2.75136 1.41127 2.5129 1.58709 2.33709C1.7629 2.16127 2.00136 2.0625 2.25 2.0625H15C15.1492 2.0625 15.2923 2.00324 15.3977 1.89775C15.5032 1.79226 15.5625 1.64918 15.5625 1.5C15.5625 1.35082 15.5032 1.20774 15.3977 1.10225C15.2923 0.996763 15.1492 0.9375 15 0.9375H2.25C1.70318 0.93812 1.17894 1.15562 0.792277 1.54228C0.405618 1.92894 0.18812 2.45318 0.1875 3V15C0.18812 15.5468 0.405618 16.0711 0.792277 16.4577C1.17894 16.8444 1.70318 17.0619 2.25 17.0625H17.25C17.598 17.0621 17.9316 16.9237 18.1776 16.6776C18.4237 16.4316 18.5621 16.098 18.5625 15.75V5.25C18.5621 4.90203 18.4237 4.56842 18.1776 4.32236C17.9316 4.0763 17.598 3.9379 17.25 3.9375ZM17.4375 15.75C17.4374 15.7997 17.4176 15.8474 17.3825 15.8825C17.3474 15.9176 17.2997 15.9374 17.25 15.9375H2.25C2.00145 15.9372 1.76317 15.8383 1.58742 15.6626C1.41167 15.4868 1.3128 15.2485 1.3125 15V4.83684C1.6026 4.98557 1.924 5.06293 2.25 5.0625H17.25C17.2997 5.06257 17.3474 5.08235 17.3825 5.1175C17.4176 5.15265 17.4374 5.20029 17.4375 5.25V15.75ZM14.8125 10.5C14.8125 10.6854 14.7575 10.8667 14.6545 11.0208C14.5515 11.175 14.4051 11.2952 14.2338 11.3661C14.0625 11.4371 13.874 11.4557 13.6921 11.4195C13.5102 11.3833 13.3432 11.294 13.2121 11.1629C13.081 11.0318 12.9917 10.8648 12.9555 10.6829C12.9193 10.501 12.9379 10.3125 13.0089 10.1412C13.0798 9.96993 13.2 9.82351 13.3542 9.7205C13.5083 9.61748 13.6896 9.5625 13.875 9.5625C14.1236 9.5625 14.3621 9.66127 14.5379 9.83709C14.7137 10.0129 14.8125 10.2514 14.8125 10.5Z" fill="#FF416E"/>
</svg>
