<svg xmlns="http://www.w3.org/2000/svg" xmlns:xlink="http://www.w3.org/1999/xlink" viewBox="0 0 682.6 677.9"><defs><style>.cls-1{isolation:isolate;}.cls-2{fill:url(#Degradado_sin_nombre_109);}.cls-11,.cls-13,.cls-3,.cls-5,.cls-7,.cls-9{mix-blend-mode:multiply;}.cls-3{fill:url(#Degradado_sin_nombre_168);}.cls-4{fill:url(#Безымянный_градиент_2);}.cls-5{fill:url(#Degradado_sin_nombre_161);}.cls-6{fill:url(#Degradado_sin_nombre_125);}.cls-7{fill:url(#Degradado_sin_nombre_157);}.cls-8{fill:url(#Degradado_sin_nombre_130);}.cls-9{fill:url(#Degradado_sin_nombre_157-2);}.cls-10{fill:url(#Degradado_sin_nombre_129);}.cls-11{fill:url(#Degradado_sin_nombre_159);}.cls-12{fill:url(#Degradado_sin_nombre_113);}.cls-13{fill:url(#Degradado_sin_nombre_156);}.cls-14{fill:url(#Degradado_sin_nombre_138);}.cls-15{fill:#fff;}.cls-16{fill:#f6f6f6;}.cls-17{fill:#f9f9f9;}</style><radialGradient id="Degradado_sin_nombre_109" cx="306.32" cy="50.69" r="396.16" gradientTransform="translate(-82.8 110.6) rotate(-16.41)" gradientUnits="userSpaceOnUse"><stop offset="0.04" stop-color="#ff9100"/><stop offset="1" stop-color="#ffb655"/></radialGradient><linearGradient id="Degradado_sin_nombre_168" x1="322.92" y1="77.06" x2="375.59" y2="77.73" gradientTransform="translate(-82.8 110.6) rotate(-16.41)" gradientUnits="userSpaceOnUse"><stop offset="0" stop-color="#727176" stop-opacity="0.7"/><stop offset="0.19" stop-color="#7d7c81" stop-opacity="0.65"/><stop offset="0.45" stop-color="#9c9b9e" stop-opacity="0.49"/><stop offset="0.76" stop-color="#cecdcf" stop-opacity="0.24"/><stop offset="1" stop-color="#fff" stop-opacity="0"/></linearGradient><radialGradient id="Безымянный_градиент_2" cx="99.45" cy="199.75" r="286.37" gradientTransform="translate(-82.8 110.6) rotate(-16.41)" gradientUnits="userSpaceOnUse"><stop offset="0.04" stop-color="#7af4ab"/><stop offset="1" stop-color="#c9ce7e"/></radialGradient><linearGradient id="Degradado_sin_nombre_161" x1="-939.41" y1="1149.94" x2="-944.31" y2="1243.06" gradientTransform="translate(-1331.86 888.59) rotate(-151.41)" gradientUnits="userSpaceOnUse"><stop offset="0" stop-color="#727176" stop-opacity="0.7"/><stop offset="0.19" stop-color="#7c7b7f" stop-opacity="0.65"/><stop offset="0.44" stop-color="#97969a" stop-opacity="0.52"/><stop offset="0.72" stop-color="#c3c3c5" stop-opacity="0.3"/><stop offset="1" stop-color="#fff" stop-opacity="0"/></linearGradient><radialGradient id="Degradado_sin_nombre_125" cx="425.93" cy="614.34" r="437.08" gradientTransform="translate(-82.8 110.6) rotate(-16.41)" gradientUnits="userSpaceOnUse"><stop offset="0.04" stop-color="#2b3894"/><stop offset="1" stop-color="#8078bf"/></radialGradient><linearGradient id="Degradado_sin_nombre_157" x1="97.31" y1="711.7" x2="94.81" y2="759.2" gradientTransform="translate(1095.1 290.04) rotate(73.59)" gradientUnits="userSpaceOnUse"><stop offset="0" stop-color="#727176" stop-opacity="0.7"/><stop offset="0.26" stop-color="#78777b" stop-opacity="0.67"/><stop offset="0.47" stop-color="#89888c" stop-opacity="0.59"/><stop offset="0.66" stop-color="#a6a5a8" stop-opacity="0.44"/><stop offset="0.84" stop-color="#cfced0" stop-opacity="0.24"/><stop offset="1" stop-color="#fff" stop-opacity="0"/></linearGradient><radialGradient id="Degradado_sin_nombre_130" cx="167.68" cy="510.23" r="355.3" gradientTransform="translate(87.38 57.05) rotate(7.67)" gradientUnits="userSpaceOnUse"><stop offset="0.04" stop-color="#0956c6"/><stop offset="0.14" stop-color="#095bc8"/><stop offset="0.25" stop-color="#0968cf"/><stop offset="0.36" stop-color="#087fdb"/><stop offset="0.48" stop-color="#079eeb"/><stop offset="0.52" stop-color="#07a9f0"/><stop offset="0.55" stop-color="#1eb1f2"/><stop offset="0.61" stop-color="#42bef5"/><stop offset="0.68" stop-color="#5fc9f8"/><stop offset="0.74" stop-color="#76d2fa"/><stop offset="0.81" stop-color="#86d7fb"/><stop offset="0.89" stop-color="#90dbfc"/><stop offset="1" stop-color="#93dcfc"/></radialGradient><linearGradient id="Degradado_sin_nombre_157-2" x1="-101.56" y1="991.66" x2="-104.29" y2="1043.52" gradientTransform="matrix(-0.62, 0.78, -0.78, -0.62, 888.86, 1243.89)" xlink:href="#Degradado_sin_nombre_157"/><radialGradient id="Degradado_sin_nombre_129" cx="650.18" cy="451.06" r="404.19" gradientTransform="translate(-82.8 110.6) rotate(-16.41)" gradientUnits="userSpaceOnUse"><stop offset="0" stop-color="#c50048"/><stop offset="1" stop-color="#6864b5"/></radialGradient><linearGradient id="Degradado_sin_nombre_159" x1="622.04" y1="442.12" x2="558.54" y2="497.62" gradientTransform="translate(-148.28 321.95) rotate(-33.3)" gradientUnits="userSpaceOnUse"><stop offset="0" stop-color="#727176" stop-opacity="0.7"/><stop offset="0.27" stop-color="#77767b" stop-opacity="0.67"/><stop offset="0.47" stop-color="#88878b" stop-opacity="0.59"/><stop offset="0.66" stop-color="#a4a3a7" stop-opacity="0.45"/><stop offset="0.83" stop-color="#cbcbcd" stop-opacity="0.26"/><stop offset="1" stop-color="#fefefe" stop-opacity="0.01"/><stop offset="1" stop-color="#fff" stop-opacity="0"/></linearGradient><radialGradient id="Degradado_sin_nombre_113" cx="635.24" cy="128.64" r="375.68" gradientTransform="translate(-82.8 110.6) rotate(-16.41)" gradientUnits="userSpaceOnUse"><stop offset="0" stop-color="#c50048"/><stop offset="0.48" stop-color="#e02b6a"/><stop offset="1" stop-color="#ff5e93"/></radialGradient><linearGradient id="Degradado_sin_nombre_156" x1="596.47" y1="183.91" x2="594.05" y2="229.98" gradientTransform="matrix(0.69, -0.72, 0.72, 0.69, -36.32, 432.51)" gradientUnits="userSpaceOnUse"><stop offset="0" stop-color="#727176" stop-opacity="0.7"/><stop offset="0.19" stop-color="#7c7b80" stop-opacity="0.65"/><stop offset="0.44" stop-color="#98979b" stop-opacity="0.51"/><stop offset="0.72" stop-color="#c6c5c7" stop-opacity="0.28"/><stop offset="1" stop-color="#fff" stop-opacity="0"/></linearGradient><radialGradient id="Degradado_sin_nombre_138" cx="230.7" cy="173.8" r="460.52" gradientTransform="translate(-82.8 110.6) rotate(-16.41)" gradientUnits="userSpaceOnUse"><stop offset="0.04" stop-color="#d8d9dd"/><stop offset="0.55" stop-color="#edeef0"/><stop offset="1" stop-color="#f7f7f8"/></radialGradient></defs><g class="cls-1"><g id="Слой_2" data-name="Слой 2"><g id="OBJECTS"><path class="cls-2" d="M577.42,93,474.62,200c-73-55.16-135.89-55.19-185.39-40.61l-42.7-145C339.85-18,485.67,2.71,577.42,93Z"/><path class="cls-3" d="M283.14,5.74a342,342,0,0,0-36.61,8.6l42.7,145a187.85,187.85,0,0,1,30-6.23Z"/><path class="cls-4" d="M9.25,260.35,153.6,294.49c22.88-42,50.3-102.8,133.76-141.51L246.53,14.34C144.56,42.4,43.84,127.92,9.25,260.35Z"/><path class="cls-5" d="M24.12,214.26c-5.72,12.81-11.33,37.11-14.87,46.09L153.6,294.49c2.21-10.71,4.85-17.08,9.07-28.52Z"/><path class="cls-6" d="M104.76,584.66l102.8-106.92c50.5,31,113.35,64.41,187.24,40.07l42.7,145C344.21,692.69,211.65,683.81,104.76,584.66Z"/><path class="cls-7" d="M400.89,671.41a342,342,0,0,0,36.61-8.6l-42.7-145a187.85,187.85,0,0,1-30,6.23Z"/><path class="cls-8" d="M104.76,584.66l102.8-106.92c-34.38-49.54-60.52-80.05-54-183.25L9.25,260.35C-12.75,358.53-1,489.23,104.76,584.66Z"/><path class="cls-9" d="M79.73,558.59c8.8,8.75,15,18.21,24.9,26.11l102.93-107c-8.14-6.48-11.36-12.64-18.11-20.11Z"/><path class="cls-10" d="M672.93,417.34,526.24,383.13c-38.7,95.29-81.94,120.11-131.44,134.68l42.7,145C527,636.44,637.09,559,672.93,417.34Z"/><path class="cls-11" d="M520.39,405.23l138.42,61.5a340.17,340.17,0,0,0,16-54.08L526.79,382a189.43,189.43,0,0,1-6.4,23.24Z"/><path class="cls-12" d="M672.93,417.34,526.24,383.13c15.88-75.85-16.69-140.56-50.46-184.38L577.42,93C665.65,172.91,701.58,296.27,672.93,417.34Z"/><path class="cls-13" d="M603.28,120.07a338.63,338.63,0,0,0-25.86-27L474.62,200c7.51,7.21,12.86,14.75,18.9,22.81Z"/><path class="cls-14" d="M287.36,153c-102.5,30.19-161.12,137.75-130.94,240.25S294.17,554.35,396.67,524.17,557.79,386.42,527.61,283.92,389.86,122.8,287.36,153ZM393.56,513.6C296.9,542.07,195.46,486.78,167,390.12A182.46,182.46,0,0,1,517,287C545.51,383.69,490.22,485.13,393.56,513.6Z"/><path class="cls-15" d="M419,87.44a1.26,1.26,0,0,0-1.58.8L409.11,121a3.4,3.4,0,0,1-4.27,2.17l-34.74-8.84a1.18,1.18,0,1,0-.57,2.26l34.74,8.83c3.35.86,6.68-.83,7.42-3.76L420,88.9a1.25,1.25,0,0,0-1-1.46Z"/><path class="cls-15" d="M395.82,84.18a1.17,1.17,0,1,0,.57-2.26l-5.82-1.48a1.16,1.16,0,1,0-.58,2.25Z"/><path class="cls-15" d="M402.13,109.28l-5.82-1.48a1.16,1.16,0,1,0-.58,2.25l5.83,1.48a1.16,1.16,0,0,0,.57-2.25Z"/><path class="cls-15" d="M376.33,84.49a1.17,1.17,0,0,0,.84,1.42l29,7.38a1.17,1.17,0,1,0,.57-2.26l-29-7.38A1.17,1.17,0,0,0,376.33,84.49Z"/><path class="cls-15" d="M375.62,92l29,7.38a1.16,1.16,0,1,0,.58-2.25l-29-7.39a1.17,1.17,0,1,0-.58,2.26Z"/><path class="cls-15" d="M374.08,98.07l29,7.38a1.16,1.16,0,1,0,.57-2.25l-29-7.39a1.17,1.17,0,0,0-.57,2.26Z"/><path class="cls-15" d="M439.93,58.42a19.68,19.68,0,0,0-3.06-3.75,1.16,1.16,0,0,0-1.6,1.68A17.48,17.48,0,0,1,438,59.66c.2.31.38.63.56,1L432.2,62A2.13,2.13,0,0,1,430,61.2l-1.83-2.54.63-2.64a1.17,1.17,0,0,0-.84-1.4h0a1.16,1.16,0,0,0-1.4.86L426,57.81l-3.13.23a1.16,1.16,0,0,0-1.07,1.25A1.21,1.21,0,0,0,423,60.36l3.32-.25,1.76,2.45a4.49,4.49,0,0,0,4.62,1.75l1.19-.27L433.76,66a1.16,1.16,0,0,0,2.32.17l.2-2.66,3.23-.73a17.42,17.42,0,0,1,.58,10.4l-.88,3.47-1.75-2.94,1.22-2.43a1.16,1.16,0,0,0-2.08-1l-1.09,2.16-2.07-.53a1.17,1.17,0,0,0-.58,2.26h0l2.52.64L438,79.17a6.5,6.5,0,0,1-6.74,2.31L413,76.83a4.52,4.52,0,0,1-3.4-4.32,3,3,0,0,0-1.2-2.38l-5.56-4.08a6.72,6.72,0,0,1,1.48-11.65l7.34-2.93a17.27,17.27,0,0,1,6.43-1.25v0L415.46,55l-1.94.25a1.18,1.18,0,0,0-1,1.31c.22.52.34,1,1.3,1l1.72-.22,1.09,2.11a1.16,1.16,0,1,0,2.07-1.06l-1.18-2.3,2.58-4.74a2.47,2.47,0,0,0,.29-1,16.53,16.53,0,0,1,2,.38l5.21,1.32a17.32,17.32,0,0,1,3.14,1.14,1.17,1.17,0,0,0,1-2.11,19.47,19.47,0,0,0-3.57-1.28l-5.2-1.33a19.66,19.66,0,0,0-12.17.8l-7.34,2.94a9.12,9.12,0,0,0-2,1.16L396,52a1.17,1.17,0,0,0-.88.12l-21,12.48a1.21,1.21,0,0,0-.53.71l-11.15,43.83a5.48,5.48,0,0,0,4,6.66l2.63.67a1.17,1.17,0,0,0,.57-2.26l-2.63-.66a3.16,3.16,0,0,1-2.27-3.84L375.6,67.06l11.94,3a4.94,4.94,0,0,0,6-3.57l3-11.94,2.89.74a9,9,0,0,0,1.95,12.6L407,72a.7.7,0,0,1,.26.53,6.83,6.83,0,0,0,5.15,6.55L419.74,81,420.85,84a1.26,1.26,0,0,0,.18.32l2.46,3.16a2,2,0,0,0,2.17.63,1.92,1.92,0,0,0,1.27-1.88l-.13-3.51,3.89,1a8.84,8.84,0,0,0,10.74-6.38l.92-3.61a19.77,19.77,0,0,0-2.42-15.33ZM391.29,66a2.61,2.61,0,0,1-3.17,1.89l-10.35-2.63,16.16-9.61Zm33.17,16.58.1,2.56-1.58-2-.52-1.43,1.85.48Z"/><path class="cls-15" d="M409.45,58.89a1.17,1.17,0,0,0-2.26-.57l-.27,1.06a2.49,2.49,0,0,1-1.15,1.54L404,62a1.17,1.17,0,0,0-.4,1.6,1.2,1.2,0,0,0,1.59.41l1.76-1,.48-.32,1.93,2.07a1.21,1.21,0,0,0,1.65.06,1.16,1.16,0,0,0,.05-1.64l-2.17-2.34a5,5,0,0,0,.28-.8Z"/><path class="cls-15" d="M424.84,64.21a1.15,1.15,0,0,0-1.41.84l-.38,1.48-2.55-.75a5.22,5.22,0,0,0-1.09-.2L416.8,63a1.16,1.16,0,0,0-1.65,1.63l1.51,1.53-3.34,1.65a1.16,1.16,0,0,0,1,2.08l3.34-1.64a3,3,0,0,1,2.15-.19l2.73.8a.71.71,0,0,1,.42.34l1.66,3.26L423,74.59a1.16,1.16,0,0,0,.22,1.63,1.22,1.22,0,0,0,1.63-.22l1.51-2,2.26,1.14a1.22,1.22,0,0,0,1.56-.52,1.16,1.16,0,0,0-.52-1.56l-2.78-1.41-1.82-3.57h0l.62-2.47a1.15,1.15,0,0,0-.84-1.41Z"/><path class="cls-15" d="M253.64,604a2.69,2.69,0,0,1,1.17,3.63l-3.5,6.84a2.7,2.7,0,0,0,1.17,3.63l6.72,3.44a2.7,2.7,0,0,1-2.46,4.8L250,622.86A8.11,8.11,0,0,1,246.51,612l3.5-6.84A2.69,2.69,0,0,1,253.64,604Zm51.62-7.67-47,15.16a2.7,2.7,0,0,0,1.66,5.14l47-15.17a2.7,2.7,0,1,0-1.66-5.13ZM277.7,585.37a8.09,8.09,0,1,0,10.88-3.51A8.09,8.09,0,0,0,277.7,585.37Zm4.8,2.46a2.7,2.7,0,1,1,1.17,3.63A2.7,2.7,0,0,1,282.5,587.83Zm3.95,27.78a8.09,8.09,0,1,0,10.89-3.52A8.11,8.11,0,0,0,286.45,615.61Zm4.8,2.46a2.69,2.69,0,1,1,1.17,3.62A2.71,2.71,0,0,1,291.25,618.07Zm-12.58-46.74a34.31,34.31,0,0,0-20.12,17.12,34.92,34.92,0,0,0-3,8.17,2.7,2.7,0,0,0,5.26,1.19,29.08,29.08,0,1,1,9,28.07,2.69,2.69,0,0,0-3.59,4,34.52,34.52,0,1,0,12.42-58.57Z"/><path class="cls-16" d="M188.17,181.18l-6.39-5.3-.64-.54-.51.67c-.5.68-1,1.37-1.57,2-.4.47-.76.9-1.13,1.27l-.62.62.68.56,6.39,5.31L181.72,189l-7.16-6-.47-.39-.49.35c-10.36,7.19-25.3,7.2-35.23-1l0,0-1.1-.92-.36-.31h0c-9.93-8.28-12.69-22.95-7.48-34.46l.25-.55-.47-.39-7.49-6.23,2.65-3.22,6.69,5.61.61.51.52-.61c.2-.24.39-.49.56-.71h0c.18-.23.34-.45.53-.67.57-.68,1.12-1.34,1.68-1.93l.58-.62-.65-.54-6.72-5.58,2.66-3.23,7.33,6,.5.41.51-.4c7.93-6.33,15.43-6.29,21-6l-1.84,5.54-1.11-.16h-.06a26.07,26.07,0,0,0-9.83-.06c-3.84.86-8,3.08-12.11,8h0c-3.88,4.65-4.82,10.87-3.52,16.95a29.8,29.8,0,0,0,10,16.41l1.54,1.29h0A29.83,29.83,0,0,0,161.15,183c6.2.16,12.14-1.9,16-6.56h0c4.16-5,5.5-9.77,5.56-13.84a26.75,26.75,0,0,0-1.92-9.62v0c-.08-.24-.16-.46-.23-.65l5.12-2.87c1.31,5.42,2.69,12.76-2,21.73l-.3.57.5.42,7,5.79Zm-40.09-19-.65-2.73-.88,2.67a25.87,25.87,0,0,0-.78,2.93c-.56-5.32.48-10.8,3.84-14.85s8.51-6.07,13.84-6.49a21.53,21.53,0,0,0-2.69,1.31l-2.35,1.33,2.69.16a9.83,9.83,0,0,1,5.79,2.2h0c4.47,3.69,4.78,10.95.39,16.19h0c-4.34,5.26-11.52,6.25-16,2.56A9.74,9.74,0,0,1,148.08,162.16Zm17.49,1.28c3.88-4.64,3.16-10.42,0-13.12s-9-2.32-12.91,2.38-3.17,10.41,0,13.11S161.72,168.09,165.57,163.44Zm-5.17-7a2.07,2.07,0,0,1,.31,2.93,2.14,2.14,0,0,1-3,.22,2.06,2.06,0,0,1-.31-2.92A2.17,2.17,0,0,1,160.4,156.44Z"/><path class="cls-17" d="M565.85,289.2l7.59-2.34.77-.24-.28-.75c-.28-.75-.56-1.53-.79-2.32-.17-.56-.33-1.08-.43-1.57l-.18-.82-.79.25-7.59,2.34L563,279.93l8.5-2.61.56-.17,0-.58c-.33-12.05,7.49-24,19.25-27.65h0l1.31-.4.44-.13h0c11.83-3.62,25,1.85,31.48,12l.32.49.55-.17L634.3,258l1.18,3.81-8,2.41-.72.22.22.73c.08.29.18.57.27.83h0c.09.27.18.52.26.78.25.81.48,1.6.67,2.36l.19.78.77-.23,8-2.46,1.19,3.82-8.67,2.71-.59.18.06.62c.91,9.66-3,15.63-6.19,19.92l-3.46-4.37c.23-.26.47-.54.71-.8h0l0,0a25,25,0,0,0,5.19-7.84c1.33-3.51,1.72-8-.09-13.89h0c-1.7-5.53-6.18-9.54-11.72-11.68a28.43,28.43,0,0,0-18.37-.57l-1.84.55h0a28.54,28.54,0,0,0-14.84,10.79c-3.37,4.88-4.83,10.71-3.14,16.24h0c1.86,6,4.94,9.51,8.17,11.7a25.25,25.25,0,0,0,8.69,3.49h0c.23.07.45.12.63.16l-.38,5.59c-5-1.78-11.61-4.52-16.32-13l-.3-.54-.59.18L567,293Zm36.2-22.12,2.53.91-1.68-2.1a22.26,22.26,0,0,0-1.94-2.16c4.56,2.34,8.39,6,9.87,10.85s.41,10-2.05,14.46a22.26,22.26,0,0,0,.36-2.84l.17-2.57-1.54,2.07a9.37,9.37,0,0,1-4.79,3.48h0c-5.29,1.64-11.26-1.92-13.15-8.16h0c-1.93-6.23,1-12.49,6.32-14.13A9.3,9.3,0,0,1,602.05,267.08ZM591.88,280.4c1.67,5.54,6.67,8,10.51,6.83s6.59-6,4.86-11.57-6.67-8-10.51-6.83S590.16,274.89,591.88,280.4Zm8.3-.47a2,2,0,0,1-2.5-1.28,2,2,0,0,1,1.37-2.51,2,2,0,0,1,2.5,1.29A2.07,2.07,0,0,1,600.18,279.93Z"/><path class="cls-17" d="M508.7,505.89l5.65,5.58.57.57.53-.6c.54-.6,1.09-1.22,1.67-1.8.41-.41.8-.8,1.18-1.12l.64-.54-.59-.59-5.65-5.58,2.8-2.85,6.32,6.26.41.41.51-.29c10.46-6,24.69-4.75,33.46,3.89l0,0,1,1,.33.33h0c8.77,8.71,10.18,22.9,4.26,33.43l-.28.51.41.41,6.62,6.55-2.8,2.85-5.9-5.9-.54-.54-.54.54-.6.63h0c-.19.21-.37.4-.56.59-.6.6-1.19,1.19-1.77,1.7l-.6.54.58.57,5.93,5.88-2.8,2.85-6.48-6.36-.44-.43-.52.34c-8.08,5.37-15.21,4.71-20.48,4l2.21-5.13,1,.25h0l.05,0a25.09,25.09,0,0,0,9.36.86c3.73-.49,7.87-2.26,12.2-6.64h0c4.08-4.11,5.49-10,4.76-15.85a28.44,28.44,0,0,0-8.18-16.46l-1.36-1.36h0a28.54,28.54,0,0,0-16.52-8c-5.9-.66-11.72.8-15.8,4.92h0c-4.38,4.45-6,8.84-6.45,12.72a25.64,25.64,0,0,0,1,9.31v0c0,.24.11.45.16.64l-5.11,2.3c-.8-5.26-1.5-12.37,3.74-20.52l.34-.52-.44-.44-6.17-6.1Zm36.6,21.44.4,2.66,1.06-2.47a24.69,24.69,0,0,0,1-2.73c.09,5.12-1.36,10.25-4.9,13.83s-8.6,5.07-13.71,5a20.09,20.09,0,0,0,2.67-1l2.35-1.07-2.55-.37a9.41,9.41,0,0,1-5.33-2.58h0c-3.95-3.89-3.64-10.83,1-15.45h0c4.58-4.64,11.49-5,15.44-1.11A9.34,9.34,0,0,1,545.3,527.33Zm-16.54-2.66c-4.09,4.09-3.89,9.65-1,12.49s8.41,3,12.49-1.19,3.89-9.66,1-12.49S532.8,520.55,528.76,524.67Zm4.33,7.09A2,2,0,0,1,533,529a2,2,0,0,1,2.86,0,2,2,0,0,1,.05,2.81A2.08,2.08,0,0,1,533.09,531.76Z"/><path class="cls-17" d="M123.11,413.11l-7.58,2.33-.77.24.28.75c.27.76.55,1.54.79,2.32.17.56.33,1.08.43,1.57l.17.82.8-.25,7.59-2.33,1.19,3.81L117.5,425l-.55.18,0,.57c.33,12-7.49,24-19.25,27.65l0,0-1.32.39-.44.14h0c-11.82,3.61-25-1.86-31.48-12.05l-.31-.49-.55.17-8.91,2.74-1.18-3.81,8-2.42.73-.22-.22-.73c-.09-.29-.18-.57-.27-.83h0c-.1-.27-.18-.52-.26-.78-.25-.81-.49-1.6-.67-2.35l-.19-.79-.77.24-8,2.45-1.19-3.82,8.68-2.7.59-.19-.06-.61c-.91-9.66,3-15.64,6.18-19.93l3.47,4.38c-.24.26-.48.53-.71.8h0l0,0a24.93,24.93,0,0,0-5.19,7.84c-1.33,3.52-1.72,8,.09,13.89h0c1.69,5.53,6.18,9.54,11.72,11.69a28.56,28.56,0,0,0,18.37.57l1.84-.56h0a28.53,28.53,0,0,0,14.84-10.78c3.37-4.88,4.83-10.71,3.13-16.25h0c-1.85-6-4.93-9.51-8.16-11.7a25.7,25.7,0,0,0-8.7-3.49h0l-.64-.16.39-5.59c5,1.78,11.61,4.53,16.31,13l.3.54.59-.18,8.29-2.55ZM86.92,435.22l-2.53-.9,1.68,2.1A22,22,0,0,0,88,438.57c-4.56-2.33-8.39-6-9.88-10.85s-.4-10,2.06-14.46a20.62,20.62,0,0,0-.37,2.84l-.16,2.57,1.54-2.07A9.35,9.35,0,0,1,86,413.13h0c5.29-1.64,11.26,1.91,13.15,8.16h0c1.93,6.23-1,12.49-6.32,14.13A9.23,9.23,0,0,1,86.92,435.22ZM97.09,421.9c-1.68-5.53-6.68-8-10.52-6.82s-6.58,6-4.85,11.57,6.67,8,10.51,6.82S98.8,427.41,97.09,421.9Zm-8.3.47a2,2,0,0,1,2.5,1.29,2,2,0,0,1-1.38,2.5,2,2,0,0,1-2.5-1.28A2.09,2.09,0,0,1,88.79,422.37Z"/></g></g></g></svg>