<svg width="164" height="20" viewBox="0 0 164 20" fill="none" xmlns="http://www.w3.org/2000/svg">
<path d="M55.4434 14.418C54.9688 14.9453 54.2744 15.3701 53.3604 15.6924C52.4463 16.0146 51.4443 16.1758 50.3545 16.1758C48.6787 16.1758 47.3398 15.6631 46.3379 14.6377C45.3359 13.6123 44.7998 12.1855 44.7295 10.3574L44.7207 9.25C44.7207 7.99023 44.9434 6.8916 45.3887 5.9541C45.834 5.01074 46.4697 4.28711 47.2959 3.7832C48.1279 3.27344 49.0889 3.01855 50.1787 3.01855C51.7725 3.01855 53.0088 3.38477 53.8877 4.11719C54.7725 4.84375 55.2881 5.93066 55.4346 7.37793H52.4639C52.3584 6.66309 52.1299 6.15332 51.7783 5.84863C51.4268 5.54395 50.9287 5.3916 50.2842 5.3916C49.5107 5.3916 48.9131 5.71973 48.4912 6.37598C48.0693 7.03223 47.8555 7.96973 47.8496 9.18848V9.96191C47.8496 11.2393 48.0664 12.2002 48.5 12.8447C48.9395 13.4834 49.6279 13.8027 50.5654 13.8027C51.3682 13.8027 51.9658 13.624 52.3584 13.2666V11.2803H50.2139V9.16211H55.4434V14.418ZM61.2213 13.627H66.5914V16H58.1363V3.20312H61.2213V13.627ZM79.0666 9.86523C79.0666 11.1133 78.8352 12.2178 78.3723 13.1787C77.9094 14.1396 77.2502 14.8809 76.3947 15.4023C75.5451 15.918 74.5754 16.1758 73.4855 16.1758C72.3957 16.1758 71.4289 15.9268 70.5852 15.4287C69.7414 14.9248 69.0822 14.207 68.6076 13.2754C68.1389 12.3438 67.8928 11.2744 67.8693 10.0674V9.34668C67.8693 8.09277 68.0979 6.98828 68.5549 6.0332C69.0178 5.07227 69.677 4.33105 70.5324 3.80957C71.3937 3.28809 72.3723 3.02734 73.468 3.02734C74.552 3.02734 75.5187 3.28516 76.3684 3.80078C77.218 4.31641 77.8771 5.05176 78.3459 6.00684C78.8205 6.95605 79.0607 8.0459 79.0666 9.27637V9.86523ZM75.9289 9.3291C75.9289 8.05762 75.715 7.09375 75.2873 6.4375C74.8654 5.77539 74.259 5.44434 73.468 5.44434C71.9211 5.44434 71.1037 6.60449 71.0158 8.9248L71.007 9.86523C71.007 11.1191 71.215 12.083 71.6311 12.7568C72.0471 13.4307 72.6652 13.7676 73.4855 13.7676C74.2648 13.7676 74.8654 13.4365 75.2873 12.7744C75.7092 12.1123 75.923 11.1602 75.9289 9.91797V9.3291ZM81.5574 16V3.20312H86.1541C87.8006 3.20312 89.0516 3.50488 89.907 4.1084C90.7684 4.71191 91.199 5.58789 91.199 6.73633C91.199 7.39844 91.0467 7.96387 90.742 8.43262C90.4373 8.90137 89.9891 9.24707 89.3973 9.46973C90.0652 9.64551 90.5779 9.97363 90.9354 10.4541C91.2928 10.9346 91.4715 11.5205 91.4715 12.2119C91.4715 13.4658 91.073 14.4092 90.2762 15.042C89.4852 15.6689 88.3104 15.9883 86.7518 16H81.5574ZM84.6424 10.5596V13.627H86.6639C87.2205 13.627 87.6482 13.501 87.9471 13.249C88.2459 12.9912 88.3953 12.6309 88.3953 12.168C88.3953 11.1016 87.865 10.5654 86.8045 10.5596H84.6424ZM84.6424 8.53809H86.2508C86.9246 8.53223 87.4051 8.40918 87.6922 8.16895C87.9793 7.92871 88.1229 7.57422 88.1229 7.10547C88.1229 6.56641 87.9676 6.17969 87.657 5.94531C87.3465 5.70508 86.8455 5.58496 86.1541 5.58496H84.6424V8.53809ZM101.345 13.6094H97.1176L96.3793 16H93.0834L97.7768 3.20312H100.677L105.406 16H102.092L101.345 13.6094ZM97.8559 11.2275H100.607L99.227 6.78906L97.8559 11.2275ZM110.331 13.627H115.701V16H107.246V3.20312H110.331V13.627ZM124.503 12.5986C124.503 12.1475 124.341 11.7959 124.019 11.5439C123.703 11.292 123.143 11.0312 122.34 10.7617C121.538 10.4922 120.881 10.2314 120.372 9.97949C118.713 9.16504 117.884 8.0459 117.884 6.62207C117.884 5.91309 118.089 5.28906 118.5 4.75C118.916 4.20508 119.502 3.7832 120.257 3.48438C121.013 3.17969 121.863 3.02734 122.806 3.02734C123.726 3.02734 124.549 3.19141 125.276 3.51953C126.008 3.84766 126.577 4.31641 126.981 4.92578C127.385 5.5293 127.588 6.2207 127.588 7H124.511C124.511 6.47852 124.35 6.07422 124.028 5.78711C123.712 5.5 123.281 5.35645 122.736 5.35645C122.185 5.35645 121.749 5.47949 121.426 5.72559C121.11 5.96582 120.952 6.27344 120.952 6.64844C120.952 6.97656 121.128 7.27539 121.479 7.54492C121.831 7.80859 122.449 8.08398 123.334 8.37109C124.218 8.65234 124.945 8.95703 125.513 9.28516C126.896 10.082 127.588 11.1807 127.588 12.5811C127.588 13.7002 127.166 14.5791 126.322 15.2178C125.478 15.8564 124.321 16.1758 122.85 16.1758C121.813 16.1758 120.873 15.9912 120.029 15.6221C119.191 15.2471 118.558 14.7373 118.13 14.0928C117.709 13.4424 117.498 12.6953 117.498 11.8516H120.591C120.591 12.5371 120.767 13.0439 121.119 13.3721C121.476 13.6943 122.053 13.8555 122.85 13.8555C123.36 13.8555 123.761 13.7471 124.054 13.5303C124.353 13.3076 124.503 12.9971 124.503 12.5986ZM137.338 13.6094H133.111L132.372 16H129.076L133.77 3.20312H136.67L141.399 16H138.085L137.338 13.6094ZM133.849 11.2275H136.6L135.22 6.78906L133.849 11.2275ZM151.299 10.9023H146.324V16H143.239V3.20312H151.8V5.58496H146.324V8.5293H151.299V10.9023ZM161.919 10.5771H157.068V13.627H162.798V16H153.983V3.20312H162.816V5.58496H157.068V8.2832H161.919V10.5771Z" fill="white"/>
<path d="M11.1399 15.1296C10.6468 15.6907 9.92543 16.1427 8.9758 16.4856C8.02618 16.8285 6.98524 17 5.85299 17C4.11201 17 2.72105 16.4545 1.68011 15.3634C0.639172 14.2723 0.0821793 12.7542 0.00913103 10.809L0 9.63059C0 8.29014 0.231319 7.12113 0.693958 6.12358C1.1566 5.1198 1.81708 4.34981 2.67539 3.81363C3.5398 3.27121 4.53812 3 5.67037 3C7.32613 3 8.61056 3.38967 9.52366 4.169C10.4429 4.94211 10.9785 6.09864 11.1307 7.63861H8.04444C7.93487 6.87798 7.69746 6.33556 7.33222 6.01136C6.96698 5.68715 6.44955 5.52505 5.77994 5.52505C4.97641 5.52505 4.3555 5.87419 3.91721 6.57248C3.47892 7.27076 3.25673 8.26831 3.25065 9.56513V10.3881C3.25065 11.7473 3.47588 12.7698 3.92634 13.4556C4.38289 14.1352 5.09816 14.475 6.07213 14.475C6.9061 14.475 7.52701 14.2848 7.93487 13.9045V11.7909H5.70689V9.53707H11.1399V15.1296Z" fill="white"/>
<path d="M20.795 13.1937C20.795 12.7137 20.6276 12.3396 20.2928 12.0715C19.9641 11.8034 19.3827 11.5259 18.5488 11.2391C17.7148 10.9523 17.033 10.6749 16.5034 10.4068C14.7807 9.54019 13.9193 8.34937 13.9193 6.83434C13.9193 6.07994 14.1324 5.41594 14.5585 4.84235C14.9907 4.26253 15.5995 3.81363 16.3847 3.49566C17.17 3.17145 18.0527 3.00935 19.0327 3.00935C19.9884 3.00935 20.8437 3.18392 21.5985 3.53307C22.3595 3.88221 22.9499 4.38098 23.37 5.02939C23.79 5.67157 24 6.40726 24 7.23647H20.8041C20.8041 6.68159 20.6367 6.25139 20.3019 5.94589C19.9732 5.64039 19.5258 5.48764 18.9597 5.48764C18.3875 5.48764 17.934 5.61857 17.5991 5.88043C17.2704 6.13605 17.1061 6.46337 17.1061 6.86239C17.1061 7.21153 17.2887 7.5295 17.6539 7.8163C18.0192 8.09686 18.6614 8.38989 19.5806 8.69539C20.4998 8.99466 21.2546 9.31886 21.8451 9.668C23.2817 10.5159 24 11.6849 24 13.175C24 14.3658 23.5617 15.301 22.6851 15.9806C21.8086 16.6602 20.6063 17 19.0784 17C18.0009 17 17.0239 16.8036 16.1473 16.4108C15.2768 16.0118 14.6194 15.4694 14.175 14.7836C13.7367 14.0915 13.5176 13.2966 13.5176 12.3988H16.7317C16.7317 13.1283 16.9143 13.6676 17.2796 14.0167C17.6509 14.3596 18.2505 14.5311 19.0784 14.5311C19.608 14.5311 20.025 14.4157 20.3293 14.185C20.6398 13.9481 20.795 13.6177 20.795 13.1937Z" fill="white"/>
</svg>
