<svg width="18" height="14" viewBox="0 0 18 14" fill="none" xmlns="http://www.w3.org/2000/svg">
<path d="M1.35 0C0.843615 0 0.45 0.371085 0.45 0.848485C0.45 1.32588 0.843615 1.69697 1.35 1.69697H15.3V0H1.35ZM0 1.96874V12.9394C0 13.527 0.50175 14 1.125 14H16.875C17.4982 14 18 13.527 18 12.9394V11.0303H11.025C10.4095 11.0303 9.9 10.5499 9.9 9.9697V6.57576C9.9 5.99552 10.4095 5.51515 11.025 5.51515H18V3.60606C18 3.01848 17.4982 2.54545 16.875 2.54545L1.13906 2.5323C0.688208 2.48165 0.286335 2.2758 0 1.96884V1.96874ZM11.025 6.36364C10.8926 6.36364 10.8 6.4509 10.8 6.57576V9.9697C10.8 10.0946 10.8926 10.1818 11.025 10.1818H18V6.36364H11.025ZM13.275 7.63636C13.6478 7.63636 13.95 7.92126 13.95 8.27273C13.95 8.62419 13.6478 8.90909 13.275 8.90909C12.9022 8.90909 12.6 8.62419 12.6 8.27273C12.6 7.92126 12.9022 7.63636 13.275 7.63636Z" fill="#515172"/>
</svg>
