<svg width="39" height="10" viewBox="0 0 39 10" fill="none" xmlns="http://www.w3.org/2000/svg">
<path d="M0.867188 9V0.46875H3.79102C4.75586 0.46875 5.49023 0.662109 5.99414 1.04883C6.49805 1.43555 6.75 2.01172 6.75 2.77734C6.75 3.16797 6.64453 3.51953 6.43359 3.83203C6.22266 4.14453 5.91406 4.38672 5.50781 4.55859C5.96875 4.68359 6.32422 4.91992 6.57422 5.26758C6.82812 5.61133 6.95508 6.02539 6.95508 6.50977C6.95508 7.31055 6.69727 7.92578 6.18164 8.35547C5.66992 8.78516 4.93555 9 3.97852 9H0.867188ZM2.34961 5.15039V7.81641H3.99609C4.46094 7.81641 4.82422 7.70117 5.08594 7.4707C5.34766 7.24023 5.47852 6.91992 5.47852 6.50977C5.47852 5.62305 5.02539 5.16992 4.11914 5.15039H2.34961ZM2.34961 4.06055H3.80273C4.26367 4.06055 4.62305 3.95703 4.88086 3.75C5.14258 3.53906 5.27344 3.24219 5.27344 2.85938C5.27344 2.4375 5.15234 2.13281 4.91016 1.94531C4.67188 1.75781 4.29883 1.66406 3.79102 1.66406H2.34961V4.06055ZM13.4238 5.19141H9.91992V7.81641H14.0156V9H8.4375V0.46875H13.9746V1.66406H9.91992V4.01953H13.4238V5.19141ZM16.7051 5.83008V9H15.2227V0.46875H18.4863C19.4395 0.46875 20.1953 0.716797 20.7539 1.21289C21.3164 1.70898 21.5977 2.36523 21.5977 3.18164C21.5977 4.01758 21.3223 4.66797 20.7715 5.13281C20.2246 5.59766 19.457 5.83008 18.4688 5.83008H16.7051ZM16.7051 4.64062H18.4863C19.0137 4.64062 19.416 4.51758 19.6934 4.27148C19.9707 4.02148 20.1094 3.66211 20.1094 3.19336C20.1094 2.73242 19.9688 2.36523 19.6875 2.0918C19.4062 1.81445 19.0195 1.67188 18.5273 1.66406H16.7051V4.64062ZM31.3945 9H25.6582V8.02148L28.5 4.92188C28.9102 4.46484 29.2012 4.08398 29.373 3.7793C29.5488 3.4707 29.6367 3.16211 29.6367 2.85352C29.6367 2.44727 29.5215 2.11914 29.291 1.86914C29.0645 1.61914 28.7578 1.49414 28.3711 1.49414C27.9102 1.49414 27.5527 1.63477 27.2988 1.91602C27.0449 2.19727 26.918 2.58203 26.918 3.07031H25.4941C25.4941 2.55078 25.6113 2.08398 25.8457 1.66992C26.084 1.25195 26.4219 0.927734 26.8594 0.697266C27.3008 0.466797 27.8086 0.351562 28.3828 0.351562C29.2109 0.351562 29.8633 0.560547 30.3398 0.978516C30.8203 1.39258 31.0605 1.9668 31.0605 2.70117C31.0605 3.12695 30.9395 3.57422 30.6973 4.04297C30.459 4.50781 30.0664 5.03711 29.5195 5.63086L27.4336 7.86328H31.3945V9ZM38.0391 5.4082C38.0391 6.63477 37.8086 7.56055 37.3477 8.18555C36.8906 8.80664 36.1934 9.11719 35.2559 9.11719C34.334 9.11719 33.6387 8.81445 33.1699 8.20898C32.7051 7.59961 32.4668 6.69922 32.4551 5.50781V4.03125C32.4551 2.80469 32.6836 1.88477 33.1406 1.27148C33.6016 0.658203 34.3027 0.351562 35.2441 0.351562C36.1777 0.351562 36.873 0.650391 37.3301 1.24805C37.791 1.8457 38.0273 2.74023 38.0391 3.93164V5.4082ZM36.6152 3.81445C36.6152 3.01367 36.5059 2.42773 36.2871 2.05664C36.0684 1.68164 35.7207 1.49414 35.2441 1.49414C34.7793 1.49414 34.4375 1.67188 34.2188 2.02734C34 2.37891 33.8848 2.92969 33.873 3.67969V5.61328C33.873 6.41016 33.9844 7.00391 34.207 7.39453C34.4297 7.78516 34.7793 7.98047 35.2559 7.98047C35.7129 7.98047 36.0508 7.80078 36.2695 7.44141C36.4883 7.07812 36.6035 6.51172 36.6152 5.74219V3.81445Z" fill="black"/>
</svg>
