<svg width="39" height="10" viewBox="0 0 39 10" fill="none" xmlns="http://www.w3.org/2000/svg">
<path d="M5.85352 5.19141H2.34961V7.81641H6.44531V9H0.867188V0.46875H6.4043V1.66406H2.34961V4.01953H5.85352V5.19141ZM10.7871 5.71289H9.13477V9H7.65234V0.46875H10.6523C11.6367 0.46875 12.3965 0.689453 12.9316 1.13086C13.4668 1.57227 13.7344 2.21094 13.7344 3.04688C13.7344 3.61719 13.5957 4.0957 13.3184 4.48242C13.0449 4.86523 12.6621 5.16016 12.1699 5.36719L14.0859 8.92383V9H12.498L10.7871 5.71289ZM9.13477 4.52344H10.6582C11.1582 4.52344 11.5488 4.39844 11.8301 4.14844C12.1113 3.89453 12.252 3.54883 12.252 3.11133C12.252 2.6543 12.1211 2.30078 11.8594 2.05078C11.6016 1.80078 11.2148 1.67188 10.6992 1.66406H9.13477V4.52344ZM21.6504 6.22266C21.5645 7.13281 21.2285 7.84375 20.6426 8.35547C20.0566 8.86328 19.2773 9.11719 18.3047 9.11719C17.625 9.11719 17.0254 8.95703 16.5059 8.63672C15.9902 8.3125 15.5918 7.85352 15.3105 7.25977C15.0293 6.66602 14.8828 5.97656 14.8711 5.19141V4.39453C14.8711 3.58984 15.0137 2.88086 15.2988 2.26758C15.584 1.6543 15.9922 1.18164 16.5234 0.849609C17.0586 0.517578 17.6758 0.351562 18.375 0.351562C19.3164 0.351562 20.0742 0.607422 20.6484 1.11914C21.2227 1.63086 21.5566 2.35352 21.6504 3.28711H20.1738C20.1035 2.67383 19.9238 2.23242 19.6348 1.96289C19.3496 1.68945 18.9297 1.55273 18.375 1.55273C17.7305 1.55273 17.2344 1.78906 16.8867 2.26172C16.543 2.73047 16.3672 3.41992 16.3594 4.33008V5.08594C16.3594 6.00781 16.5234 6.71094 16.8516 7.19531C17.1836 7.67969 17.668 7.92188 18.3047 7.92188C18.8867 7.92188 19.3242 7.79102 19.6172 7.5293C19.9102 7.26758 20.0957 6.83203 20.1738 6.22266H21.6504ZM31.4766 9H25.7402V8.02148L28.582 4.92188C28.9922 4.46484 29.2832 4.08398 29.4551 3.7793C29.6309 3.4707 29.7188 3.16211 29.7188 2.85352C29.7188 2.44727 29.6035 2.11914 29.373 1.86914C29.1465 1.61914 28.8398 1.49414 28.4531 1.49414C27.9922 1.49414 27.6348 1.63477 27.3809 1.91602C27.127 2.19727 27 2.58203 27 3.07031H25.5762C25.5762 2.55078 25.6934 2.08398 25.9277 1.66992C26.166 1.25195 26.5039 0.927734 26.9414 0.697266C27.3828 0.466797 27.8906 0.351562 28.4648 0.351562C29.293 0.351562 29.9453 0.560547 30.4219 0.978516C30.9023 1.39258 31.1426 1.9668 31.1426 2.70117C31.1426 3.12695 31.0215 3.57422 30.7793 4.04297C30.541 4.50781 30.1484 5.03711 29.6016 5.63086L27.5156 7.86328H31.4766V9ZM38.1211 5.4082C38.1211 6.63477 37.8906 7.56055 37.4297 8.18555C36.9727 8.80664 36.2754 9.11719 35.3379 9.11719C34.416 9.11719 33.7207 8.81445 33.252 8.20898C32.7871 7.59961 32.5488 6.69922 32.5371 5.50781V4.03125C32.5371 2.80469 32.7656 1.88477 33.2227 1.27148C33.6836 0.658203 34.3848 0.351562 35.3262 0.351562C36.2598 0.351562 36.9551 0.650391 37.4121 1.24805C37.873 1.8457 38.1094 2.74023 38.1211 3.93164V5.4082ZM36.6973 3.81445C36.6973 3.01367 36.5879 2.42773 36.3691 2.05664C36.1504 1.68164 35.8027 1.49414 35.3262 1.49414C34.8613 1.49414 34.5195 1.67188 34.3008 2.02734C34.082 2.37891 33.9668 2.92969 33.9551 3.67969V5.61328C33.9551 6.41016 34.0664 7.00391 34.2891 7.39453C34.5117 7.78516 34.8613 7.98047 35.3379 7.98047C35.7949 7.98047 36.1328 7.80078 36.3516 7.44141C36.5703 7.07812 36.6855 6.51172 36.6973 5.74219V3.81445Z" fill="black"/>
</svg>
