<svg width="16" height="16" viewBox="0 0 16 16" fill="none" xmlns="http://www.w3.org/2000/svg">
<path d="M14.1406 3.1084C14.5156 3.59974 14.833 4.13353 15.0865 4.69907L7.89581 10.0711L4.89062 8.16189V5.86506L7.89581 7.77424L14.1406 3.1084Z" fill="#21A038"/>
<path d="M1.82371 7.99974C1.82371 7.89667 1.82619 7.79429 1.83115 7.6925L0.00991872 7.60205C0.00371986 7.73398 2.20087e-06 7.86717 2.20087e-06 8.00159C-0.000772681 9.05191 0.203075 10.092 0.599857 11.0622C0.996637 12.0325 1.57854 12.9139 2.31218 13.6557L3.60402 12.3471C3.03929 11.7771 2.59129 11.0995 2.28576 10.3535C1.98023 9.6074 1.82321 8.80748 1.82371 7.99974Z" fill="url(#paint0_linear)"/>
<path d="M7.8946 1.84797C7.99625 1.84797 8.09726 1.85175 8.19768 1.85677L8.28881 0.0104055C8.15826 0.00412326 8.02682 0.000982496 7.8946 0.000982496C6.85774 -0.000298937 5.8309 0.205994 4.87296 0.608016C3.91503 1.01004 3.04488 1.59987 2.3125 2.34365L3.60434 3.65288C4.16682 3.08036 4.83542 2.62616 5.5717 2.31641C6.30797 2.00667 7.09737 1.84747 7.8946 1.84797Z" fill="url(#paint1_linear)"/>
<path d="M7.89485 14.1519C7.7932 14.1519 7.69214 14.1519 7.59113 14.1437L7.5 15.9895C7.631 15.9962 7.76263 15.9995 7.89485 15.9995C8.93127 16.0006 9.95762 15.7942 10.915 15.3921C11.8725 14.9899 12.742 14.4 13.4739 13.6562L12.1845 12.3477C11.6219 12.9199 10.9534 13.3738 10.2173 13.6834C9.48113 13.9931 8.69188 14.1523 7.89485 14.1519Z" fill="url(#paint2_linear)"/>
<path d="M11.3169 2.92127L12.8517 1.77476C11.4488 0.623503 9.69771 -0.00319575 7.89258 1.22551e-05V1.84763C9.11493 1.84609 10.3089 2.22047 11.3169 2.92127Z" fill="url(#paint3_linear)"/>
<path d="M15.7877 8.00003C15.7887 7.51938 15.7472 7.03957 15.6637 6.56641L13.9646 7.83542C13.9646 7.89011 13.9646 7.94475 13.9646 8.00003C13.9651 8.85962 13.7872 9.70973 13.4428 10.4952C13.0983 11.2807 12.5947 11.9841 11.9648 12.5597L13.1904 13.9324C14.0093 13.1832 14.6637 12.2679 15.1111 11.246C15.5586 10.224 15.7891 9.11809 15.7877 8.00003Z" fill="#21A038"/>
<path d="M7.89461 14.1522C7.04637 14.1525 6.20751 13.9722 5.43235 13.6231C4.65722 13.274 3.96306 12.7637 3.39484 12.1255L2.04102 13.3669C2.7802 14.1969 3.68328 14.8602 4.6917 15.3138C5.70011 15.7674 6.79132 16.0011 7.89461 15.9998V14.1522Z" fill="url(#paint4_linear)"/>
<path d="M3.82347 3.43957L2.59857 2.06689C1.77943 2.81598 1.12481 3.73119 0.677139 4.75317C0.229479 5.77515 -0.00122048 6.88108 4.85566e-06 7.99925H1.82371C1.82334 7.1397 2.00116 6.2896 2.34565 5.50411C2.69014 4.71865 3.19362 4.01527 3.82347 3.43957Z" fill="url(#paint5_linear)"/>
<defs>
<linearGradient id="paint0_linear" x1="2.68101" y1="13.4251" x2="0.640617" y2="7.60508" gradientUnits="userSpaceOnUse">
<stop offset="0.14" stop-color="#F1E813"/>
<stop offset="0.3" stop-color="#E6E418"/>
<stop offset="0.58" stop-color="#C9DA26"/>
<stop offset="0.89" stop-color="#A2CC39"/>
</linearGradient>
<linearGradient id="paint1_linear" x1="2.8332" y1="2.67033" x2="7.98245" y2="0.734077" gradientUnits="userSpaceOnUse">
<stop offset="0.06" stop-color="#0FA7DF"/>
<stop offset="0.54" stop-color="#0098F8"/>
<stop offset="0.92" stop-color="#0290EA"/>
</linearGradient>
<linearGradient id="paint2_linear" x1="7.37977" y1="14.8844" x2="13.1906" y2="13.5891" gradientUnits="userSpaceOnUse">
<stop offset="0.12" stop-color="#A2CC39"/>
<stop offset="0.28" stop-color="#86C239"/>
<stop offset="0.87" stop-color="#219F38"/>
</linearGradient>
<linearGradient id="paint3_linear" x1="7.51324" y1="0.618817" x2="12.4862" y2="2.13308" gradientUnits="userSpaceOnUse">
<stop offset="0.06" stop-color="#0290EA"/>
<stop offset="0.79" stop-color="#0C89CA"/>
</linearGradient>
<linearGradient id="paint4_linear" x1="2.49849" y1="13.142" x2="7.91648" y2="15.14" gradientUnits="userSpaceOnUse">
<stop offset="0.13" stop-color="#F1E813"/>
<stop offset="0.3" stop-color="#EAE616"/>
<stop offset="0.53" stop-color="#D8DF1F"/>
<stop offset="0.8" stop-color="#BAD52D"/>
<stop offset="0.98" stop-color="#A2CC39"/>
</linearGradient>
<linearGradient id="paint5_linear" x1="0.679399" y1="8.22289" x2="2.89814" y2="2.52778" gradientUnits="userSpaceOnUse">
<stop offset="0.07" stop-color="#A2CC39"/>
<stop offset="0.26" stop-color="#81C45E"/>
<stop offset="0.92" stop-color="#0FA7DF"/>
</linearGradient>
</defs>
</svg>
