<svg width="20" height="18" viewBox="0 0 20 18" fill="none" xmlns="http://www.w3.org/2000/svg">
<path d="M8.92861 11.9668C8.89896 11.9668 8.87181 11.989 8.86931 12.0186V12.0211C8.86686 12.0532 8.89156 12.0828 8.92366 12.0853H8.92611C8.96066 12.0853 8.98536 12.0581 8.98536 12.026C8.98536 11.9914 8.96066 11.9668 8.92861 11.9668Z" fill="#222220"/>
<path d="M8.92532 11.9641C8.92777 11.9641 8.92777 11.9666 8.92777 11.9666C8.93027 11.9666 8.93027 11.9641 8.93272 11.9641H8.92532ZM12.9598 16.0135L12.6191 15.8826L12.7129 15.5295L12.8166 15.1443C12.35 15.3839 11.8611 15.5764 11.3574 15.7197C11.1105 15.7888 10.9327 15.8209 10.9327 15.8209V16.0703C10.629 16.1197 10.3228 16.1468 10.0142 16.1493H9.98702C9.67837 16.1468 9.37217 16.1197 9.06847 16.0703V15.8234C9.06847 15.8234 8.88822 15.7888 8.64132 15.7197C8.13762 15.5764 7.64872 15.3839 7.18207 15.1443L7.28332 15.5295L7.37957 15.8826L7.03637 16.0135L6.66602 16.1542C7.17467 16.4184 7.70552 16.6382 8.25367 16.811L8.12282 17.1666C8.71787 17.3937 9.35492 17.5048 9.99192 17.49H10.0068C10.6438 17.5048 11.2808 17.3937 11.8759 17.1666L11.7475 16.811C12.2932 16.6382 12.824 16.4184 13.3327 16.1542L12.9598 16.0135ZM7.07837 16.1764L7.63142 15.9913L7.46602 15.4481C7.82897 15.6283 8.20427 15.7789 8.59192 15.8974L8.32032 16.6382C7.89317 16.5246 7.47587 16.369 7.07837 16.1764ZM10.0142 17.3147L10.0018 17.3048C9.45862 17.3024 8.91787 17.2283 8.39442 17.0851L8.72772 16.1814C9.14257 16.2851 9.56972 16.3419 9.99932 16.3443H10.0265C10.4561 16.3394 10.8833 16.2851 11.2981 16.1814L11.6314 17.0851C11.1055 17.2332 10.5598 17.3098 10.0142 17.3147ZM11.6981 16.653V16.6456L11.4265 15.9048C11.8142 15.7863 12.1895 15.6357 12.5524 15.4555L12.387 15.9987L12.9475 16.1863C12.5475 16.3814 12.1277 16.5394 11.6981 16.653ZM9.99937 1.91966C10.5574 1.90484 11.1055 2.07274 11.5598 2.3962C11.6315 2.03077 11.7673 1.68015 11.9623 1.36163L11.4018 1.42583L11.1105 0.801138L10.545 1.0925L9.99937 0.551758L9.45367 1.0925L8.88822 0.801138L8.59687 1.42583L8.03637 1.36163C8.23147 1.68015 8.36727 2.03077 8.43887 2.3962C8.89317 2.07274 9.44132 1.90484 9.99937 1.91966ZM8.57217 1.64311L8.72777 1.6604L8.79442 1.51966L8.98947 1.0999L9.35242 1.28756L9.49317 1.35916L9.60677 1.25546L9.99937 0.857928L10.3919 1.25546L10.5055 1.36657L10.6463 1.29497L11.0068 1.10731L11.2043 1.52706L11.271 1.66781L11.4265 1.65052L11.5747 1.63324C11.5154 1.76904 11.4636 1.90978 11.4216 2.05299C10.5302 1.5962 9.47097 1.5962 8.57962 2.05299C8.53762 1.90978 8.48577 1.76904 8.42652 1.63324L8.57217 1.64311ZM17.3229 7.01592L17.2562 6.93447C16.7969 6.34927 16.3599 5.79372 15.5797 5.53937C15.6118 5.51222 15.6439 5.48752 15.6784 5.46532C16.0488 5.25542 16.3105 4.89497 16.3945 4.47767C16.4364 4.09987 16.3303 3.72211 16.0982 3.42088L15.8513 3.11224L15.6957 3.48014C15.6957 3.50236 15.4216 4.09247 14.8685 4.09247H14.7056C14.7352 3.70483 14.5945 3.32211 14.3204 3.04557C13.9871 2.70483 13.5278 2.5147 13.0513 2.51717C12.9624 2.51717 12.8735 2.52458 12.7871 2.53693L12.4093 2.611L12.6439 2.91964C12.8266 3.16656 12.992 3.59372 12.7969 3.82335C12.7031 3.90483 12.5969 3.96903 12.4809 4.01347C12.234 4.12952 11.8784 4.29497 11.8784 4.70977C11.8784 4.97892 12.0883 5.26037 12.4661 5.49987C13.5797 6.20607 14.2685 6.93447 14.5673 7.75422C15.029 9.00357 14.4266 9.71472 13.8414 10.09L13.5797 10.2579L13.8093 10.4678C14.0142 10.6431 14.2661 10.7517 14.5352 10.7789H14.7599C14.9895 10.7789 15.2167 10.7468 15.4364 10.6801C15.3821 10.7764 15.3155 10.8678 15.2439 10.9517C14.9105 11.3394 14.4167 11.5517 13.9056 11.5246H13.6858L13.6685 11.7443C13.6661 12.053 13.8019 12.3443 14.0364 12.5443C14.0982 12.5987 14.1673 12.6431 14.2414 12.6777C13.8759 13.0332 13.6685 13.5196 13.6611 14.0308C13.6611 14.3098 13.5969 14.5863 13.4759 14.8382L13.229 15.2085H13.6685C14.3945 15.2085 14.95 15.0085 15.3352 14.611C15.5352 14.4011 15.6834 14.1468 15.7698 13.8703C15.913 13.9912 16.0809 14.0752 16.2636 14.1172C16.35 14.1369 16.4389 14.1468 16.5278 14.1468C16.6611 14.1468 16.7945 14.1295 16.9229 14.0999L17.2043 14.0258L17.0809 13.7641C16.9253 13.3468 16.9253 12.8851 17.0809 12.4678C17.1722 12.1962 17.2364 11.9147 17.271 11.6283C17.4932 11.7419 17.7401 11.7987 17.9895 11.7962C18.3994 11.8011 18.7821 11.5987 19.0043 11.2554L19.1401 11.0085L18.8932 10.9048C18.0661 10.5616 17.8834 9.63817 17.8463 9.13937C17.9278 9.15667 18.0093 9.16657 18.0932 9.16902L18.1624 9.21592C19.0611 9.21592 19.3624 8.29987 19.3747 8.26037L19.4759 7.93692H19.1377C18.4266 7.91222 17.7624 7.57642 17.3229 7.01592ZM18.1648 8.96657H18.1303C17.95 8.96902 17.7722 8.91962 17.6192 8.82582C17.6192 8.82582 17.4883 10.611 18.8192 11.1641V11.1715C18.6439 11.4382 18.3426 11.5962 18.0241 11.5912C17.6636 11.6135 17.3155 11.4604 17.0883 11.1814C17.0957 11.6011 17.0266 12.0209 16.8858 12.4159C16.7056 12.8925 16.7056 13.4209 16.8858 13.8974C16.7747 13.9246 16.6636 13.9394 16.55 13.9394C16.4809 13.9394 16.4093 13.932 16.3426 13.9147C16.0142 13.8357 15.7525 13.5937 15.6463 13.2752C15.6463 13.2752 15.6982 14.9888 13.7006 14.9888H13.6858C13.8364 14.7024 13.9155 14.3838 13.913 14.0604C13.9994 12.7937 14.8587 12.6135 14.8587 12.6135C14.6216 12.5838 14.3969 12.4999 14.1994 12.3666C14.0192 12.2159 13.9155 11.9937 13.9105 11.7592C14.4883 11.7838 15.0463 11.5443 15.4241 11.1048C15.6513 10.8456 15.8019 10.5295 15.8661 10.1912C15.5476 10.4308 15.155 10.5517 14.7574 10.5345H14.555C14.3401 10.5122 14.1352 10.4283 13.9698 10.2875C14.7303 9.79372 15.2636 8.94927 14.792 7.66777C14.4118 6.64062 13.5006 5.87272 12.5846 5.29497C12.2809 5.10727 12.0982 4.89497 12.0982 4.71222C12.0982 4.28262 12.708 4.27027 12.9599 3.97149C13.2488 3.63569 13.0685 3.09248 12.8167 2.76656C12.8883 2.75421 12.9624 2.74927 13.034 2.74927C13.4463 2.74433 13.8439 2.90977 14.1303 3.20606C14.4216 3.48261 14.5327 3.89989 14.4216 4.28507L14.555 4.31222C14.6364 4.32707 14.7179 4.33447 14.8019 4.33692H14.8562C15.5797 4.33692 15.9056 3.5789 15.9056 3.5789C15.9056 3.5789 16.6759 4.52707 15.5426 5.26777C15.3476 5.39372 15.2611 5.51472 15.2957 5.63817L15.313 5.71962L15.3945 5.73447C16.2167 5.95667 16.629 6.52457 17.1401 7.16902C17.6241 7.78382 18.355 8.15422 19.1377 8.18137H19.1525C19.1525 8.18137 18.9056 8.96657 18.1648 8.96657Z" fill="#222220"/>
<path d="M16.5802 5.65101C16.8567 5.80901 17.0962 6.02386 17.2839 6.28061C17.4246 6.49791 17.6246 6.67076 17.8617 6.77446C17.9506 6.80411 18.0469 6.81891 18.1407 6.81891C18.5185 6.81891 18.8641 6.60411 19.037 6.26826L19.1802 5.94731L18.832 5.92756C18.4567 5.85841 18.1185 5.66581 17.8691 5.37691C17.6839 5.17691 17.4246 5.06086 17.1506 5.05841C16.9382 5.06086 16.7333 5.12506 16.5555 5.23866L16.2345 5.46336L16.5802 5.65101ZM17.158 5.29791L17.1506 5.30036C17.3604 5.30036 17.558 5.39176 17.6987 5.54731C17.9876 5.87816 18.3827 6.09791 18.8172 6.16951C18.6839 6.41891 18.4246 6.57446 18.1407 6.57691C18.0716 6.57691 18.0024 6.56456 17.9358 6.54236C17.5358 6.40656 17.395 5.80161 16.7012 5.43621C16.837 5.34731 16.995 5.30036 17.158 5.29791ZM16.7432 8.83371L16.7383 8.82876C16.5358 7.19911 15.3531 6.02136 14.037 5.30776C13.916 5.24111 13.8025 5.18681 13.6938 5.13491C14.237 5.24606 14.8025 5.11271 15.2395 4.77196C15.2395 4.77196 14.4765 5.33246 12.916 4.82381C13.3481 5.10531 14.1876 5.50036 14.9555 6.14236C16.8716 7.82631 15.5012 9.47076 15.5012 9.47076C16.0741 8.92751 16.2741 8.09791 16.0173 7.35221C16.4222 8.02631 16.6173 8.80656 16.5753 9.59171C16.521 10.8856 15.8025 12.0164 15.0617 12.9177C14.8395 13.2016 14.6864 13.5349 14.6222 13.8905C14.7481 13.5374 14.9383 13.2115 15.1852 12.93C15.9876 11.9893 16.6667 11.014 16.7629 9.60901C16.8469 9.85591 17.1876 10.5745 17.7309 10.8436C17.7309 10.8436 17.0494 10.4337 16.7432 8.83371ZM6.52097 14.856C6.40247 14.6041 6.33827 14.3276 6.33577 14.0486C6.32837 13.5375 6.11852 13.051 5.75307 12.6955C5.82712 12.6609 5.89627 12.6165 5.95802 12.5622C6.19257 12.3622 6.32837 12.0708 6.32592 11.7622L6.31107 11.5424H6.08887C5.58022 11.5671 5.08642 11.3572 4.75307 10.9696C4.68146 10.8856 4.61726 10.7943 4.56047 10.698C4.78023 10.7646 5.00737 10.7967 5.23702 10.7967H5.46172C5.73087 10.7696 5.98517 10.6609 6.19012 10.4856L6.41972 10.2757L6.15802 10.1078C5.57037 9.73251 4.97035 9.02141 5.43207 7.77201C5.73087 6.95966 6.41972 6.22631 7.54317 5.52016C7.92097 5.27326 8.12837 4.99916 8.12837 4.73006C8.12837 4.31521 7.78022 4.14981 7.52592 4.03376C7.40987 3.9893 7.30367 3.9251 7.20987 3.84362C7.01232 3.61399 7.17777 3.17695 7.36292 2.93992L7.60987 2.63127L7.22962 2.5572C7.14317 2.54239 7.05432 2.53745 6.96542 2.53745C6.48392 2.52263 6.01972 2.70782 5.67897 3.04609C5.39997 3.32016 5.25432 3.70535 5.28147 4.09546H5.13332C4.57776 4.09546 4.31603 3.50782 4.30615 3.48313L4.1506 3.11522L3.90368 3.42387C3.67405 3.7251 3.56788 4.10286 3.60986 4.48066C3.69381 4.89796 3.95307 5.25841 4.32344 5.46831C4.358 5.49051 4.39257 5.51521 4.4222 5.54236C3.64195 5.78931 3.20492 6.35226 2.74566 6.93746L2.67899 7.02141C2.23949 7.58191 1.57282 7.91771 0.861707 7.94236H0.523438L0.627138 8.26586C0.627138 8.30536 0.938253 9.22141 1.83948 9.22141H1.88393C1.96788 9.21891 2.04936 9.20906 2.13084 9.19176C2.09381 9.68561 1.91109 10.614 1.08146 10.9572L0.834547 11.0609L0.970347 11.3078C1.19257 11.651 1.57529 11.8535 1.98516 11.8486C2.23455 11.851 2.47899 11.7942 2.70121 11.6807C2.73578 11.9671 2.79998 12.2486 2.89134 12.5202C3.04689 12.9375 3.04689 13.3992 2.89134 13.8165L2.76788 14.0782L3.04936 14.1523C3.17776 14.1819 3.31109 14.1992 3.44442 14.1992C3.53331 14.1992 3.6222 14.1893 3.70862 14.1696C3.89134 14.1276 4.05924 14.0436 4.20245 13.9226C4.28887 14.1992 4.43702 14.4535 4.63702 14.6634C5.02467 15.0609 5.58022 15.2584 6.30367 15.2609H6.74317L6.52097 14.856ZM6.30862 14.9942C4.31109 14.9942 4.36047 13.2807 4.36047 13.2807C4.2543 13.5992 3.99257 13.8412 3.66418 13.9202C3.59751 13.9375 3.5259 13.9449 3.45677 13.9449C3.34319 13.9449 3.23208 13.9301 3.12344 13.9029C3.30368 13.4263 3.30368 12.898 3.12344 12.4214C2.98269 12.0263 2.91603 11.6066 2.92344 11.1868C2.69628 11.4659 2.34813 11.6189 1.98763 11.5967H1.97529C1.6543 11.6017 1.35307 11.4412 1.17776 11.1745C2.50862 10.6214 2.37776 8.83621 2.37776 8.83621C2.22467 8.93006 2.04689 8.97941 1.86665 8.97696H1.83948C1.09874 8.97696 0.851832 8.19176 0.851832 8.19176H0.866648C1.64936 8.16706 2.38269 7.79671 2.86665 7.18191C3.37529 6.53746 3.7901 5.96956 4.61232 5.74731L4.69381 5.73251L4.71109 5.65101C4.73331 5.52511 4.64689 5.40411 4.46418 5.28066C3.33084 4.53991 4.10121 3.59177 4.10121 3.59177C4.10121 3.59177 4.4222 4.34981 5.15062 4.34981H5.18517C5.26912 4.34731 5.35062 4.33991 5.43207 4.32511L5.56542 4.29796C5.45182 3.91276 5.56542 3.49547 5.85677 3.21893C6.14317 2.92263 6.54072 2.7572 6.95307 2.76214C7.02467 2.76214 7.09877 2.76708 7.17037 2.77942C6.92342 3.10782 6.74072 3.65103 7.02962 3.98436C7.27652 4.27326 7.88887 4.28561 7.88887 4.72511C7.88887 4.90781 7.71852 5.12016 7.41482 5.31026C6.49627 5.88806 5.58517 6.65596 5.20737 7.68311C4.73578 8.96461 5.26912 9.81646 6.02962 10.3029C5.86417 10.4412 5.65922 10.5276 5.44442 10.5498H5.23947C4.84195 10.5671 4.44936 10.4461 4.13084 10.2066C4.19504 10.5449 4.34566 10.8609 4.57035 11.1202C4.94813 11.5572 5.50862 11.7992 6.08642 11.7745C6.08147 12.0091 5.97777 12.2313 5.79752 12.3819C5.59997 12.5152 5.37527 12.5992 5.13827 12.6288C5.13827 12.6288 5.99997 12.8041 6.09382 14.0757C6.09132 14.3992 6.17037 14.7177 6.32097 15.0041L6.30862 14.9942Z" fill="#222220"/>
<path d="M1.85684 6.81605H1.8593C1.95313 6.81605 2.04943 6.80125 2.13832 6.77165C2.37535 6.6679 2.57535 6.4951 2.71609 6.2778C2.90128 6.021 3.14079 5.8062 3.41733 5.64815L3.76301 5.463L3.44202 5.2383C3.26424 5.1247 3.0593 5.0605 2.84943 5.05805C2.57535 5.0605 2.31609 5.17655 2.13091 5.37905C1.884 5.66545 1.54325 5.8605 1.17042 5.92965L0.822266 5.94695L0.963006 6.2679C1.13585 6.60375 1.47906 6.8136 1.85684 6.81605ZM2.30128 5.54695C2.43955 5.3914 2.63708 5.3 2.84696 5.3C3.00745 5.3025 3.16548 5.3519 3.30128 5.4383C2.60251 5.81115 2.45684 6.40865 2.06671 6.54445C2.00251 6.5667 1.93338 6.57905 1.86424 6.57905C1.57782 6.57905 1.31609 6.421 1.18276 6.16915C1.61733 6.09755 2.01239 5.8778 2.30128 5.54695ZM3.4297 9.60124C3.38772 8.81604 3.58031 8.0358 3.98772 7.36175C3.73093 8.1074 3.93093 8.93705 4.50377 9.48025C4.50377 9.48025 3.13093 7.8358 5.04945 6.15185C5.81735 5.5099 6.6544 5.11485 7.08649 4.83335C5.526 5.342 4.76303 4.7815 4.76303 4.7815C5.20005 5.12225 5.76305 5.25555 6.30625 5.14445C6.1976 5.1963 6.08399 5.2531 5.96305 5.3173C4.64698 6.03335 3.45686 7.21115 3.2618 8.84074V8.82839C2.95562 10.4284 2.27414 10.8383 2.27414 10.8383C2.81488 10.5716 3.15809 9.85065 3.23957 9.60369C3.33093 11.0111 4.01735 11.9864 4.81982 12.9247C5.06425 13.2062 5.25685 13.5321 5.3828 13.8852C5.3161 13.5321 5.16305 13.1988 4.93834 12.9173C4.1976 12.016 3.48155 10.8852 3.4297 9.60124ZM9.54819 6.6284C9.63459 6.54445 9.75559 6.50495 9.87659 6.51975V6.9864C9.87414 7.10245 9.84449 7.2136 9.78769 7.3148H10.2543C10.1976 7.2136 10.1679 7.10245 10.1655 6.9864V6.51975C10.284 6.50495 10.405 6.54445 10.4914 6.6284V6.30495H9.54819V6.6284ZM9.35314 4.3889H9.3482C9.4198 4.45065 9.50375 4.5 9.59515 4.52965L9.6544 4.5568V4.25065L9.10625 4.021C9.1334 4.1741 9.22229 4.3074 9.35314 4.3889ZM10.6544 4.38645L10.6519 4.3889C10.7828 4.3074 10.8716 4.1741 10.8988 4.021L10.3507 4.25065V4.55435L10.4074 4.52715C10.4988 4.49755 10.5828 4.44815 10.6544 4.38645Z" fill="#222220"/>
<path d="M11.6377 3.14949C11.6377 2.68776 10.8599 2.27295 10.0031 2.27295C9.14633 2.27295 8.36858 2.68776 8.36858 3.14949L8.38583 3.26307L8.72908 5.23837L8.38583 5.43837L7.48958 5.94702C7.48958 5.94702 7.28958 6.05072 7.19573 6.11247C6.85748 6.35937 6.78583 6.69022 6.98093 6.83347C7.03028 6.49762 7.32413 6.25072 7.66488 6.26062C7.94883 6.26802 8.21303 6.41122 8.37353 6.64577C8.42288 6.70507 8.46733 6.76927 8.50683 6.83347C8.55868 6.91742 8.61053 6.99147 8.66238 7.06307H6.37598C6.56858 7.39392 6.67968 7.76677 6.70438 8.14947V13.2285C6.70438 14.4631 7.65003 15.0433 8.67968 15.0433C9.46983 15.0433 9.57598 15.0063 10.0105 15.4409C10.4451 15.0063 10.5513 15.0433 11.3414 15.0433C12.3636 15.0433 13.3167 14.4581 13.3167 13.2285V8.15442C13.3414 7.77172 13.4525 7.39887 13.6451 7.06802H11.334C11.3858 6.99642 11.4377 6.92232 11.4896 6.83837C11.5315 6.77417 11.576 6.70997 11.6229 6.65072C11.7858 6.41617 12.05 6.27297 12.334 6.26552C12.6747 6.25567 12.9686 6.50257 13.0179 6.83837C13.2155 6.69762 13.1439 6.34457 12.8031 6.11742C12.7118 6.05322 12.5118 5.95197 12.5118 5.95197L11.6229 5.42852L11.2797 5.22852L11.6229 3.2532L11.6377 3.14949ZM8.69943 3.37665L9.90438 3.78406V5.67542L9.01793 5.20627L8.69943 3.37665ZM6.86978 7.39642H8.94633C9.10683 7.56432 9.30438 7.69762 9.52168 7.78157C9.47473 7.94457 9.48708 8.11987 9.55378 8.27542C9.63278 8.44087 9.77353 8.56927 9.94633 8.63592C9.97843 8.91987 10.171 9.15692 10.4402 9.25072C10.292 9.40137 10.1463 9.54207 10.0871 9.59887L8.70683 9.57667C8.65993 9.55442 8.62288 9.51987 8.59818 9.47542V9.45812L8.82288 9.49517H8.83773C8.88213 9.49517 8.91918 9.46552 8.92658 9.42112C8.93398 9.37172 8.90188 9.32727 8.85253 9.31742L8.57598 9.27297L8.88213 8.21122L8.59078 7.59887L8.12413 8.09272L8.09448 9.19642L7.78093 9.14702C7.73153 9.13717 7.68708 9.16927 7.67723 9.21862V9.22112C7.66978 9.27047 7.70188 9.31492 7.75128 9.32482L7.88213 9.34457C7.83523 9.37172 7.80313 9.39147 7.80068 9.39642L7.77353 9.41617V9.44827C7.71178 9.72972 7.82538 10.0211 8.05748 10.189V10.2285C8.04263 10.3248 8.10933 10.4162 8.20563 10.4334H8.23523C8.31673 10.4334 8.38833 10.3767 8.40563 10.2952C8.46488 10.2976 8.52168 10.2976 8.58093 10.2952H8.61793L10.4278 10.6236L10.4575 10.6038C10.6007 10.5026 11.1513 10.11 11.3315 9.96927C11.3834 10.0137 11.4426 10.0532 11.5044 10.0828C11.4204 10.3421 11.4846 10.626 11.6723 10.8236H7.03523V8.15442C7.02538 7.89517 6.96858 7.63837 6.86978 7.39642ZM11.176 9.83837C10.9883 9.97667 10.5266 10.3125 10.3587 10.431L8.71673 10.1446V10.1001C8.74388 9.98902 8.75868 9.87542 8.76118 9.76182L10.1439 9.78407L10.171 9.75692C10.1933 9.73467 10.6303 9.31247 10.8525 9.06802C10.9118 9.14207 10.9809 9.20382 11.0599 9.25322C11.0204 9.45567 11.0624 9.66552 11.176 9.83837ZM8.43278 9.54207V9.54947C8.46983 9.61862 8.52413 9.67787 8.59078 9.71742C8.58833 9.81862 8.57843 9.91742 8.56118 10.0162C8.56118 10.0384 8.56118 10.0606 8.54388 10.0828V10.1174C8.43028 10.1174 8.31918 10.1001 8.21053 10.0655C8.01303 9.95937 7.90188 9.74207 7.93398 9.51987C8.02288 9.45812 8.12413 9.41862 8.23028 9.40382C8.32168 9.40137 8.40313 9.45567 8.43278 9.54207ZM8.26238 9.21367L8.28958 8.16927L8.53648 7.92232L8.68708 8.23592L8.39328 9.25322L8.26238 9.21367ZM11.1636 14.7149H10.9266L11.1118 14.11C11.1414 14.026 10.9883 13.9174 10.9241 13.8211C11.0747 13.9125 11.2303 13.9939 11.3908 14.068C11.3908 14.0878 11.1636 14.7149 11.1636 14.7149ZM11.7982 14.0384L11.7784 14.0211L11.65 14.6878C11.5686 14.6878 11.4821 14.7051 11.4031 14.71L11.5389 14.068C11.5784 13.8779 11.0673 13.8211 10.8155 13.4433C10.65 13.5816 10.4377 13.6458 10.2254 13.6236C10.0377 13.6211 9.85253 13.6013 9.66978 13.5643C9.63773 13.5618 9.60563 13.5618 9.57353 13.5643C9.49698 13.5594 9.42288 13.5989 9.38338 13.6655L9.34633 13.7273L8.64263 13.5569L8.47473 13.8483C8.44758 13.8878 8.45253 13.9421 8.48708 13.9767L8.53398 14.0285C8.48708 14.1199 8.42783 14.2038 8.35623 14.2754L8.25253 14.147C8.17353 14.0186 8.18093 13.8532 8.26983 13.7322L8.54633 13.2655L9.13648 13.3544L9.04513 13.1446C8.92168 12.868 9.10933 12.5149 9.12908 12.3125C9.12908 12.3742 9.06488 12.3865 9.00068 12.3865H8.83028C8.81793 12.3841 8.80313 12.3841 8.79078 12.3865L8.63028 12.4828L8.50438 12.3668C8.48463 12.3297 8.49203 12.2853 8.52168 12.2581L8.81303 11.9297L8.46733 11.5273L8.96118 11.7742L9.10933 11.5964C9.14883 11.6359 9.13153 11.7396 9.13153 11.7396C9.48958 11.8285 9.73893 12.1544 9.72908 12.5248V12.5964C9.77843 12.6754 9.85748 12.7297 9.94633 12.752L10.6155 12.8186C10.7488 12.7767 10.8846 12.7495 11.0229 12.7322C11.1414 12.7322 11.2599 12.7693 11.3587 12.8334C11.4056 12.8014 11.4624 12.7816 11.5192 12.7791H11.5414C11.8402 12.7791 11.9661 13.0507 12.1266 13.273C12.2476 13.4433 12.4105 13.7001 12.4105 13.7001C12.3636 13.7693 12.2871 13.8112 12.2031 13.8112C12.1735 13.8137 12.1463 13.8137 12.1167 13.8112C11.7957 13.752 11.7488 13.0902 11.5661 13.0384H11.5365C11.5019 13.0384 11.4698 13.0581 11.4525 13.0902C11.5365 13.3149 11.4871 13.4063 11.5784 13.5841C11.6451 13.6902 11.7291 13.7865 11.8254 13.868C11.8254 13.868 11.813 13.9668 11.7982 14.0384ZM8.20068 13.3915H8.19573L8.22538 13.468C8.20563 13.5347 7.97843 13.631 7.97843 13.631L7.92908 13.5223C7.86488 13.3668 7.91178 13.189 8.04758 13.0878L8.42043 12.8606L8.81793 12.9446C8.81548 13.0236 8.84018 13.1001 8.88708 13.1643L8.46978 13.0853L8.22288 13.2581C8.18338 13.2927 8.17598 13.347 8.20068 13.3915ZM12.976 13.231C13.0031 13.9174 12.5266 14.5199 11.8525 14.6532L11.9661 14.0557C11.9661 14.0211 11.9784 13.9791 11.9834 13.9446C12.0179 13.9594 12.0525 13.9693 12.0871 13.9767C12.1266 13.9791 12.1661 13.9791 12.2056 13.9767C12.3414 13.9767 12.4698 13.9149 12.5513 13.8063L12.6402 13.7026L12.5661 13.6014C12.5661 13.6014 12.4007 13.3396 12.2772 13.1668L12.2081 13.0631C12.0698 12.8557 11.8945 12.5939 11.5463 12.5939H11.5142C11.4649 12.5964 11.413 12.6063 11.3661 12.6236C11.2599 12.5717 11.1439 12.5446 11.0254 12.5446C10.9068 12.547 10.7883 12.5693 10.6772 12.6112L10.6179 12.6285L9.96608 12.5643C9.93893 12.552 9.91673 12.5322 9.89943 12.5075L10.0402 12.4507C10.0007 11.9791 9.54633 11.6902 9.29943 11.5939C9.28708 11.5421 9.26238 11.4976 9.22538 11.4606L9.08463 11.3273L8.96118 11.4754L8.89943 11.5495L7.98583 11.1742L8.58093 11.9149L8.34633 12.2705C8.29698 12.3199 8.29448 12.4014 8.34633 12.4532L8.59328 12.6211L8.84018 12.5273H8.86488C8.86488 12.5643 8.83773 12.7149 8.82538 12.7569L8.39573 12.6828L7.93648 12.9297C7.72413 13.0828 7.65003 13.3643 7.76118 13.6014L7.81303 13.7125L7.88463 13.8705L8.04513 13.8038C7.98583 13.9643 8.01053 14.1421 8.11423 14.2779L8.21053 14.4014L8.33893 14.5643L8.48213 14.4112C8.57598 14.3174 8.65003 14.2088 8.70188 14.0878L8.73153 13.989L8.66238 13.9125V13.8976L8.74143 13.7693L9.31178 13.9026L9.44018 13.9322L9.50933 13.8186L9.54633 13.7569C9.54633 13.7446 9.54633 13.7421 9.58093 13.7421H9.64263C9.83773 13.7816 10.0352 13.8014 10.2328 13.8038C10.3661 13.8112 10.4994 13.7964 10.6278 13.7569L10.9439 14.1174L10.7562 14.6952V14.7297C10.4747 14.7248 10.2056 14.8409 10.0155 15.0458C9.71178 14.7446 9.49698 14.7125 8.68463 14.7125C7.70933 14.7125 7.05003 14.1421 7.05003 13.231V11.0088H12.976V13.231ZM13.1365 7.39642C13.0352 7.63592 12.9809 7.89272 12.971 8.15442V9.81862C12.7562 9.77172 12.5957 9.58902 12.5809 9.36927V9.29272H12.5068C12.3784 9.28282 12.2599 9.22357 12.171 9.13222C12.0624 9.00627 12.0031 8.84827 12.0007 8.68282C11.8945 8.85567 11.9044 9.07787 12.0278 9.24087C12.1241 9.36182 12.2649 9.44332 12.4179 9.46307C12.4624 9.74947 12.692 9.97172 12.9784 10.0088V10.8236H11.9414C11.6698 10.6853 11.5562 10.3618 11.6772 10.0828L11.7167 9.99392L11.6254 9.95937C11.3291 9.85567 11.1661 9.53717 11.2599 9.23592L11.2797 9.16182L11.2105 9.12972C10.9513 8.97912 10.8081 8.68532 10.85 8.38902C10.7142 8.52727 10.6797 8.73717 10.7661 8.90997C10.7167 8.96677 10.6525 9.03342 10.5809 9.10752C10.3217 9.05322 10.134 8.82852 10.1241 8.56432V8.50257L10.0673 8.48037C9.91673 8.43592 9.79328 8.33222 9.72168 8.19392C9.67473 8.08037 9.66488 7.95197 9.69698 7.83342C9.74633 7.84332 9.79573 7.85072 9.84513 7.85567C9.89448 7.85812 9.94633 7.85812 9.99573 7.85567C10.3957 7.85567 10.776 7.68282 11.0426 7.38652L13.1365 7.39642ZM11.5365 5.71247L11.9414 5.95937L12.0426 6.01862C11.8328 6.07542 11.6426 6.18902 11.492 6.34702L11.4747 6.36182C11.4402 6.39887 11.4081 6.43592 11.376 6.47542L11.3562 6.50012C11.3241 6.53962 11.2945 6.58157 11.2673 6.62602L11.2525 6.64827C11.2179 6.69762 11.1858 6.75197 11.1538 6.80627C10.9291 7.25322 10.492 7.55197 9.99573 7.60137C9.49943 7.55197 9.06238 7.25322 8.83773 6.80627C8.80563 6.75197 8.77353 6.70012 8.74143 6.64827L8.72168 6.62112L8.64263 6.49272L8.62043 6.46552C8.58833 6.42602 8.55623 6.38902 8.52413 6.35442L8.50683 6.33717C8.35623 6.17912 8.16608 6.06552 7.95623 6.00877L8.05993 5.94947L8.46733 5.70257L8.88463 5.45567L9.99818 6.06062L11.1118 5.47542L11.5365 5.71247ZM10.9883 5.21862L10.1019 5.68532V3.78653L11.3044 3.37912L10.9883 5.21862ZM10.0007 3.58653L8.68213 3.05813C8.79328 2.79147 9.31178 2.56431 10.0007 2.56431C10.6896 2.56431 11.2081 2.79147 11.3192 3.05813L10.0007 3.58653Z" fill="#222220"/>
</svg>

