<svg width="39" height="10" viewBox="0 0 39 10" fill="none" xmlns="http://www.w3.org/2000/svg">
<path d="M7.03125 1.66406H4.37109V9H2.90039V1.66406H0.263672V0.46875H7.03125V1.66406ZM11.291 5.71289H9.63867V9H8.15625V0.46875H11.1562C12.1406 0.46875 12.9004 0.689453 13.4355 1.13086C13.9707 1.57227 14.2383 2.21094 14.2383 3.04688C14.2383 3.61719 14.0996 4.0957 13.8223 4.48242C13.5488 4.86523 13.166 5.16016 12.6738 5.36719L14.5898 8.92383V9H13.002L11.291 5.71289ZM9.63867 4.52344H11.1621C11.6621 4.52344 12.0527 4.39844 12.334 4.14844C12.6152 3.89453 12.7559 3.54883 12.7559 3.11133C12.7559 2.6543 12.625 2.30078 12.3633 2.05078C12.1055 1.80078 11.7188 1.67188 11.2031 1.66406H9.63867V4.52344ZM22.1543 6.22266C22.0684 7.13281 21.7324 7.84375 21.1465 8.35547C20.5605 8.86328 19.7812 9.11719 18.8086 9.11719C18.1289 9.11719 17.5293 8.95703 17.0098 8.63672C16.4941 8.3125 16.0957 7.85352 15.8145 7.25977C15.5332 6.66602 15.3867 5.97656 15.375 5.19141V4.39453C15.375 3.58984 15.5176 2.88086 15.8027 2.26758C16.0879 1.6543 16.4961 1.18164 17.0273 0.849609C17.5625 0.517578 18.1797 0.351562 18.8789 0.351562C19.8203 0.351562 20.5781 0.607422 21.1523 1.11914C21.7266 1.63086 22.0605 2.35352 22.1543 3.28711H20.6777C20.6074 2.67383 20.4277 2.23242 20.1387 1.96289C19.8535 1.68945 19.4336 1.55273 18.8789 1.55273C18.2344 1.55273 17.7383 1.78906 17.3906 2.26172C17.0469 2.73047 16.8711 3.41992 16.8633 4.33008V5.08594C16.8633 6.00781 17.0273 6.71094 17.3555 7.19531C17.6875 7.67969 18.1719 7.92188 18.8086 7.92188C19.3906 7.92188 19.8281 7.79102 20.1211 7.5293C20.4141 7.26758 20.5996 6.83203 20.6777 6.22266H22.1543ZM31.9805 9H26.2441V8.02148L29.0859 4.92188C29.4961 4.46484 29.7871 4.08398 29.959 3.7793C30.1348 3.4707 30.2227 3.16211 30.2227 2.85352C30.2227 2.44727 30.1074 2.11914 29.877 1.86914C29.6504 1.61914 29.3438 1.49414 28.957 1.49414C28.4961 1.49414 28.1387 1.63477 27.8848 1.91602C27.6309 2.19727 27.5039 2.58203 27.5039 3.07031H26.0801C26.0801 2.55078 26.1973 2.08398 26.4316 1.66992C26.6699 1.25195 27.0078 0.927734 27.4453 0.697266C27.8867 0.466797 28.3945 0.351562 28.9688 0.351562C29.7969 0.351562 30.4492 0.560547 30.9258 0.978516C31.4062 1.39258 31.6465 1.9668 31.6465 2.70117C31.6465 3.12695 31.5254 3.57422 31.2832 4.04297C31.0449 4.50781 30.6523 5.03711 30.1055 5.63086L28.0195 7.86328H31.9805V9ZM38.625 5.4082C38.625 6.63477 38.3945 7.56055 37.9336 8.18555C37.4766 8.80664 36.7793 9.11719 35.8418 9.11719C34.9199 9.11719 34.2246 8.81445 33.7559 8.20898C33.291 7.59961 33.0527 6.69922 33.041 5.50781V4.03125C33.041 2.80469 33.2695 1.88477 33.7266 1.27148C34.1875 0.658203 34.8887 0.351562 35.8301 0.351562C36.7637 0.351562 37.459 0.650391 37.916 1.24805C38.377 1.8457 38.6133 2.74023 38.625 3.93164V5.4082ZM37.2012 3.81445C37.2012 3.01367 37.0918 2.42773 36.873 2.05664C36.6543 1.68164 36.3066 1.49414 35.8301 1.49414C35.3652 1.49414 35.0234 1.67188 34.8047 2.02734C34.5859 2.37891 34.4707 2.92969 34.459 3.67969V5.61328C34.459 6.41016 34.5703 7.00391 34.793 7.39453C35.0156 7.78516 35.3652 7.98047 35.8418 7.98047C36.2988 7.98047 36.6367 7.80078 36.8555 7.44141C37.0742 7.07812 37.1895 6.51172 37.2012 5.74219V3.81445Z" fill="black"/>
</svg>
