<svg xmlns="http://www.w3.org/2000/svg" viewBox="0 0 80.64 77.8"><defs><style>.cls-1{fill:#fff;}</style></defs><g id="Слой_2" data-name="Слой 2"><g id="OBJECTS"><path class="cls-1" d="M56.73,39.55a1.26,1.26,0,0,0-1.58.8L46.8,73.15a3.4,3.4,0,0,1-4.27,2.17L7.79,66.48a1.18,1.18,0,1,0-.57,2.26L42,77.57c3.36.86,6.69-.83,7.43-3.76L57.73,41a1.25,1.25,0,0,0-1-1.46Z"/><path class="cls-1" d="M33.51,36.29A1.17,1.17,0,0,0,34.08,34l-5.82-1.48a1.16,1.16,0,1,0-.58,2.25Z"/><path class="cls-1" d="M39.82,61.39,34,59.91a1.16,1.16,0,1,0-.58,2.25l5.83,1.48a1.16,1.16,0,0,0,.57-2.25Z"/><path class="cls-1" d="M14,36.6A1.17,1.17,0,0,0,14.86,38l29,7.38a1.17,1.17,0,0,0,.57-2.26l-29-7.38A1.16,1.16,0,0,0,14,36.6Z"/><path class="cls-1" d="M13.31,44.1l29,7.38a1.16,1.16,0,1,0,.58-2.25l-29-7.39a1.17,1.17,0,1,0-.58,2.26Z"/><path class="cls-1" d="M11.77,50.18l29,7.38a1.16,1.16,0,0,0,.57-2.25l-29-7.39a1.17,1.17,0,0,0-.57,2.26Z"/><path class="cls-1" d="M77.62,10.53a19.68,19.68,0,0,0-3.06-3.75A1.16,1.16,0,1,0,73,8.46a17.48,17.48,0,0,1,2.69,3.31c.2.31.38.63.56,1l-6.32,1.43a2.13,2.13,0,0,1-2.21-.84l-1.83-2.54.63-2.64a1.17,1.17,0,0,0-.84-1.4h0a1.17,1.17,0,0,0-1.4.86l-.56,2.33-3.13.23a1.16,1.16,0,0,0-1.07,1.25,1.21,1.21,0,0,0,1.25,1.07L64,12.22l1.76,2.45a4.49,4.49,0,0,0,4.62,1.75l1.19-.27-.15,2a1.16,1.16,0,0,0,2.32.17l.2-2.66,3.23-.73a17.42,17.42,0,0,1,.58,10.4l-.88,3.47-1.75-2.94,1.22-2.43a1.16,1.16,0,1,0-2.08-1L73.2,24.5,71.12,24a1.17,1.17,0,0,0-.57,2.26h0l2.52.64,2.63,4.41A6.5,6.5,0,0,1,69,33.59l-18.3-4.65a4.52,4.52,0,0,1-3.4-4.32,3,3,0,0,0-1.21-2.38L40.5,18.16A6.72,6.72,0,0,1,42,6.51l7.34-2.93a17.27,17.27,0,0,1,6.43-1.25v0l-2.6,4.77-1.94.26a1.16,1.16,0,0,0-1,1.3c.22.52.34,1,1.3,1l1.72-.22,1.09,2.11a1.16,1.16,0,1,0,2.07-1.06l-1.18-2.3,2.58-4.74a2.47,2.47,0,0,0,.29-1,16.53,16.53,0,0,1,2,.38l5.21,1.32a17.6,17.6,0,0,1,3.14,1.14,1.17,1.17,0,0,0,1-2.11,19.47,19.47,0,0,0-3.57-1.28L60.62.61a19.59,19.59,0,0,0-12.17.81L41.11,4.35a9.12,9.12,0,0,0-2,1.16L33.72,4.15a1.17,1.17,0,0,0-.88.12l-21,12.48a1.24,1.24,0,0,0-.53.72L.17,61.29a5.48,5.48,0,0,0,4,6.66l2.63.67a1.17,1.17,0,0,0,.57-2.26L4.7,65.7a3.16,3.16,0,0,1-2.27-3.84L13.29,19.17l11.94,3a5,5,0,0,0,6-3.58l3-11.94,2.89.74A9,9,0,0,0,39.12,20l5.56,4.08a.7.7,0,0,1,.26.53,6.85,6.85,0,0,0,5.15,6.56l7.33,1.86,1.12,3.08a1.26,1.26,0,0,0,.18.32l2.46,3.16a2,2,0,0,0,2.17.63,1.92,1.92,0,0,0,1.27-1.88l-.13-3.51,3.89,1a8.84,8.84,0,0,0,10.74-6.38L80,25.86a19.77,19.77,0,0,0-2.42-15.33ZM29,18.06A2.62,2.62,0,0,1,25.8,20L15.46,17.32,31.62,7.71ZM62.15,34.64l.09,2.56-1.57-2-.52-1.42,1.85.47Z"/><path class="cls-1" d="M47.14,11a1.17,1.17,0,0,0-2.26-.57l-.27,1.06A2.49,2.49,0,0,1,43.46,13l-1.76,1a1.17,1.17,0,0,0-.4,1.6,1.2,1.2,0,0,0,1.59.41l1.76-1,.48-.32,1.93,2.07a1.2,1.2,0,0,0,1.64.06,1.15,1.15,0,0,0,.06-1.64l-2.17-2.34a5,5,0,0,0,.28-.8Z"/><path class="cls-1" d="M62.53,16.32a1.16,1.16,0,0,0-1.41.84l-.38,1.48-2.56-.75a5,5,0,0,0-1.09-.2l-2.6-2.63a1.16,1.16,0,1,0-1.65,1.63l1.51,1.53L51,19.87A1.16,1.16,0,1,0,52,22l3.34-1.64a3,3,0,0,1,2.15-.19l2.73.8a.71.71,0,0,1,.42.34l1.66,3.26L60.69,26.7a1.16,1.16,0,0,0,.22,1.63,1.22,1.22,0,0,0,1.63-.22l1.51-2,2.26,1.14a1.22,1.22,0,0,0,1.56-.52,1.16,1.16,0,0,0-.52-1.56l-2.78-1.41L62.75,20.2h0l.62-2.47a1.15,1.15,0,0,0-.84-1.41Z"/></g></g></svg>