<svg xmlns="http://www.w3.org/2000/svg" viewBox="0 0 69.16 60.94"><defs><style>.cls-1{fill:#f6f6f6;}</style></defs><g id="Слой_2" data-name="Слой 2"><g id="OBJECTS"><path class="cls-1" d="M66.5,53.1l-6.39-5.3-.64-.54-.5.67c-.51.68-1,1.37-1.58,2-.39.47-.76.9-1.13,1.27l-.61.62.67.56,6.39,5.3-2.66,3.23L52.89,55l-.46-.39-.5.35c-10.36,7.19-25.3,7.19-35.23-1l0,0L15.57,53l-.37-.3h0C5.26,44.4,2.51,29.73,7.71,18.22L8,17.67l-.47-.39L0,11.05,2.66,7.83l6.69,5.61L10,14l.51-.61.57-.71h0l.53-.67c.57-.68,1.13-1.34,1.68-1.93l.58-.62-.65-.54L6.46,3.28,9.12.05l7.34,6L17,6.5l.51-.4c7.94-6.34,15.43-6.29,21-6L36.6,5.64l-1.11-.17h-.05a26.15,26.15,0,0,0-9.84,0c-3.84.86-8,3.08-12.11,8h0C9.62,18.1,8.68,24.32,10,30.4A29.84,29.84,0,0,0,20,46.81l1.54,1.29h0a29.78,29.78,0,0,0,17.94,6.82c6.21.16,12.15-1.9,16-6.56h0c4.16-5,5.5-9.77,5.56-13.85a26.74,26.74,0,0,0-1.92-9.61v0c-.07-.25-.15-.46-.22-.65L64,21.36c1.31,5.41,2.69,12.76-2,21.73l-.3.57.49.41,7,5.8Zm-40.09-19-.65-2.73L24.88,34A23.87,23.87,0,0,0,24.11,37c-.57-5.32.47-10.8,3.84-14.86S36.46,16,41.78,15.61a21.53,21.53,0,0,0-2.69,1.31l-2.35,1.33,2.69.16a9.76,9.76,0,0,1,5.79,2.2h0c4.46,3.69,4.77,11,.38,16.18h0c-4.35,5.25-11.52,6.25-16,2.56A9.73,9.73,0,0,1,26.41,34.08ZM43.9,35.35c3.89-4.63,3.17-10.41,0-13.11s-9-2.32-12.91,2.38S27.77,35,31,37.73,40.06,40,43.9,35.35Zm-5.17-7A2.06,2.06,0,0,1,39,31.28a2.13,2.13,0,0,1-3,.23,2.07,2.07,0,0,1-.31-2.92A2.17,2.17,0,0,1,38.73,28.36Z"/></g></g></svg>