<svg xmlns="http://www.w3.org/2000/svg" viewBox="0 0 75.36 56.56"><defs><style>.cls-1{fill:#f9f9f9;}</style></defs><g id="Слой_2" data-name="Слой 2"><g id="OBJECTS"><path class="cls-1" d="M72.47,14.63,64.88,17l-.76.24.27.75c.28.76.56,1.53.8,2.32.17.56.32,1.08.43,1.57l.17.82.8-.25,7.59-2.34,1.18,3.82-8.5,2.61-.55.17v.58c.33,12-7.48,24-19.24,27.65h0l-1.31.4-.44.13h0c-11.82,3.61-25-1.86-31.48-12.05l-.31-.49-.56.17L4,45.82,2.84,42l8-2.41.73-.22-.22-.73c-.09-.29-.19-.57-.28-.83h0c-.09-.27-.18-.52-.26-.78-.24-.81-.48-1.6-.66-2.35L10,33.89l-.78.24-8,2.45L0,32.76l8.67-2.7.59-.19-.06-.61c-.91-9.67,3.05-15.64,6.19-19.93l3.46,4.37-.71.81h0l0,0a24.94,24.94,0,0,0-5.2,7.84c-1.32,3.52-1.71,8,.09,13.89h0c1.7,5.53,6.18,9.54,11.72,11.69a28.52,28.52,0,0,0,18.38.56L44.94,48h0A28.51,28.51,0,0,0,59.79,37.19c3.37-4.88,4.83-10.71,3.13-16.24h0c-1.85-6-4.94-9.51-8.16-11.7a25.49,25.49,0,0,0-8.7-3.49h0l-.64-.16L45.78,0c5,1.78,11.62,4.52,16.32,13l.3.54.59-.18,8.29-2.55ZM36.28,36.74l-2.53-.91,1.67,2.1a23.65,23.65,0,0,0,1.94,2.16c-4.55-2.34-8.39-6-9.87-10.85s-.4-10,2.05-14.46a22.26,22.26,0,0,0-.36,2.84L29,20.19l1.53-2.07a9.29,9.29,0,0,1,4.79-3.47h0C40.63,13,46.6,16.56,48.49,22.8h0c1.93,6.23-1,12.49-6.32,14.13A9.27,9.27,0,0,1,36.28,36.74ZM46.44,23.42c-1.67-5.54-6.67-8-10.51-6.82s-6.59,6-4.86,11.57,6.68,8,10.52,6.82S48.16,28.93,46.44,23.42Zm-8.29.47a2,2,0,0,1,2.5,1.29,2,2,0,0,1-1.38,2.5,2,2,0,0,1-2.5-1.29A2.07,2.07,0,0,1,38.15,23.89Z"/></g></g></svg>